{
.appVersion = "1029";
copyright = "Copyright 2012 The Voces Project Authors ()";
customParameters = (
{
name = licenseURL;
value = "http://scripts.sil.org/OFL";
},
{
name = trademark;
value = "Voces is a trademark of Ana Paula Megda, Pablo Ugerman.";
},
{
name = license;
value = "This Font Software is licensed under the SIL Open Font License, Version 1.1. This license is copied below, and is also available with a FAQ at: http://scripts.sil.org/OFL";
},
{
name = panose;
value = (
2,
11,
0,
0,
0,
0,
0,
0,
0,
0
);
},
{
name = openTypeOS2VendorID;
value = UGRD;
}
);
date = "2012-02-10 16:59:45 +0000";
designer = "Ana Paula Megda, Pablo Ugerman";
designerURL = "http://www.anamegda.com";
disablesAutomaticAlignment = 1;
familyName = Voces;
featurePrefixes = (
{
automatic = 1;
code = "languagesystem DFLT dflt;\012languagesystem latn dflt;\012languagesystem latn ROM;\012languagesystem latn MOL;\012languagesystem latn CAT;\012";
name = Languagesystems;
}
);
features = (
{
automatic = 1;
code = "feature locl;\012feature sups;\012feature frac;\012feature ordn;\012";
name = aalt;
},
{
automatic = 1;
code = "script latn;\012language ROM;\012sub Scedilla by Scommaaccent;\012sub scedilla by scommaaccent;\012sub Tcedilla by Tcommaaccent;\012sub tcedilla by tcommaaccent;\012language MOL;\012sub Scedilla by Scommaaccent;\012sub scedilla by scommaaccent;\012sub Tcedilla by Tcommaaccent;\012sub tcedilla by tcommaaccent;\012language CAT;\012sub  l' periodcentered' l by ldot;\012sub  L' periodcentered' L by Ldot;\012";
name = locl;
},
{
automatic = 1;
code = "sub n by nsuperior;\012sub zero by zerosuperior;\012sub one by onesuperior;\012sub two by twosuperior;\012sub three by threesuperior;\012sub four by foursuperior;\012sub five by fivesuperior;\012sub six by sixsuperior;\012sub seven by sevensuperior;\012sub eight by eightsuperior;\012sub nine by ninesuperior;\012";
name = sups;
},
{
automatic = 1;

glyphs = (
{
glyphname = A;
lastChange = "2017-06-07 13:43:09 +0000";
layers = (
{
hints = (
{
horizontal = 1;
place = "{186, 82}";
},
{
horizontal = 1;
place = "{700, -20}";
target = down;
type = TopGhost;
},
{
horizontal = 1;
place = "{0, 21}";
target = up;
type = BottomGhost;
}
);
layerId = UUID0;
paths = (
{
closed = 1;
nodes = (
"397 700 LINE",
"263 700 LINE",
"13 0 LINE",
"113 0 LINE",
"179 186 LINE",
"461 186 LINE",
"521 0 LINE",
"621 0 LINE"
);
},
{
closed = 1;
nodes = (
"273 451 LINE",
"299 524 OFFCURVE",
"320 615 OFFCURVE",
"320 615 CURVE",
"336 615 LINE",
"336 615 OFFCURVE",
"354 524 OFFCURVE",
"377 451 CURVE SMOOTH",
"435 268 LINE",
"208 268 LINE"
);
}
);
width = 634;
}
);
leftKerningGroup = A;
rightKerningGroup = A;
unicode = 0041;
},
{
glyphname = Aacute;
lastChange = "2017-06-07 13:43:09 +0000";
layers = (
{
hints = (
{
horizontal = 1;
place = "{186, 82}";
},
{
horizontal = 1;
place = "{700, -20}";
target = down;
type = TopGhost;
},
{
horizontal = 1;
place = "{0, 21}";
target = up;
type = BottomGhost;
},
{
horizontal = 1;
place = "{917, -20}";
target = down;
type = TopGhost;
}
);
layerId = UUID0;
paths = (
{
closed = 1;
nodes = (
"397 700 LINE",
"263 700 LINE",
"13 0 LINE",
"113 0 LINE",
"179 186 LINE",
"461 186 LINE",
"521 0 LINE",
"621 0 LINE"
);
},
{
closed = 1;
nodes = (
"273 451 LINE",
"299 524 OFFCURVE",
"320 615 OFFCURVE",
"320 615 CURVE",
"336 615 LINE",
"336 615 OFFCURVE",
"354 524 OFFCURVE",
"377 451 CURVE SMOOTH",
"435 268 LINE",
"208 268 LINE"
);
},
{
closed = 1;
nodes = (
"454 917 LINE",
"231 810 LINE",
"254 760 LINE",
"439 811 LINE SMOOTH",
"465 818 OFFCURVE",
"481 832 OFFCURVE",
"481 852 CURVE SMOOTH",
"481 857 OFFCURVE",
"480 861 OFFCURVE",
"477 867 CURVE SMOOTH"
);
}
);
width = 634;
}
);
leftKerningGroup = A;
rightKerningGroup = A;
unicode = 00C1;
},
{
glyphname = Abreve;
lastChange = "2017-06-07 13:43:09 +0000";
layers = (
{
hints = (
{
horizontal = 1;
place = "{740, 64}";
},
{
horizontal = 1;
place = "{186, 82}";
},
{
horizontal = 1;
place = "{700, -20}";
target = down;
type = TopGhost;
},
{
horizontal = 1;
place = "{0, 21}";
target = up;
type = BottomGhost;
},
{
horizontal = 1;
place = "{896, -20}";
target = down;
type = TopGhost;
}
);
layerId = UUID0;
paths = (
{
closed = 1;
nodes = (
"397 700 LINE",
"263 700 LINE",
"13 0 LINE",
"113 0 LINE",
"179 186 LINE",
"461 186 LINE",
"521 0 LINE",
"621 0 LINE"
);
},
{
closed = 1;
nodes = (
"273 451 LINE",
"299 524 OFFCURVE",
"320 615 OFFCURVE",
"320 615 CURVE",
"336 615 LINE",
"336 615 OFFCURVE",
"354 524 OFFCURVE",
"377 451 CURVE SMOOTH",
"435 268 LINE",
"208 268 LINE"
);
},
{
closed = 1;
nodes = (
"456 896 LINE",
"446 819 OFFCURVE",
"411 804 OFFCURVE",
"331 804 CURVE SMOOTH",
"251 804 OFFCURVE",
"216 819 OFFCURVE",
"206 896 CURVE",
"149 887 LINE",
"149 788 OFFCURVE",
"211 740 OFFCURVE",
"331 740 CURVE SMOOTH",
"451 740 OFFCURVE",
"513 788 OFFCURVE",
"513 887 CURVE"
);
}
);
width = 634;
}
);
leftKerningGroup = A;
rightKerningGroup = A;
unicode = 0102;
},
{
glyphname = Acircumflex;
lastChange = "2017-06-07 13:43:09 +0000";
layers = (
{
hints = (
{
horizontal = 1;
place = "{700, 198}";
},
{
horizontal = 1;
place = "{0, 21}";
target = up;
type = BottomGhost;
},
{
horizontal = 1;
place = "{186, 21}";
target = up;
type = BottomGhost;
}
);
layerId = UUID0;
paths = (
{
closed = 1;
nodes = (
"397 700 LINE",
"263 700 LINE",
"13 0 LINE",
"113 0 LINE",
"179 186 LINE",
"461 186 LINE",
"521 0 LINE",
"621 0 LINE"
);
},
{
closed = 1;
nodes = (
"273 451 LINE",
"299 524 OFFCURVE",
"320 615 OFFCURVE",
"320 615 CURVE",
"336 615 LINE",
"336 615 OFFCURVE",
"354 524 OFFCURVE",
"377 451 CURVE SMOOTH",
"435 268 LINE",
"208 268 LINE"
);
},
{
closed = 1;
nodes = (
"282 898 LINE",
"375 898 LINE",
"500 770 LINE",
"464 738 LINE",
"328 836 LINE",
"193 738 LINE",
"157 770 LINE"
);
}
);
width = 634;
}
);
leftKerningGroup = A;
rightKerningGroup = A;
unicode = 00C2;
},
{
glyphname = Adieresis;
lastChange = "2017-06-07 13:43:09 +0000";
layers = (
{
hints = (
{
place = "{179, 120}";
},
{
place = "{362, 120}";
},
{
horizontal = 1;
place = "{772, 120}";
},
{
horizontal = 1;
place = "{186, 82}";
},
{
horizontal = 1;
place = "{700, -20}";
target = down;
type = TopGhost;
},
{
horizontal = 1;
place = "{0, 21}";
target = up;
type = BottomGhost;
}
);
layerId = UUID0;
paths = (
{
closed = 1;
nodes = (
"397 700 LINE",
"263 700 LINE",
"13 0 LINE",
"113 0 LINE",
"179 186 LINE",
"461 186 LINE",
"521 0 LINE",
"621 0 LINE"
);
},
{
closed = 1;
nodes = (
"273 451 LINE",
"299 524 OFFCURVE",
"320 615 OFFCURVE",
"320 615 CURVE",
"336 615 LINE",
"336 615 OFFCURVE",
"354 524 OFFCURVE",
"377 451 CURVE SMOOTH",
"435 268 LINE",
"208 268 LINE"
);
},
{
closed = 1;
nodes = (
"179 799 OFFCURVE",
"207 772 OFFCURVE",
"239 772 CURVE SMOOTH",
"272 772 OFFCURVE",
"299 799 OFFCURVE",
"299 832 CURVE SMOOTH",
"299 865 OFFCURVE",
"272 892 OFFCURVE",
"239 892 CURVE SMOOTH",
"207 892 OFFCURVE",
"179 865 OFFCURVE",
"179 832 CURVE SMOOTH"
);
},
{
closed = 1;
nodes = (
"482 799 OFFCURVE",
"454 772 OFFCURVE",
"422 772 CURVE SMOOTH",
"389 772 OFFCURVE",
"362 799 OFFCURVE",
"362 832 CURVE SMOOTH",
"362 865 OFFCURVE",
"389 892 OFFCURVE",
"422 892 CURVE SMOOTH",
"454 892 OFFCURVE",
"482 865 OFFCURVE",
"482 832 CURVE SMOOTH"
);
}
);
width = 634;
}
);
leftKerningGroup = A;
rightKerningGroup = A;
unicode = 00C4;
},
{
glyphname = Agrave;
lastChange = "2017-06-07 13:43:09 +0000";
layers = (
{
hints = (
{
horizontal = 1;
place = "{186, 82}";
},
{
horizontal = 1;
place = "{917, -20}";
target = down;
type = TopGhost;
},
{
horizontal = 1;
place = "{0, 21}";
target = up;
type = BottomGhost;
},
{
horizontal = 1;
place = "{700, -20}";
target = down;
type = TopGhost;
}
);
layerId = UUID0;
paths = (
{
closed = 1;
nodes = (
"397 700 LINE",
"263 700 LINE",
"13 0 LINE",
"113 0 LINE",
"179 186 LINE",
"461 186 LINE",
"521 0 LINE",
"621 0 LINE"
);
},
{
closed = 1;
nodes = (
"273 451 LINE",
"299 524 OFFCURVE",
"320 615 OFFCURVE",
"320 615 CURVE",
"336 615 LINE",
"336 615 OFFCURVE",
"354 524 OFFCURVE",
"377 451 CURVE SMOOTH",
"435 268 LINE",
"208 268 LINE"
);
},
{
closed = 1;
nodes = (
"190 917 LINE",
"413 810 LINE",
"390 760 LINE",
"205 811 LINE SMOOTH",
"179 818 OFFCURVE",
"163 832 OFFCURVE",
"163 852 CURVE SMOOTH",
"163 857 OFFCURVE",
"164 861 OFFCURVE",
"167 867 CURVE SMOOTH"
);
}
);
width = 634;
}
);
leftKerningGroup = A;
rightKerningGroup = A;
unicode = 00C0;
},
{
glyphname = Amacron;
lastChange = "2017-06-07 13:43:09 +0000";
layers = (
{
hints = (
{
horizontal = 1;
place = "{786, 69}";
},
{
horizontal = 1;
place = "{186, 82}";
},
{
horizontal = 1;
place = "{700, -20}";
target = down;
type = TopGhost;
},
{
horizontal = 1;
place = "{0, 21}";
target = up;
type = BottomGhost;
}
);
layerId = UUID0;
paths = (
{
closed = 1;
nodes = (
"397 700 LINE",
"263 700 LINE",
"13 0 LINE",
"113 0 LINE",
"179 186 LINE",
"461 186 LINE",
"521 0 LINE",
"621 0 LINE"
);
},
{
closed = 1;
nodes = (
"273 451 LINE",
"299 524 OFFCURVE",
"320 615 OFFCURVE",
"320 615 CURVE",
"336 615 LINE",
"336 615 OFFCURVE",
"354 524 OFFCURVE",
"377 451 CURVE SMOOTH",
"435 268 LINE",
"208 268 LINE"
);
},
{
closed = 1;
nodes = (
"172 786 LINE",
"486 786 LINE",
"486 855 LINE",
"172 855 LINE"
);
}
);
width = 634;
}
);
leftKerningGroup = A;
rightKerningGroup = A;
unicode = 0100;
},
{
glyphname = Aogonek;
lastChange = "2017-06-07 13:43:09 +0000";
layers = (
{
hints = (
{
place = "{446, 67}";
},
{
horizontal = 1;
place = "{-220, 55}";
},
{
horizontal = 1;
place = "{186, 82}";
},
{
horizontal = 1;
place = "{700, -20}";
target = down;
type = TopGhost;
},
{
horizontal = 1;
place = "{0, -20}";
target = down;
type = TopGhost;
}
);
layerId = UUID0;
paths = (
{
closed = 1;
nodes = (
"621 0 LINE",
"561 -31 OFFCURVE",
"513 -74 OFFCURVE",
"513 -118 CURVE SMOOTH",
"513 -149 OFFCURVE",
"536 -165 OFFCURVE",
"561 -165 CURVE SMOOTH",
"581 -165 OFFCURVE",
"597 -159 OFFCURVE",
"609 -151 CURVE",
"638 -196 LINE",
"621 -206 OFFCURVE",
"597 -220 OFFCURVE",
"557 -220 CURVE SMOOTH",
"479 -220 OFFCURVE",
"446 -173 OFFCURVE",
"446 -118 CURVE SMOOTH",
"446 -74 OFFCURVE",
"472 -37 OFFCURVE",
"521 0 CURVE",
"461 186 LINE",
"179 186 LINE",
"113 0 LINE",
"13 0 LINE",
"263 700 LINE",
"397 700 LINE"
);
},
{
closed = 1;
nodes = (
"208 268 LINE",
"435 268 LINE",
"377 451 LINE SMOOTH",
"354 524 OFFCURVE",
"339 615 OFFCURVE",
"339 615 CURVE",
"317 615 LINE",
"317 615 OFFCURVE",
"299 524 OFFCURVE",
"273 451 CURVE SMOOTH"
);
}
);
width = 634;
}
);
leftKerningGroup = A;
rightKerningGroup = A;
unicode = 0104;
},
{
glyphname = Aring;
lastChange = "2017-06-07 13:43:09 +0000";
layers = (
{
hints = (
{
place = "{231, 57}";
},
{
place = "{373, 57}";
},
{
horizontal = 1;
place = "{888, 51}";
},
{
horizontal = 1;
place = "{751, 52}";
},
{
horizontal = 1;
place = "{186, 82}";
},
{
horizontal = 1;
place = "{700, -20}";
target = down;
type = TopGhost;
},
{
horizontal = 1;
place = "{0, 21}";
target = up;
type = BottomGhost;
}
);
layerId = UUID0;
paths = (
{
closed = 1;
nodes = (
"397 700 LINE",
"263 700 LINE",
"13 0 LINE",
"113 0 LINE",
"179 186 LINE",
"461 186 LINE",
"521 0 LINE",
"621 0 LINE"
);
},
{
closed = 1;
nodes = (
"273 451 LINE",
"299 524 OFFCURVE",
"320 615 OFFCURVE",
"320 615 CURVE",
"336 615 LINE",
"336 615 OFFCURVE",
"354 524 OFFCURVE",
"377 451 CURVE SMOOTH",
"435 268 LINE",
"208 268 LINE"
);
},
{
closed = 1;
nodes = (
"231 790 OFFCURVE",
"276 751 OFFCURVE",
"330 751 CURVE SMOOTH",
"384 751 OFFCURVE",
"430 790 OFFCURVE",
"430 844 CURVE SMOOTH",
"430 899 OFFCURVE",
"384 939 OFFCURVE",
"330 939 CURVE SMOOTH",
"276 939 OFFCURVE",
"231 899 OFFCURVE",
"231 844 CURVE SMOOTH"
);
},
{
closed = 1;
nodes = (
"288 872 OFFCURVE",
"306 888 OFFCURVE",
"330 888 CURVE SMOOTH",
"354 888 OFFCURVE",
"373 872 OFFCURVE",
"373 844 CURVE SMOOTH",
"373 818 OFFCURVE",
"354 803 OFFCURVE",
"330 803 CURVE SMOOTH",
"306 803 OFFCURVE",
"288 818 OFFCURVE",
"288 844 CURVE SMOOTH"
);
}
);
width = 634;
}
);
leftKerningGroup = A;
rightKerningGroup = A;
unicode = 00C5;
},
{
glyphname = Aringacute;
lastChange = "2017-06-07 13:43:09 +0000";
layers = (
{
hints = (
{
place = "{229, 57}";
},
{
place = "{371, 57}";
},
{
horizontal = 1;
place = "{777, 51}";
},
{
horizontal = 1;
place = "{186, 82}";
},
{
horizontal = 1;
place = "{0, 21}";
target = up;
type = BottomGhost;
},
{
horizontal = 1;
place = "{1007, -20}";
target = down;
type = TopGhost;
}
);
layerId = UUID0;
paths = (
{
closed = 1;
nodes = (
"229 708 OFFCURVE",
"238 687 OFFCURVE",
"253 671 CURVE",
"13 0 LINE",
"113 0 LINE",
"179 186 LINE",
"461 186 LINE",
"521 0 LINE",
"621 0 LINE",
"405 673 LINE",
"419 689 OFFCURVE",
"428 710 OFFCURVE",
"428 733 CURVE SMOOTH",
"428 788 OFFCURVE",
"382 828 OFFCURVE",
"328 828 CURVE SMOOTH",
"274 828 OFFCURVE",
"229 788 OFFCURVE",
"229 733 CURVE SMOOTH"
);
},
{
closed = 1;
nodes = (
"273 451 LINE SMOOTH",
"299 524 OFFCURVE",
"320 615 OFFCURVE",
"320 615 CURVE",
"336 615 LINE",
"336 615 OFFCURVE",
"354 524 OFFCURVE",
"377 451 CURVE SMOOTH",
"435 268 LINE",
"208 268 LINE"
);
},
{
closed = 1;
nodes = (
"465 1007 LINE",
"242 900 LINE",
"265 850 LINE",
"450 901 LINE SMOOTH",
"476 908 OFFCURVE",
"492 922 OFFCURVE",
"492 942 CURVE SMOOTH",
"492 947 OFFCURVE",
"491 951 OFFCURVE",
"488 957 CURVE SMOOTH"
);
},
{
closed = 1;
nodes = (
"286 761 OFFCURVE",
"304 777 OFFCURVE",
"328 777 CURVE SMOOTH",
"352 777 OFFCURVE",
"371 761 OFFCURVE",
"371 733 CURVE SMOOTH",
"371 707 OFFCURVE",
"352 692 OFFCURVE",
"328 692 CURVE SMOOTH",
"304 692 OFFCURVE",
"286 707 OFFCURVE",
"286 733 CURVE SMOOTH"
);
}
);
width = 634;
}
);
leftKerningGroup = A;
rightKerningGroup = A;
unicode = 01FA;
},
{
glyphname = Atilde;
lastChange = "2017-06-07 13:43:09 +0000";
layers = (
{
hints = (
{
horizontal = 1;
place = "{814, 75}";
},
{
horizontal = 1;
place = "{814, 34}";
},
{
horizontal = 1;
place = "{186, 82}";
},
{
horizontal = 1;
place = "{700, -20}";
target = down;
type = TopGhost;
},
{
horizontal = 1;
place = "{0, 21}";
target = up;
type = BottomGhost;
}
);
layerId = UUID0;
paths = (
{
closed = 1;
nodes = (
"397 700 LINE",
"263 700 LINE",
"13 0 LINE",
"113 0 LINE",
"179 186 LINE",
"461 186 LINE",
"521 0 LINE",
"621 0 LINE"
);
},
{
closed = 1;
nodes = (
"273 451 LINE",
"299 524 OFFCURVE",
"320 615 OFFCURVE",
"320 615 CURVE",
"336 615 LINE",
"336 615 OFFCURVE",
"354 524 OFFCURVE",
"377 451 CURVE SMOOTH",
"435 268 LINE",
"208 268 LINE"
);
},
{
closed = 1;
nodes = (
"441 773 OFFCURVE",
"480 793 OFFCURVE",
"508 850 CURVE",
"452 885 LINE",
"442 862 OFFCURVE",
"419 848 OFFCURVE",
"392 848 CURVE SMOOTH",
"354 848 OFFCURVE",
"318 889 OFFCURVE",
"259 889 CURVE SMOOTH",
"210 889 OFFCURVE",
"173 866 OFFCURVE",
"145 811 CURVE",
"200 775 LINE",
"218 800 OFFCURVE",
"228 814 OFFCURVE",
"264 814 CURVE SMOOTH",
"298 814 OFFCURVE",
"334 773 OFFCURVE",
"393 773 CURVE SMOOTH"
);
}
);
width = 634;
}
);
leftKerningGroup = A;
rightKerningGroup = A;
unicode = 00C3;
},
{
glyphname = AE;
lastChange = "2017-06-07 13:43:09 +0000";
layers = (
{
hints = (
{
place = "{528, 100}";
},
{
horizontal = 1;
place = "{0, 83}";
},
{
horizontal = 1;
place = "{186, 82}";
},
{
horizontal = 1;
place = "{332, 84}";
},
{
horizontal = 1;
place = "{617, 83}";
}
);
layerId = UUID0;
paths = (
{
closed = 1;
nodes = (
"945 0 LINE",
"945 83 LINE",
"628 83 LINE",
"628 332 LINE",
"915 332 LINE",
"915 416 LINE",
"628 416 LINE",
"628 617 LINE",
"945 617 LINE",
"945 700 LINE",
"493 700 LINE",
"13 0 LINE",
"133 0 LINE",
"251 186 LINE",
"528 186 LINE",
"528 0 LINE"
);
},
{
closed = 1;
nodes = (
"477 523 LINE",
"501 559 OFFCURVE",
"514 615 OFFCURVE",
"514 615 CURVE",
"546 615 LINE",
"546 615 OFFCURVE",
"528 536 OFFCURVE",
"528 484 CURVE SMOOTH",
"528 268 LINE",
"306 268 LINE"
);
}
);
width = 1005;
}
);
unicode = 00C6;
},
{
glyphname = AEacute;
lastChange = "2017-06-07 13:43:09 +0000";
layers = (
{
hints = (
{
place = "{528, 100}";
},
{
horizontal = 1;
place = "{0, 83}";
},
{
horizontal = 1;
place = "{186, 82}";
},
{
horizontal = 1;
place = "{332, 84}";
},
{
horizontal = 1;
place = "{617, 83}";
},
{
horizontal = 1;
place = "{917, -20}";
target = down;
type = TopGhost;
}
);
layerId = UUID0;
paths = (
{
closed = 1;
nodes = (
"945 0 LINE",
"945 83 LINE",
"628 83 LINE",
"628 332 LINE",
"915 332 LINE",
"915 416 LINE",
"628 416 LINE",
"628 617 LINE",
"945 617 LINE",
"945 700 LINE",
"493 700 LINE",
"13 0 LINE",
"133 0 LINE",
"251 186 LINE",
"528 186 LINE",
"528 0 LINE"
);
},
{
closed = 1;
nodes = (
"477 523 LINE",
"501 559 OFFCURVE",
"514 615 OFFCURVE",
"514 615 CURVE",
"546 615 LINE",
"546 615 OFFCURVE",
"528 536 OFFCURVE",
"528 484 CURVE SMOOTH",
"528 268 LINE",
"306 268 LINE"
);
},
{
closed = 1;
nodes = (
"781 917 LINE",
"558 810 LINE",
"581 760 LINE",
"766 811 LINE SMOOTH",
"792 818 OFFCURVE",
"808 832 OFFCURVE",
"808 852 CURVE SMOOTH",
"808 857 OFFCURVE",
"807 861 OFFCURVE",
"804 867 CURVE SMOOTH"
);
}
);
width = 1005;
}
);
unicode = 01FC;
},
{
glyphname = B;
lastChange = "2017-06-07 13:43:09 +0000";
layers = (
{
hints = (
{
place = "{100, 100}";
},
{
place = "{417, 95}";
},
{
place = "{461, 95}";
},
{
horizontal = 1;
place = "{0, 70}";
},
{
horizontal = 1;
place = "{332, 67}";
},
{
horizontal = 1;
place = "{635, 65}";
}
);
layerId = UUID0;
paths = (
{
closed = 1;
nodes = (
"281 0 LINE",
"446 0 OFFCURVE",
"556 37 OFFCURVE",
"556 202 CURVE SMOOTH",
"556 291 OFFCURVE",
"516 340 OFFCURVE",
"417 370 CURVE",
"417 386 LINE",
"484 416 OFFCURVE",
"512 473 OFFCURVE",
"512 523 CURVE SMOOTH",
"512 653 OFFCURVE",
"420 700 OFFCURVE",
"280 700 CURVE SMOOTH",
"100 700 LINE",
"100 0 LINE"
);
},
{
closed = 1;
nodes = (
"289 332 LINE",
"397 332 OFFCURVE",
"461 281 OFFCURVE",
"461 202 CURVE SMOOTH",
"461 94 OFFCURVE",
"389 70 OFFCURVE",
"281 70 CURVE SMOOTH",
"200 70 LINE",
"200 332 LINE"
);
},
{
closed = 1;
nodes = (
"417 435 OFFCURVE",
"355 399 OFFCURVE",
"269 399 CURVE SMOOTH",
"200 399 LINE",
"200 635 LINE",
"270 635 LINE SMOOTH",
"356 635 OFFCURVE",
"417 607 OFFCURVE",
"417 521 CURVE SMOOTH"
);
}
);
width = 611;
}
);
unicode = 0042;
},
{
glyphname = C;
lastChange = "2017-06-07 13:43:09 +0000";
layers = (
{
hints = (
{
place = "{60, 107}";
},
{
horizontal = 1;
place = "{-12, 78}";
},
{
horizontal = 1;
place = "{634, 78}";
}
);
layerId = UUID0;
paths = (
{
closed = 1;
nodes = (
"422 634 OFFCURVE",
"484 617 OFFCURVE",
"517 607 CURVE",
"537 677 LINE",
"505 689 OFFCURVE",
"446 712 OFFCURVE",
"365 712 CURVE SMOOTH",
"151 712 OFFCURVE",
"60 575 OFFCURVE",
"60 350 CURVE SMOOTH",
"60 130 OFFCURVE",
"146 -12 OFFCURVE",
"364 -12 CURVE SMOOTH",
"446 -12 OFFCURVE",
"505 9 OFFCURVE",
"540 24 CURVE",
"520 97 LINE",
"480 84 OFFCURVE",
"423 66 OFFCURVE",
"365 66 CURVE SMOOTH",
"210 66 OFFCURVE",
"167 190 OFFCURVE",
"167 350 CURVE SMOOTH",
"167 510 OFFCURVE",
"210 634 OFFCURVE",
"365 634 CURVE SMOOTH"
);
}
);
width = 570;
}
);
leftKerningGroup = O;
unicode = 0043;
},
{
glyphname = Cacute;
lastChange = "2017-06-07 13:43:09 +0000";
layers = (
{
hints = (
{
place = "{60, 107}";
},
{
horizontal = 1;
place = "{-12, 78}";
},
{
horizontal = 1;
place = "{634, 78}";
},
{
horizontal = 1;
place = "{917, -20}";
target = down;
type = TopGhost;
}
);
layerId = UUID0;
paths = (
{
closed = 1;
nodes = (
"422 634 OFFCURVE",
"484 617 OFFCURVE",
"517 607 CURVE",
"537 677 LINE",
"505 689 OFFCURVE",
"446 712 OFFCURVE",
"365 712 CURVE SMOOTH",
"151 712 OFFCURVE",
"60 575 OFFCURVE",
"60 350 CURVE SMOOTH",
"60 130 OFFCURVE",
"146 -12 OFFCURVE",
"364 -12 CURVE SMOOTH",
"446 -12 OFFCURVE",
"505 9 OFFCURVE",
"540 24 CURVE",
"520 97 LINE",
"480 84 OFFCURVE",
"423 66 OFFCURVE",
"365 66 CURVE SMOOTH",
"210 66 OFFCURVE",
"167 190 OFFCURVE",
"167 350 CURVE SMOOTH",
"167 510 OFFCURVE",
"210 634 OFFCURVE",
"365 634 CURVE SMOOTH"
);
},
{
closed = 1;
nodes = (
"469 917 LINE",
"246 810 LINE",
"269 760 LINE",
"454 811 LINE SMOOTH",
"480 818 OFFCURVE",
"496 832 OFFCURVE",
"496 852 CURVE SMOOTH",
"496 857 OFFCURVE",
"495 861 OFFCURVE",
"492 867 CURVE SMOOTH"
);
}
);
width = 570;
}
);
leftKerningGroup = O;
unicode = 0106;
},
{
glyphname = Ccaron;
lastChange = "2017-06-07 13:43:09 +0000";
layers = (
{
hints = (
{
place = "{60, 107}";
},
{
horizontal = 1;
place = "{-12, 78}";
},
{
horizontal = 1;
place = "{634, 78}";
},
{
horizontal = 1;
place = "{712, 51}";
},
{
horizontal = 1;
place = "{923, -20}";
target = down;
type = TopGhost;
}
);
layerId = UUID0;
paths = (
{
closed = 1;
nodes = (
"422 634 OFFCURVE",
"484 617 OFFCURVE",
"517 607 CURVE",
"537 677 LINE",
"505 689 OFFCURVE",
"446 712 OFFCURVE",
"365 712 CURVE SMOOTH",
"151 712 OFFCURVE",
"60 575 OFFCURVE",
"60 350 CURVE SMOOTH",
"60 130 OFFCURVE",
"146 -12 OFFCURVE",
"364 -12 CURVE SMOOTH",
"446 -12 OFFCURVE",
"505 9 OFFCURVE",
"540 24 CURVE",
"520 97 LINE",
"480 84 OFFCURVE",
"423 66 OFFCURVE",
"365 66 CURVE SMOOTH",
"210 66 OFFCURVE",
"167 190 OFFCURVE",
"167 350 CURVE SMOOTH",
"167 510 OFFCURVE",
"210 634 OFFCURVE",
"365 634 CURVE SMOOTH"
);
},
{
closed = 1;
nodes = (
"298 763 LINE",
"391 763 LINE",
"516 891 LINE",
"480 923 LINE",
"344 825 LINE",
"209 923 LINE",
"173 891 LINE"
);
}
);
width = 570;
}
);
leftKerningGroup = O;
unicode = 010C;
},
{
glyphname = Ccedilla;
lastChange = "2017-06-07 13:43:09 +0000";
layers = (
{
hints = (
{
place = "{60, 107}";
},
{
place = "{368, 62}";
},
{
horizontal = 1;
place = "{-220, 43}";
},
{
horizontal = 1;
place = "{-84, 150}";
},
{
horizontal = 1;
place = "{-12, 78}";
},
{
horizontal = 1;
place = "{634, 78}";
},
{
horizontal = 1;
place = "{-11, -20}";
target = down;
type = TopGhost;
}
);
layerId = UUID0;
paths = (
{
closed = 1;
nodes = (
"291 -177 OFFCURVE",
"275 -174 OFFCURVE",
"260 -170 CURVE",
"250 -210 LINE",
"265 -215 OFFCURVE",
"290 -220 OFFCURVE",
"318 -220 CURVE SMOOTH",
"391 -220 OFFCURVE",
"430 -190 OFFCURVE",
"430 -130 CURVE SMOOTH",
"430 -90 OFFCURVE",
"399 -56 OFFCURVE",
"341 -48 CURVE",
"351 -11 LINE",
"355 -11 OFFCURVE",
"359 -12 OFFCURVE",
"364 -12 CURVE SMOOTH",
"446 -12 OFFCURVE",
"505 9 OFFCURVE",
"540 24 CURVE",
"520 97 LINE",
"480 84 OFFCURVE",
"423 66 OFFCURVE",
"365 66 CURVE SMOOTH",
"210 66 OFFCURVE",
"167 190 OFFCURVE",
"167 350 CURVE SMOOTH",
"167 510 OFFCURVE",
"210 634 OFFCURVE",
"365 634 CURVE SMOOTH",
"422 634 OFFCURVE",
"484 617 OFFCURVE",
"517 607 CURVE",
"537 677 LINE",
"505 689 OFFCURVE",
"446 712 OFFCURVE",
"365 712 CURVE SMOOTH",
"151 712 OFFCURVE",
"60 575 OFFCURVE",
"60 350 CURVE SMOOTH",
"60 153 OFFCURVE",
"128 19 OFFCURVE",
"298 -7 CURVE",
"280 -84 LINE",
"329 -87 OFFCURVE",
"368 -94 OFFCURVE",
"368 -129 CURVE SMOOTH",
"368 -155 OFFCURVE",
"353 -177 OFFCURVE",
"314 -177 CURVE SMOOTH"
);
}
);
width = 570;
}
);
leftKerningGroup = O;
unicode = 00C7;
},
{
glyphname = Ccircumflex;
lastChange = "2017-06-07 13:43:09 +0000";
layers = (
{
hints = (
{
place = "{60, 107}";
},
{
horizontal = 1;
place = "{-12, 78}";
},
{
horizontal = 1;
place = "{634, 78}";
},
{
horizontal = 1;
place = "{712, 186}";
}
);
layerId = UUID0;
paths = (
{
closed = 1;
nodes = (
"422 634 OFFCURVE",
"484 617 OFFCURVE",
"517 607 CURVE",
"537 677 LINE",
"505 689 OFFCURVE",
"446 712 OFFCURVE",
"365 712 CURVE SMOOTH",
"151 712 OFFCURVE",
"60 575 OFFCURVE",
"60 350 CURVE SMOOTH",
"60 130 OFFCURVE",
"146 -12 OFFCURVE",
"364 -12 CURVE SMOOTH",
"446 -12 OFFCURVE",
"505 9 OFFCURVE",
"540 24 CURVE",
"520 97 LINE",
"480 84 OFFCURVE",
"423 66 OFFCURVE",
"365 66 CURVE SMOOTH",
"210 66 OFFCURVE",
"167 190 OFFCURVE",
"167 350 CURVE SMOOTH",
"167 510 OFFCURVE",
"210 634 OFFCURVE",
"365 634 CURVE SMOOTH"
);
},
{
closed = 1;
nodes = (
"303 898 LINE",
"396 898 LINE",
"521 770 LINE",
"485 738 LINE",
"349 836 LINE",
"214 738 LINE",
"178 770 LINE"
);
}
);
width = 570;
}
);
leftKerningGroup = O;
unicode = 0108;
},
{
glyphname = Cdot;
lastChange = "2017-06-07 13:43:09 +0000";
layers = (
{
hints = (
{
place = "{60, 107}";
},
{
place = "{267, 142}";
},
{
horizontal = 1;
place = "{-12, 78}";
},
{
horizontal = 1;
place = "{634, 78}";
},
{
horizontal = 1;
place = "{773, 142}";
}
);
layerId = UUID0;
paths = (
{
closed = 1;
nodes = (
"422 634 OFFCURVE",
"484 617 OFFCURVE",
"517 607 CURVE",
"537 677 LINE",
"505 689 OFFCURVE",
"446 712 OFFCURVE",
"365 712 CURVE SMOOTH",
"151 712 OFFCURVE",
"60 575 OFFCURVE",
"60 350 CURVE SMOOTH",
"60 130 OFFCURVE",
"146 -12 OFFCURVE",
"364 -12 CURVE SMOOTH",
"446 -12 OFFCURVE",
"505 9 OFFCURVE",
"540 24 CURVE",
"520 97 LINE",
"480 84 OFFCURVE",
"423 66 OFFCURVE",
"365 66 CURVE SMOOTH",
"210 66 OFFCURVE",
"167 190 OFFCURVE",
"167 350 CURVE SMOOTH",
"167 510 OFFCURVE",
"210 634 OFFCURVE",
"365 634 CURVE SMOOTH"
);
},
{
closed = 1;
nodes = (
"267 805 OFFCURVE",
"299 773 OFFCURVE",
"338 773 CURVE SMOOTH",
"377 773 OFFCURVE",
"409 805 OFFCURVE",
"409 844 CURVE SMOOTH",
"409 883 OFFCURVE",
"377 915 OFFCURVE",
"338 915 CURVE SMOOTH",
"299 915 OFFCURVE",
"267 883 OFFCURVE",
"267 844 CURVE SMOOTH"
);
}
);
width = 570;
}
);
leftKerningGroup = O;
unicode = 010A;
},
{
glyphname = D;
lastChange = "2017-06-07 13:43:09 +0000";
layers = (
{
hints = (
{
place = "{85, 100}";
},
{
place = "{518, 105}";
},
{
horizontal = 1;
place = "{0, 80}";
},
{
horizontal = 1;
place = "{624, 76}";
}
);
layerId = UUID0;
paths = (
{
closed = 1;
nodes = (
"185 80 LINE",
"185 624 LINE",
"301 624 LINE SMOOTH",
"468 624 OFFCURVE",
"518 505 OFFCURVE",
"518 350 CURVE SMOOTH",
"518 195 OFFCURVE",
"470 80 OFFCURVE",
"303 80 CURVE SMOOTH"
);
},
{
closed = 1;
nodes = (
"300 0 LINE",
"530 0 OFFCURVE",
"623 136 OFFCURVE",
"623 350 CURVE SMOOTH",
"623 568 OFFCURVE",
"525 700 OFFCURVE",
"300 700 CURVE SMOOTH",
"85 700 LINE",
"85 0 LINE"
);
}
);
width = 686;
}
);
rightKerningGroup = O;
unicode = 0044;
},
{
glyphname = Eth;
lastChange = "2017-06-07 13:43:09 +0000";
layers = (
{
hints = (
{
place = "{85, 100}";
},
{
place = "{518, 105}";
},
{
horizontal = 1;
place = "{0, 80}";
},
{
horizontal = 1;
place = "{318, 77}";
},
{
horizontal = 1;
place = "{624, 76}";
}
);
layerId = UUID0;
paths = (
{
closed = 1;
nodes = (
"14 318 LINE",
"85 318 LINE",
"85 0 LINE",
"300 0 LINE SMOOTH",
"530 0 OFFCURVE",
"623 136 OFFCURVE",
"623 350 CURVE SMOOTH",
"623 568 OFFCURVE",
"525 700 OFFCURVE",
"300 700 CURVE SMOOTH",
"85 700 LINE",
"85 395 LINE",
"14 395 LINE"
);
},
{
closed = 1;
nodes = (
"185 80 LINE",
"185 318 LINE",
"344 318 LINE",
"344 395 LINE",
"185 395 LINE",
"185 624 LINE",
"301 624 LINE SMOOTH",
"468 624 OFFCURVE",
"518 505 OFFCURVE",
"518 350 CURVE SMOOTH",
"518 195 OFFCURVE",
"470 80 OFFCURVE",
"303 80 CURVE SMOOTH"
);
}
);
width = 686;
}
);
rightKerningGroup = O;
unicode = 00D0;
},
{
glyphname = Dcaron;
lastChange = "2017-06-07 13:43:09 +0000";
layers = (
{
hints = (
{
place = "{85, 100}";
},
{
place = "{518, 105}";
},
{
horizontal = 1;
place = "{0, 80}";
},
{
horizontal = 1;
place = "{624, 76}";
},
{
horizontal = 1;
place = "{700, 63}";
},
{
horizontal = 1;
place = "{923, -20}";
target = down;
type = TopGhost;
}
);
layerId = UUID0;
paths = (
{
closed = 1;
nodes = (
"185 80 LINE",
"185 624 LINE",
"301 624 LINE SMOOTH",
"468 624 OFFCURVE",
"518 505 OFFCURVE",
"518 350 CURVE SMOOTH",
"518 195 OFFCURVE",
"470 80 OFFCURVE",
"303 80 CURVE SMOOTH"
);
},
{
closed = 1;
nodes = (
"300 0 LINE",
"530 0 OFFCURVE",
"623 136 OFFCURVE",
"623 350 CURVE SMOOTH",
"623 568 OFFCURVE",
"525 700 OFFCURVE",
"300 700 CURVE SMOOTH",
"85 700 LINE",
"85 0 LINE"
);
},
{
closed = 1;
nodes = (
"276 763 LINE",
"369 763 LINE",
"494 891 LINE",
"458 923 LINE",
"322 825 LINE",
"187 923 LINE",
"151 891 LINE"
);
}
);
width = 686;
}
);
rightKerningGroup = O;
unicode = 010E;
},
{
glyphname = Dcroat;
lastChange = "2017-06-07 13:43:09 +0000";
layers = (
{
hints = (
{
place = "{85, 100}";
},
{
place = "{518, 105}";
},
{
horizontal = 1;
place = "{0, 80}";
},
{
horizontal = 1;
place = "{318, 77}";
},
{
horizontal = 1;
place = "{624, 76}";
}
);
layerId = UUID0;
paths = (
{
closed = 1;
nodes = (
"14 318 LINE",
"85 318 LINE",
"85 0 LINE",
"300 0 LINE SMOOTH",
"530 0 OFFCURVE",
"623 136 OFFCURVE",
"623 350 CURVE SMOOTH",
"623 568 OFFCURVE",
"525 700 OFFCURVE",
"300 700 CURVE SMOOTH",
"85 700 LINE",
"85 395 LINE",
"14 395 LINE"
);
},
{
closed = 1;
nodes = (
"185 80 LINE",
"185 318 LINE",
"344 318 LINE",
"344 395 LINE",
"185 395 LINE",
"185 624 LINE",
"301 624 LINE SMOOTH",
"468 624 OFFCURVE",
"518 505 OFFCURVE",
"518 350 CURVE SMOOTH",
"518 195 OFFCURVE",
"470 80 OFFCURVE",
"303 80 CURVE SMOOTH"
);
}
);
width = 686;
}
);
rightKerningGroup = O;
unicode = 0110;
},
{
glyphname = E;
lastChange = "2017-06-07 13:43:09 +0000";
layers = (
{
hints = (
{
place = "{95, 100}";
},
{
horizontal = 1;
place = "{0, 83}";
},
{
horizontal = 1;
place = "{332, 84}";
},
{
horizontal = 1;
place = "{617, 83}";
}
);
layerId = UUID0;
paths = (
{
closed = 1;
nodes = (
"512 0 LINE",
"512 83 LINE",
"195 83 LINE",
"195 332 LINE",
"482 332 LINE",
"482 416 LINE",
"195 416 LINE",
"195 617 LINE",
"512 617 LINE",
"512 700 LINE",
"95 700 LINE",
"95 0 LINE"
);
}
);
width = 572;
}
);
unicode = 0045;
},
{
glyphname = Eacute;
lastChange = "2017-06-07 13:43:09 +0000";
layers = (
{
hints = (
{
place = "{95, 100}";
},
{
horizontal = 1;
place = "{0, 83}";
},
{
horizontal = 1;
place = "{332, 84}";
},
{
horizontal = 1;
place = "{617, 83}";
},
{
horizontal = 1;
place = "{917, -20}";
target = down;
type = TopGhost;
}
);
layerId = UUID0;
paths = (
{
closed = 1;
nodes = (
"512 0 LINE",
"512 83 LINE",
"195 83 LINE",
"195 332 LINE",
"482 332 LINE",
"482 416 LINE",
"195 416 LINE",
"195 617 LINE",
"512 617 LINE",
"512 700 LINE",
"95 700 LINE",
"95 0 LINE"
);
},
{
closed = 1;
nodes = (
"407 917 LINE",
"184 810 LINE",
"207 760 LINE",
"392 811 LINE SMOOTH",
"418 818 OFFCURVE",
"434 832 OFFCURVE",
"434 852 CURVE SMOOTH",
"434 857 OFFCURVE",
"433 861 OFFCURVE",
"430 867 CURVE SMOOTH"
);
}
);
width = 572;
}
);
unicode = 00C9;
},
{
glyphname = Ebreve;
lastChange = "2017-06-07 13:43:09 +0000";
layers = (
{
hints = (
{
place = "{95, 100}";
},
{
horizontal = 1;
place = "{0, 83}";
},
{
horizontal = 1;
place = "{332, 84}";
},
{
horizontal = 1;
place = "{617, 83}";
},
{
horizontal = 1;
place = "{754, 64}";
},
{
horizontal = 1;
place = "{910, -20}";
target = down;
type = TopGhost;
}
);
layerId = UUID0;
paths = (
{
closed = 1;
nodes = (
"512 0 LINE",
"512 83 LINE",
"195 83 LINE",
"195 332 LINE",
"482 332 LINE",
"482 416 LINE",
"195 416 LINE",
"195 617 LINE",
"512 617 LINE",
"512 700 LINE",
"95 700 LINE",
"95 0 LINE"
);
},
{
closed = 1;
nodes = (
"425 910 LINE",
"415 833 OFFCURVE",
"380 818 OFFCURVE",
"300 818 CURVE SMOOTH",
"220 818 OFFCURVE",
"185 833 OFFCURVE",
"175 910 CURVE",
"118 901 LINE",
"118 802 OFFCURVE",
"180 754 OFFCURVE",
"300 754 CURVE SMOOTH",
"420 754 OFFCURVE",
"482 802 OFFCURVE",
"482 901 CURVE"
);
}
);
width = 572;
}
);
unicode = 0114;
},
{
glyphname = Ecaron;
lastChange = "2017-06-07 13:43:09 +0000";
layers = (
{
hints = (
{
place = "{95, 100}";
},
{
horizontal = 1;
place = "{0, 83}";
},
{
horizontal = 1;
place = "{332, 84}";
},
{
horizontal = 1;
place = "{617, 83}";
},
{
horizontal = 1;
place = "{700, 63}";
},
{
horizontal = 1;
place = "{416, 201}";
},
{
horizontal = 1;
place = "{83, 249}";
},
{
horizontal = 1;
place = "{923, -20}";
target = down;
type = TopGhost;
}
);
layerId = UUID0;
paths = (
{
closed = 1;
nodes = (
"512 0 LINE",
"512 83 LINE",
"195 83 LINE",
"195 332 LINE",
"482 332 LINE",
"482 416 LINE",
"195 416 LINE",
"195 617 LINE",
"512 617 LINE",
"512 700 LINE",
"95 700 LINE",
"95 0 LINE"
);
},
{
closed = 1;
nodes = (
"249 763 LINE",
"342 763 LINE",
"467 891 LINE",
"431 923 LINE",
"295 825 LINE",
"160 923 LINE",
"124 891 LINE"
);
}
);
width = 572;
}
);
unicode = 011A;
},
{
glyphname = Ecircumflex;
lastChange = "2017-06-07 13:43:09 +0000";
layers = (
{
hints = (
{
place = "{95, 100}";
},
{
horizontal = 1;
place = "{0, 83}";
},
{
horizontal = 1;
place = "{332, 84}";
},
{
horizontal = 1;
place = "{617, 83}";
},
{
horizontal = 1;
place = "{700, 198}";
},
{
horizontal = 1;
place = "{416, 201}";
},
{
horizontal = 1;
place = "{83, 249}";
}
);
layerId = UUID0;
paths = (
{
closed = 1;
nodes = (
"512 0 LINE",
"512 83 LINE",
"195 83 LINE",
"195 332 LINE",
"482 332 LINE",
"482 416 LINE",
"195 416 LINE",
"195 617 LINE",
"512 617 LINE",
"512 700 LINE",
"95 700 LINE",
"95 0 LINE"
);
},
{
closed = 1;
nodes = (
"262 898 LINE",
"355 898 LINE",
"480 770 LINE",
"444 738 LINE",
"308 836 LINE",
"173 738 LINE",
"137 770 LINE"
);
}
);
width = 572;
}
);
unicode = 00CA;
},
{
glyphname = Edieresis;
lastChange = "2017-06-07 13:43:09 +0000";
layers = (
{
hints = (
{
place = "{95, 100}";
},
{
place = "{152, 120}";
},
{
place = "{152, 183}";
},
{
horizontal = 1;
place = "{0, 83}";
},
{
horizontal = 1;
place = "{332, 84}";
},
{
horizontal = 1;
place = "{617, 83}";
},
{
horizontal = 1;
place = "{772, 120}";
},
{
horizontal = 1;
place = "{617, 155}";
}
);
layerId = UUID0;
paths = (
{
closed = 1;
nodes = (
"512 0 LINE",
"512 83 LINE",
"195 83 LINE",
"195 332 LINE",
"482 332 LINE",
"482 416 LINE",
"195 416 LINE",
"195 617 LINE",
"512 617 LINE",
"512 700 LINE",
"95 700 LINE",
"95 0 LINE"
);
},
{
closed = 1;
nodes = (
"152 799 OFFCURVE",
"180 772 OFFCURVE",
"212 772 CURVE SMOOTH",
"245 772 OFFCURVE",
"272 799 OFFCURVE",
"272 832 CURVE SMOOTH",
"272 865 OFFCURVE",
"245 892 OFFCURVE",
"212 892 CURVE SMOOTH",
"180 892 OFFCURVE",
"152 865 OFFCURVE",
"152 832 CURVE SMOOTH"
);
},
{
closed = 1;
nodes = (
"455 799 OFFCURVE",
"427 772 OFFCURVE",
"395 772 CURVE SMOOTH",
"362 772 OFFCURVE",
"335 799 OFFCURVE",
"335 832 CURVE SMOOTH",
"335 865 OFFCURVE",
"362 892 OFFCURVE",
"395 892 CURVE SMOOTH",
"427 892 OFFCURVE",
"455 865 OFFCURVE",
"455 832 CURVE SMOOTH"
);
}
);
width = 572;
}
);
unicode = 00CB;
},
{
glyphname = Edotaccent;
lastChange = "2017-06-07 13:43:09 +0000";
layers = (
{
hints = (
{
place = "{95, 100}";
},
{
place = "{234, 142}";
},
{
horizontal = 1;
place = "{0, 83}";
},
{
horizontal = 1;
place = "{332, 84}";
},
{
horizontal = 1;
place = "{617, 83}";
},
{
horizontal = 1;
place = "{773, 142}";
}
);
layerId = UUID0;
paths = (
{
closed = 1;
nodes = (
"512 0 LINE",
"512 83 LINE",
"195 83 LINE",
"195 332 LINE",
"482 332 LINE",
"482 416 LINE",
"195 416 LINE",
"195 617 LINE",
"512 617 LINE",
"512 700 LINE",
"95 700 LINE",
"95 0 LINE"
);
},
{
closed = 1;
nodes = (
"234 805 OFFCURVE",
"266 773 OFFCURVE",
"305 773 CURVE SMOOTH",
"344 773 OFFCURVE",
"376 805 OFFCURVE",
"376 844 CURVE SMOOTH",
"376 883 OFFCURVE",
"344 915 OFFCURVE",
"305 915 CURVE SMOOTH",
"266 915 OFFCURVE",
"234 883 OFFCURVE",
"234 844 CURVE SMOOTH"
);
}
);
width = 572;
}
);
unicode = 0116;
},
{
glyphname = Egrave;
lastChange = "2017-06-07 13:43:09 +0000";
layers = (
{
hints = (
{
place = "{95, 100}";
},
{
horizontal = 1;
place = "{0, 83}";
},
{
horizontal = 1;
place = "{332, 84}";
},
{
horizontal = 1;
place = "{617, 83}";
},
{
horizontal = 1;
place = "{917, -20}";
target = down;
type = TopGhost;
}
);
layerId = UUID0;
paths = (
{
closed = 1;
nodes = (
"512 0 LINE",
"512 83 LINE",
"195 83 LINE",
"195 332 LINE",
"482 332 LINE",
"482 416 LINE",
"195 416 LINE",
"195 617 LINE",
"512 617 LINE",
"512 700 LINE",
"95 700 LINE",
"95 0 LINE"
);
},
{
closed = 1;
nodes = (
"184 917 LINE",
"407 810 LINE",
"384 760 LINE",
"199 811 LINE SMOOTH",
"173 818 OFFCURVE",
"157 832 OFFCURVE",
"157 852 CURVE SMOOTH",
"157 857 OFFCURVE",
"158 861 OFFCURVE",
"161 867 CURVE SMOOTH"
);
}
);
width = 572;
}
);
unicode = 00C8;
},
{
glyphname = Emacron;
lastChange = "2017-06-07 13:43:09 +0000";
layers = (
{
hints = (
{
place = "{95, 100}";
},
{
horizontal = 1;
place = "{0, 83}";
},
{
horizontal = 1;
place = "{332, 84}";
},
{
horizontal = 1;
place = "{617, 83}";
},
{
horizontal = 1;
place = "{786, 69}";
}
);
layerId = UUID0;
paths = (
{
closed = 1;
nodes = (
"512 0 LINE",
"512 83 LINE",
"195 83 LINE",
"195 332 LINE",
"482 332 LINE",
"482 416 LINE",
"195 416 LINE",
"195 617 LINE",
"512 617 LINE",
"512 700 LINE",
"95 700 LINE",
"95 0 LINE"
);
},
{
closed = 1;
nodes = (
"145 786 LINE",
"459 786 LINE",
"459 855 LINE",
"145 855 LINE"
);
}
);
width = 572;
}
);
unicode = 0112;
},
{
glyphname = Eogonek;
lastChange = "2017-06-07 13:43:09 +0000";
layers = (
{
hints = (
{
place = "{95, 100}";
},
{
place = "{336, 67}";
},
{
horizontal = 1;
place = "{-220, 55}";
},
{
horizontal = 1;
place = "{0, 83}";
},
{
horizontal = 1;
place = "{332, 84}";
},
{
horizontal = 1;
place = "{617, 83}";
}
);
layerId = UUID0;
paths = (
{
closed = 1;
nodes = (
"512 83 LINE",
"195 83 LINE",
"195 332 LINE",
"482 332 LINE",
"482 416 LINE",
"195 416 LINE",
"195 617 LINE",
"512 617 LINE",
"512 700 LINE",
"95 700 LINE",
"95 0 LINE",
"411 0 LINE",
"362 -37 OFFCURVE",
"336 -74 OFFCURVE",
"336 -118 CURVE SMOOTH",
"336 -173 OFFCURVE",
"369 -220 OFFCURVE",
"447 -220 CURVE SMOOTH",
"487 -220 OFFCURVE",
"511 -206 OFFCURVE",
"528 -196 CURVE",
"499 -151 LINE",
"487 -159 OFFCURVE",
"471 -165 OFFCURVE",
"451 -165 CURVE SMOOTH",
"426 -165 OFFCURVE",
"403 -149 OFFCURVE",
"403 -118 CURVE SMOOTH",
"403 -74 OFFCURVE",
"452 -31 OFFCURVE",
"512 0 CURVE"
);
}
);
width = 572;
}
);
unicode = 0118;
},
{
glyphname = F;
lastChange = "2017-06-07 13:43:09 +0000";
layers = (
{
hints = (
{
place = "{95, 100}";
},
{
horizontal = 1;
place = "{312, 84}";
},
{
horizontal = 1;
place = "{616, 84}";
},
{
horizontal = 1;
place = "{0, 21}";
target = up;
type = BottomGhost;
}
);
layerId = UUID0;
paths = (
{
closed = 1;
nodes = (
"195 0 LINE",
"195 312 LINE",
"487 312 LINE",
"487 396 LINE",
"195 396 LINE",
"195 616 LINE",
"517 616 LINE",
"517 700 LINE",
"95 700 LINE",
"95 0 LINE"
);
}
);
width = 557;
}
);
rightKerningGroup = F;
unicode = 0046;
},
{
glyphname = G;
lastChange = "2017-06-07 13:43:09 +0000";
layers = (
{
hints = (
{
place = "{60, 107}";
},
{
place = "{347, 235}";
},
{
place = "{485, 97}";
},
{
horizontal = 1;
place = "{-12, 78}";
},
{
horizontal = 1;
place = "{273, 78}";
},
{
horizontal = 1;
place = "{634, 78}";
},
{
horizontal = 1;
place = "{44, 21}";
target = up;
type = BottomGhost;
},
{
horizontal = 1;
place = "{-8, -20}";
target = down;
type = TopGhost;
}
);
layerId = UUID0;
paths = (
{
closed = 1;
nodes = (
"393 -12 OFFCURVE",
"458 5 OFFCURVE",
"490 44 CURVE",
"506 44 LINE",
"520 18 LINE SMOOTH",
"532 -3 OFFCURVE",
"547 -8 OFFCURVE",
"563 -8 CURVE SMOOTH",
"582 -8 LINE",
"582 351 LINE",
"347 351 LINE",
"347 273 LINE",
"485 273 LINE",
"485 120 LINE",
"460 90 OFFCURVE",
"420 66 OFFCURVE",
"358 66 CURVE SMOOTH",
"208 66 OFFCURVE",
"167 190 OFFCURVE",
"167 350 CURVE SMOOTH",
"167 510 OFFCURVE",
"212 634 OFFCURVE",
"371 634 CURVE SMOOTH",
"426 634 OFFCURVE",
"501 617 OFFCURVE",
"534 609 CURVE",
"554 679 LINE",
"521 691 OFFCURVE",
"451 712 OFFCURVE",
"371 712 CURVE SMOOTH",
"153 712 OFFCURVE",
"60 575 OFFCURVE",
"60 350 CURVE SMOOTH",
"60 130 OFFCURVE",
"147 -12 OFFCURVE",
"352 -12 CURVE SMOOTH"
);
}
);
width = 642;
}
);
leftKerningGroup = O;
unicode = 0047;
},
{
glyphname = Gbreve;
lastChange = "2017-06-07 13:43:09 +0000";
layers = (
{
hints = (
{
place = "{60, 107}";
},
{
place = "{347, 235}";
},
{
place = "{485, 97}";
},
{
horizontal = 1;
place = "{-12, 78}";
},
{
horizontal = 1;
place = "{273, 78}";
},
{
horizontal = 1;
place = "{634, 78}";
},
{
horizontal = 1;
place = "{754, 64}";
},
{
horizontal = 1;
place = "{44, 21}";
target = up;
type = BottomGhost;
},
{
horizontal = 1;
place = "{-8, -20}";
target = down;
type = TopGhost;
},
{
horizontal = 1;
place = "{910, -20}";
target = down;
type = TopGhost;
}
);
layerId = UUID0;
paths = (
{
closed = 1;
nodes = (
"393 -12 OFFCURVE",
"458 5 OFFCURVE",
"490 44 CURVE",
"506 44 LINE",
"520 18 LINE SMOOTH",
"532 -3 OFFCURVE",
"547 -8 OFFCURVE",
"563 -8 CURVE SMOOTH",
"582 -8 LINE",
"582 351 LINE",
"347 351 LINE",
"347 273 LINE",
"485 273 LINE",
"485 120 LINE",
"460 90 OFFCURVE",
"420 66 OFFCURVE",
"358 66 CURVE SMOOTH",
"208 66 OFFCURVE",
"167 190 OFFCURVE",
"167 350 CURVE SMOOTH",
"167 510 OFFCURVE",
"212 634 OFFCURVE",
"371 634 CURVE SMOOTH",
"426 634 OFFCURVE",
"501 617 OFFCURVE",
"534 609 CURVE",
"554 679 LINE",
"521 691 OFFCURVE",
"451 712 OFFCURVE",
"371 712 CURVE SMOOTH",
"153 712 OFFCURVE",
"60 575 OFFCURVE",
"60 350 CURVE SMOOTH",
"60 130 OFFCURVE",
"147 -12 OFFCURVE",
"352 -12 CURVE SMOOTH"
);
},
{
closed = 1;
nodes = (
"474 910 LINE",
"464 833 OFFCURVE",
"429 818 OFFCURVE",
"349 818 CURVE SMOOTH",
"269 818 OFFCURVE",
"234 833 OFFCURVE",
"224 910 CURVE",
"167 901 LINE",
"167 802 OFFCURVE",
"229 754 OFFCURVE",
"349 754 CURVE SMOOTH",
"469 754 OFFCURVE",
"531 802 OFFCURVE",
"531 901 CURVE"
);
}
);
width = 642;
}
);
leftKerningGroup = O;
unicode = 011E;
},
{
glyphname = Gcircumflex;
lastChange = "2017-06-07 13:43:09 +0000";
layers = (
{
hints = (
{
place = "{60, 107}";
},
{
place = "{347, 235}";
},
{
place = "{485, 97}";
},
{
horizontal = 1;
place = "{-12, 78}";
},
{
horizontal = 1;
place = "{273, 78}";
},
{
horizontal = 1;
place = "{634, 78}";
},
{
horizontal = 1;
place = "{712, 186}";
},
{
horizontal = 1;
place = "{66, 207}";
},
{
horizontal = 1;
place = "{-8, -20}";
target = down;
type = TopGhost;
},
{
horizontal = 1;
place = "{44, 21}";
target = up;
type = BottomGhost;
}
);
layerId = UUID0;
paths = (
{
closed = 1;
nodes = (
"393 -12 OFFCURVE",
"458 5 OFFCURVE",
"490 44 CURVE",
"506 44 LINE",
"520 18 LINE SMOOTH",
"532 -3 OFFCURVE",
"547 -8 OFFCURVE",
"563 -8 CURVE SMOOTH",
"582 -8 LINE",
"582 351 LINE",
"347 351 LINE",
"347 273 LINE",
"485 273 LINE",
"485 120 LINE",
"460 90 OFFCURVE",
"420 66 OFFCURVE",
"358 66 CURVE SMOOTH",
"208 66 OFFCURVE",
"167 190 OFFCURVE",
"167 350 CURVE SMOOTH",
"167 510 OFFCURVE",
"212 634 OFFCURVE",
"371 634 CURVE SMOOTH",
"426 634 OFFCURVE",
"501 617 OFFCURVE",
"534 609 CURVE",
"554 679 LINE",
"521 691 OFFCURVE",
"451 712 OFFCURVE",
"371 712 CURVE SMOOTH",
"153 712 OFFCURVE",
"60 575 OFFCURVE",
"60 350 CURVE SMOOTH",
"60 130 OFFCURVE",
"147 -12 OFFCURVE",
"352 -12 CURVE SMOOTH"
);
},
{
closed = 1;
nodes = (
"302 898 LINE",
"395 898 LINE",
"520 770 LINE",
"484 738 LINE",
"348 836 LINE",
"213 738 LINE",
"177 770 LINE"
);
}
);
width = 642;
}
);
leftKerningGroup = O;
unicode = 011C;
},
{
glyphname = Gcommaaccent;
lastChange = "2017-06-07 13:43:09 +0000";
layers = (
{
hints = (
{
place = "{60, 107}";
},
{
place = "{485, 97}";
},
{
horizontal = 1;
place = "{-59, 47}";
},
{
horizontal = 1;
place = "{66, 207}";
},
{
horizontal = 1;
place = "{634, 78}";
},
{
horizontal = 1;
place = "{273, 78}";
},
{
horizontal = 1;
place = "{-12, 78}";
},
{
horizontal = 1;
place = "{44, 21}";
target = up;
type = BottomGhost;
},
{
horizontal = 1;
place = "{-8, -20}";
target = down;
type = TopGhost;
},
{
horizontal = 1;
place = "{-335, 21}";
target = up;
type = BottomGhost;
}
);
layerId = UUID0;
paths = (
{
closed = 1;
nodes = (
"393 -12 OFFCURVE",
"458 5 OFFCURVE",
"490 44 CURVE",
"506 44 LINE",
"520 18 LINE SMOOTH",
"532 -3 OFFCURVE",
"547 -8 OFFCURVE",
"563 -8 CURVE SMOOTH",
"582 -8 LINE",
"582 351 LINE",
"347 351 LINE",
"347 273 LINE",
"485 273 LINE",
"485 120 LINE",
"460 90 OFFCURVE",
"420 66 OFFCURVE",
"358 66 CURVE SMOOTH",
"208 66 OFFCURVE",
"167 190 OFFCURVE",
"167 350 CURVE SMOOTH",
"167 510 OFFCURVE",
"212 634 OFFCURVE",
"371 634 CURVE SMOOTH",
"426 634 OFFCURVE",
"501 617 OFFCURVE",
"534 609 CURVE",
"554 679 LINE",
"521 691 OFFCURVE",
"451 712 OFFCURVE",
"371 712 CURVE SMOOTH",
"153 712 OFFCURVE",
"60 575 OFFCURVE",
"60 350 CURVE SMOOTH",
"60 130 OFFCURVE",
"147 -12 OFFCURVE",
"352 -12 CURVE SMOOTH"
);
},
{
closed = 1;
nodes = (
"325 -58 LINE",
"321 -144 LINE SMOOTH",
"318 -192 OFFCURVE",
"287 -248 OFFCURVE",
"262 -305 CURVE",
"327 -335 LINE",
"327 -335 OFFCURVE",
"396 -243 OFFCURVE",
"406 -205 CURVE SMOOTH",
"427 -118 LINE SMOOTH",
"429 -111 OFFCURVE",
"429 -107 OFFCURVE",
"429 -102 CURVE SMOOTH",
"429 -81 OFFCURVE",
"416 -62 OFFCURVE",
"386 -61 CURVE SMOOTH"
);
}
);
width = 642;
}
);
leftKerningGroup = O;
unicode = 0122;
},
{
glyphname = Gdot;
lastChange = "2017-06-07 13:43:09 +0000";
layers = (
{
hints = (
{
place = "{60, 107}";
},
{
place = "{275, 142}";
},
{
place = "{347, 235}";
},
{
place = "{485, 97}";
},
{
horizontal = 1;
place = "{-12, 78}";
},
{
horizontal = 1;
place = "{273, 78}";
},
{
horizontal = 1;
place = "{634, 78}";
},
{
horizontal = 1;
place = "{773, 142}";
},
{
horizontal = 1;
place = "{44, 21}";
target = up;
type = BottomGhost;
},
{
horizontal = 1;
place = "{-8, -20}";
target = down;
type = TopGhost;
}
);
layerId = UUID0;
paths = (
{
closed = 1;
nodes = (
"393 -12 OFFCURVE",
"458 5 OFFCURVE",
"490 44 CURVE",
"506 44 LINE",
"520 18 LINE SMOOTH",
"532 -3 OFFCURVE",
"547 -8 OFFCURVE",
"563 -8 CURVE SMOOTH",
"582 -8 LINE",
"582 351 LINE",
"347 351 LINE",
"347 273 LINE",
"485 273 LINE",
"485 120 LINE",
"460 90 OFFCURVE",
"420 66 OFFCURVE",
"358 66 CURVE SMOOTH",
"208 66 OFFCURVE",
"167 190 OFFCURVE",
"167 350 CURVE SMOOTH",
"167 510 OFFCURVE",
"212 634 OFFCURVE",
"371 634 CURVE SMOOTH",
"426 634 OFFCURVE",
"501 617 OFFCURVE",
"534 609 CURVE",
"554 679 LINE",
"521 691 OFFCURVE",
"451 712 OFFCURVE",
"371 712 CURVE SMOOTH",
"153 712 OFFCURVE",
"60 575 OFFCURVE",
"60 350 CURVE SMOOTH",
"60 130 OFFCURVE",
"147 -12 OFFCURVE",
"352 -12 CURVE SMOOTH"
);
},
{
closed = 1;
nodes = (
"275 805 OFFCURVE",
"307 773 OFFCURVE",
"346 773 CURVE SMOOTH",
"385 773 OFFCURVE",
"417 805 OFFCURVE",
"417 844 CURVE SMOOTH",
"417 883 OFFCURVE",
"385 915 OFFCURVE",
"346 915 CURVE SMOOTH",
"307 915 OFFCURVE",
"275 883 OFFCURVE",
"275 844 CURVE SMOOTH"
);
}
);
width = 642;
}
);
leftKerningGroup = O;
unicode = 0120;
},
{
glyphname = H;
lastChange = "2017-06-07 13:43:09 +0000";
layers = (
{
hints = (
{
place = "{95, 100}";
},
{
place = "{534, 100}";
},
{
horizontal = 1;
place = "{312, 84}";
},
{
horizontal = 1;
place = "{0, 21}";
target = up;
type = BottomGhost;
},
{
horizontal = 1;
place = "{700, -20}";
target = down;
type = TopGhost;
}
);
layerId = UUID0;
paths = (
{
closed = 1;
nodes = (
"195 0 LINE",
"195 312 LINE",
"534 312 LINE",
"534 0 LINE",
"634 0 LINE",
"634 700 LINE",
"534 700 LINE",
"534 396 LINE",
"195 396 LINE",
"195 700 LINE",
"95 700 LINE",
"95 0 LINE"
);
}
);
width = 730;
}
);
unicode = 0048;
},
{
glyphname = Hbar;
lastChange = "2017-06-07 13:43:09 +0000";
layers = (
{
hints = (
{
place = "{95, 100}";
},
{
place = "{534, 100}";
},
{
horizontal = 1;
place = "{312, 84}";
},
{
horizontal = 1;
place = "{520, 63}";
},
{
horizontal = 1;
place = "{0, 21}";
target = up;
type = BottomGhost;
},
{
horizontal = 1;
place = "{700, -20}";
target = down;
type = TopGhost;
}
);
layerId = UUID0;
paths = (
{
closed = 1;
nodes = (
"22 520 LINE",
"95 520 LINE",
"95 0 LINE",
"195 0 LINE",
"195 312 LINE",
"534 312 LINE",
"534 0 LINE",
"634 0 LINE",
"634 520 LINE",
"706 520 LINE",
"706 583 LINE",
"634 583 LINE",
"634 700 LINE",
"534 700 LINE",
"534 583 LINE",
"195 583 LINE",
"195 700 LINE",
"95 700 LINE",
"95 583 LINE",
"22 583 LINE"
);
},
{
closed = 1;
nodes = (
"195 396 LINE",
"195 520 LINE",
"534 520 LINE",
"534 396 LINE"
);
}
);
width = 730;
}
);
unicode = 0126;
},
{
glyphname = Hcircumflex;
lastChange = "2017-06-07 13:43:09 +0000";
layers = (
{
hints = (
{
place = "{95, 100}";
},
{
place = "{534, 100}";
},
{
horizontal = 1;
place = "{312, 84}";
},
{
horizontal = 1;
place = "{898, -20}";
target = down;
type = TopGhost;
},
{
horizontal = 1;
place = "{0, 21}";
target = up;
type = BottomGhost;
},
{
horizontal = 1;
place = "{700, -20}";
target = down;
type = TopGhost;
}
);
layerId = UUID0;
paths = (
{
closed = 1;
nodes = (
"195 0 LINE",
"195 312 LINE",
"534 312 LINE",
"534 0 LINE",
"634 0 LINE",
"634 700 LINE",
"534 700 LINE",
"534 396 LINE",
"195 396 LINE",
"195 700 LINE",
"95 700 LINE",
"95 0 LINE"
);
},
{
closed = 1;
nodes = (
"312 898 LINE",
"405 898 LINE",
"530 770 LINE",
"494 738 LINE",
"358 836 LINE",
"223 738 LINE",
"187 770 LINE"
);
}
);
width = 730;
}
);
unicode = 0124;
},
{
glyphname = I;
lastChange = "2017-06-07 13:43:09 +0000";
layers = (
{
hints = (
{
place = "{89, 100}";
},
{
horizontal = 1;
place = "{0, 21}";
target = up;
type = BottomGhost;
},
{
horizontal = 1;
place = "{700, -20}";
target = down;
type = TopGhost;
}
);
layerId = UUID0;
paths = (
{
closed = 1;
nodes = (
"189 0 LINE",
"189 700 LINE",
"89 700 LINE",
"89 0 LINE"
);
}
);
width = 278;
}
);
unicode = 0049;
},
{
glyphname = IJ;
lastChange = "2017-06-07 13:43:09 +0000";
layers = (
{
hints = (
{
place = "{89, 100}";
},
{
place = "{245, 210}";
},
{
place = "{355, 100}";
},
{
horizontal = 1;
place = "{-138, 73}";
},
{
horizontal = 1;
place = "{700, -20}";
target = down;
type = TopGhost;
},
{
horizontal = 1;
place = "{0, -20}";
target = down;
type = TopGhost;
},
{
horizontal = 1;
place = "{699, -20}";
target = down;
type = TopGhost;
}
);
layerId = UUID0;
paths = (
{
closed = 1;
nodes = (
"189 0 LINE",
"189 700 LINE",
"89 700 LINE",
"89 0 LINE"
);
},
{
closed = 1;
nodes = (
"245 -138 LINE",
"265 -138 LINE SMOOTH",
"384 -138 OFFCURVE",
"455 -85 OFFCURVE",
"455 76 CURVE SMOOTH",
"455 699 LINE",
"355 699 LINE",
"355 63 LINE",
"355 -35 OFFCURVE",
"321 -65 OFFCURVE",
"245 -65 CURVE"
);
}
);
width = 543;
}
);
unicode = 0132;
},
{
glyphname = Iacute;
lastChange = "2017-06-07 13:43:09 +0000";
layers = (
{
hints = (
{
place = "{89, 100}";
},
{
horizontal = 1;
place = "{0, 21}";
target = up;
type = BottomGhost;
},
{
horizontal = 1;
place = "{700, -20}";
target = down;
type = TopGhost;
},
{
horizontal = 1;
place = "{917, -20}";
target = down;
type = TopGhost;
}
);
layerId = UUID0;
paths = (
{
closed = 1;
nodes = (
"189 0 LINE",
"189 700 LINE",
"89 700 LINE",
"89 0 LINE"
);
},
{
closed = 1;
nodes = (
"286 917 LINE",
"63 810 LINE",
"86 760 LINE",
"271 811 LINE SMOOTH",
"297 818 OFFCURVE",
"313 832 OFFCURVE",
"313 852 CURVE SMOOTH",
"313 857 OFFCURVE",
"312 861 OFFCURVE",
"309 867 CURVE SMOOTH"
);
}
);
width = 278;
}
);
unicode = 00CD;
},
{
glyphname = Ibreve;
lastChange = "2017-06-07 13:43:09 +0000";
layers = (
{
hints = (
{
place = "{89, 100}";
},
{
place = "{89, 232}";
},
{
horizontal = 1;
place = "{754, 64}";
},
{
horizontal = 1;
place = "{0, 21}";
target = up;
type = BottomGhost;
},
{
horizontal = 1;
place = "{700, -20}";
target = down;
type = TopGhost;
},
{
horizontal = 1;
place = "{910, -20}";
target = down;
type = TopGhost;
}
);
layerId = UUID0;
paths = (
{
closed = 1;
nodes = (
"189 0 LINE",
"189 700 LINE",
"89 700 LINE",
"89 0 LINE"
);
},
{
closed = 1;
nodes = (
"264 910 LINE",
"254 833 OFFCURVE",
"219 818 OFFCURVE",
"139 818 CURVE SMOOTH",
"59 818 OFFCURVE",
"24 833 OFFCURVE",
"14 910 CURVE",
"-43 901 LINE",
"-43 802 OFFCURVE",
"19 754 OFFCURVE",
"139 754 CURVE SMOOTH",
"259 754 OFFCURVE",
"321 802 OFFCURVE",
"321 901 CURVE"
);
}
);
width = 278;
}
);
unicode = 012C;
},
{
glyphname = Icircumflex;
lastChange = "2017-06-07 13:43:09 +0000";
layers = (
{
hints = (
{
place = "{89, 100}";
},
{
horizontal = 1;
place = "{700, 198}";
},
{
horizontal = 1;
place = "{0, 21}";
target = up;
type = BottomGhost;
}
);
layerId = UUID0;
paths = (
{
closed = 1;
nodes = (
"189 0 LINE",
"189 700 LINE",
"89 700 LINE",
"89 0 LINE"
);
},
{
closed = 1;
nodes = (
"93 898 LINE",
"186 898 LINE",
"311 770 LINE",
"275 738 LINE",
"139 836 LINE",
"4 738 LINE",
"-32 770 LINE"
);
}
);
width = 278;
}
);
unicode = 00CE;
},
{
glyphname = Idieresis;
lastChange = "2017-06-07 13:43:09 +0000";
layers = (
{
hints = (
{
place = "{-6, 120}";
},
{
place = "{89, 100}";
},
{
place = "{177, 120}";
},
{
horizontal = 1;
place = "{772, 120}";
},
{
horizontal = 1;
place = "{0, 21}";
target = up;
type = BottomGhost;
},
{
horizontal = 1;
place = "{700, -20}";
target = down;
type = TopGhost;
}
);
layerId = UUID0;
paths = (
{
closed = 1;
nodes = (
"189 0 LINE",
"189 700 LINE",
"89 700 LINE",
"89 0 LINE"
);
},
{
closed = 1;
nodes = (
"-6 799 OFFCURVE",
"22 772 OFFCURVE",
"54 772 CURVE SMOOTH",
"87 772 OFFCURVE",
"114 799 OFFCURVE",
"114 832 CURVE SMOOTH",
"114 865 OFFCURVE",
"87 892 OFFCURVE",
"54 892 CURVE SMOOTH",
"22 892 OFFCURVE",
"-6 865 OFFCURVE",
"-6 832 CURVE SMOOTH"
);
},
{
closed = 1;
nodes = (
"297 799 OFFCURVE",
"269 772 OFFCURVE",
"237 772 CURVE SMOOTH",
"204 772 OFFCURVE",
"177 799 OFFCURVE",
"177 832 CURVE SMOOTH",
"177 865 OFFCURVE",
"204 892 OFFCURVE",
"237 892 CURVE SMOOTH",
"269 892 OFFCURVE",
"297 865 OFFCURVE",
"297 832 CURVE SMOOTH"
);
}
);
width = 278;
}
);
unicode = 00CF;
},
{
glyphname = Idot;
lastChange = "2017-06-07 13:43:09 +0000";
layers = (
{
hints = (
{
place = "{69, 142}";
},
{
place = "{89, 100}";
},
{
horizontal = 1;
place = "{773, 142}";
},
{
horizontal = 1;
place = "{0, 21}";
target = up;
type = BottomGhost;
},
{
horizontal = 1;
place = "{700, -20}";
target = down;
type = TopGhost;
}
);
layerId = UUID0;
paths = (
{
closed = 1;
nodes = (
"189 0 LINE",
"189 700 LINE",
"89 700 LINE",
"89 0 LINE"
);
},
{
closed = 1;
nodes = (
"69 805 OFFCURVE",
"101 773 OFFCURVE",
"140 773 CURVE SMOOTH",
"179 773 OFFCURVE",
"211 805 OFFCURVE",
"211 844 CURVE SMOOTH",
"211 883 OFFCURVE",
"179 915 OFFCURVE",
"140 915 CURVE SMOOTH",
"101 915 OFFCURVE",
"69 883 OFFCURVE",
"69 844 CURVE SMOOTH"
);
}
);
width = 278;
}
);
unicode = 0130;
},
{
glyphname = Igrave;
lastChange = "2017-06-07 13:43:09 +0000";
layers = (
{
hints = (
{
place = "{89, 100}";
},
{
horizontal = 1;
place = "{917, -20}";
target = down;
type = TopGhost;
},
{
horizontal = 1;
place = "{0, 21}";
target = up;
type = BottomGhost;
},
{
horizontal = 1;
place = "{700, -20}";
target = down;
type = TopGhost;
}
);
layerId = UUID0;
paths = (
{
closed = 1;
nodes = (
"189 0 LINE",
"189 700 LINE",
"89 700 LINE",
"89 0 LINE"
);
},
{
closed = 1;
nodes = (
"-4 917 LINE",
"219 810 LINE",
"196 760 LINE",
"11 811 LINE SMOOTH",
"-15 818 OFFCURVE",
"-31 832 OFFCURVE",
"-31 852 CURVE SMOOTH",
"-31 857 OFFCURVE",
"-30 861 OFFCURVE",
"-27 867 CURVE SMOOTH"
);
}
);
width = 278;
}
);
unicode = 00CC;
},
{
glyphname = Imacron;
lastChange = "2017-06-07 13:43:09 +0000";
layers = (
{
hints = (
{
place = "{89, 100}";
},
{
horizontal = 1;
place = "{786, 69}";
},
{
horizontal = 1;
place = "{0, 21}";
target = up;
type = BottomGhost;
},
{
horizontal = 1;
place = "{700, -20}";
target = down;
type = TopGhost;
}
);
layerId = UUID0;
paths = (
{
closed = 1;
nodes = (
"189 0 LINE",
"189 700 LINE",
"89 700 LINE",
"89 0 LINE"
);
},
{
closed = 1;
nodes = (
"-18 786 LINE",
"296 786 LINE",
"296 855 LINE",
"-18 855 LINE"
);
}
);
width = 278;
}
);
},
{
glyphname = Iogonek;
lastChange = "2017-06-07 13:43:09 +0000";
layers = (
{
hints = (
{
place = "{13, 67}";
},
{
place = "{89, 100}";
},
{
horizontal = 1;
place = "{-220, 55}";
},
{
horizontal = 1;
place = "{700, -20}";
target = down;
type = TopGhost;
}
);
layerId = UUID0;
paths = (
{
closed = 1;
nodes = (
"189 700 LINE",
"89 700 LINE",
"89 0 LINE",
"40 -37 OFFCURVE",
"13 -74 OFFCURVE",
"13 -118 CURVE SMOOTH",
"13 -173 OFFCURVE",
"46 -220 OFFCURVE",
"124 -220 CURVE SMOOTH",
"164 -220 OFFCURVE",
"188 -206 OFFCURVE",
"205 -196 CURVE",
"176 -151 LINE",
"164 -159 OFFCURVE",
"148 -165 OFFCURVE",
"128 -165 CURVE SMOOTH",
"103 -165 OFFCURVE",
"80 -149 OFFCURVE",
"80 -118 CURVE SMOOTH",
"80 -74 OFFCURVE",
"129 -31 OFFCURVE",
"189 0 CURVE"
);
}
);
width = 278;
}
);
unicode = 012E;
},
{
glyphname = Itilde;
lastChange = "2017-06-07 13:43:09 +0000";
layers = (
{
hints = (
{
place = "{89, 100}";
},
{
horizontal = 1;
place = "{773, 75}";
},
{
horizontal = 1;
place = "{814, 34}";
},
{
horizontal = 1;
place = "{814, 75}";
},
{
horizontal = 1;
place = "{0, 21}";
target = up;
type = BottomGhost;
},
{
horizontal = 1;
place = "{700, -20}";
target = down;
type = TopGhost;
}
);
layerId = UUID0;
paths = (
{
closed = 1;
nodes = (
"189 0 LINE",
"189 700 LINE",
"89 700 LINE",
"89 0 LINE"
);
},
{
closed = 1;
nodes = (
"248 773 OFFCURVE",
"287 793 OFFCURVE",
"315 850 CURVE",
"259 885 LINE",
"249 862 OFFCURVE",
"226 848 OFFCURVE",
"199 848 CURVE SMOOTH",
"161 848 OFFCURVE",
"125 889 OFFCURVE",
"66 889 CURVE SMOOTH",
"17 889 OFFCURVE",
"-20 866 OFFCURVE",
"-48 811 CURVE",
"7 775 LINE",
"25 800 OFFCURVE",
"35 814 OFFCURVE",
"71 814 CURVE SMOOTH",
"105 814 OFFCURVE",
"141 773 OFFCURVE",
"200 773 CURVE SMOOTH"
);
}
);
width = 278;
}
);
unicode = 0128;
},
{
glyphname = J;
lastChange = "2017-06-07 13:43:09 +0000";
layers = (
{
hints = (
{
place = "{-10, 210}";
},
{
place = "{100, 100}";
},
{
horizontal = 1;
place = "{-138, 73}";
},
{
horizontal = 1;
place = "{699, -20}";
target = down;
type = TopGhost;
}
);
layerId = UUID0;
paths = (
{
closed = 1;
nodes = (
"-10 -138 LINE",
"10 -138 LINE SMOOTH",
"129 -138 OFFCURVE",
"200 -85 OFFCURVE",
"200 76 CURVE SMOOTH",
"200 699 LINE",
"100 699 LINE",
"100 63 LINE",
"100 -35 OFFCURVE",
"66 -65 OFFCURVE",
"-10 -65 CURVE"
);
}
);
width = 288;
}
);
unicode = 004A;
},
{
glyphname = Jcircumflex;
lastChange = "2017-06-07 13:43:09 +0000";
layers = (
{
hints = (
{
place = "{-10, 210}";
},
{
place = "{100, 100}";
},
{
horizontal = 1;
place = "{-138, 73}";
},
{
horizontal = 1;
place = "{699, 240}";
}
);
layerId = UUID0;
paths = (
{
closed = 1;
nodes = (
"-10 -138 LINE",
"10 -138 LINE SMOOTH",
"129 -138 OFFCURVE",
"200 -85 OFFCURVE",
"200 76 CURVE SMOOTH",
"200 699 LINE",
"100 699 LINE",
"100 63 LINE",
"100 -35 OFFCURVE",
"66 -65 OFFCURVE",
"-10 -65 CURVE"
);
},
{
closed = 1;
nodes = (
"98 939 LINE",
"191 939 LINE",
"316 791 LINE",
"280 759 LINE",
"144 872 LINE",
"9 759 LINE",
"-27 791 LINE"
);
}
);
width = 288;
}
);
unicode = 0134;
},
{
glyphname = K;
lastChange = "2017-06-07 13:43:09 +0000";
layers = (
{
hints = (
{
place = "{95, 100}";
},
{
horizontal = 1;
place = "{700, -20}";
target = down;
type = TopGhost;
},
{
horizontal = 1;
place = "{0, -20}";
target = down;
type = TopGhost;
},
{
horizontal = 1;
place = "{-15, 21}";
target = up;
type = BottomGhost;
}
);
layerId = UUID0;
paths = (
{
closed = 1;
nodes = (
"320 373 LINE",
"579 -1 LINE",
"472 -15 LINE",
"218 366 LINE",
"451 700 LINE",
"563 700 LINE"
);
},
{
closed = 1;
nodes = (
"195 0 LINE",
"195 700 LINE",
"95 700 LINE",
"95 0 LINE"
);
}
);
width = 590;
}
);
rightKerningGroup = K;
unicode = 004B;
},
{
glyphname = Kcommaaccent;
lastChange = "2017-06-07 13:43:09 +0000";
layers = (
{
hints = (
{
place = "{95, 100}";
},
{
horizontal = 1;
place = "{-335, 21}";
target = up;
type = BottomGhost;
},
{
horizontal = 1;
place = "{700, -20}";
target = down;
type = TopGhost;
},
{
horizontal = 1;
place = "{0, -20}";
target = down;
type = TopGhost;
}
);
layerId = UUID0;
paths = (
{
closed = 1;
nodes = (
"320 373 LINE",
"579 -1 LINE",
"472 -15 LINE",
"218 366 LINE",
"451 700 LINE",
"563 700 LINE"
);
},
{
closed = 1;
nodes = (
"195 0 LINE",
"195 700 LINE",
"95 700 LINE",
"95 0 LINE"
);
},
{
closed = 1;
nodes = (
"267 -58 LINE",
"263 -144 LINE SMOOTH",
"260 -192 OFFCURVE",
"229 -248 OFFCURVE",
"204 -305 CURVE",
"269 -335 LINE",
"269 -335 OFFCURVE",
"338 -243 OFFCURVE",
"348 -205 CURVE SMOOTH",
"369 -118 LINE SMOOTH",
"371 -111 OFFCURVE",
"371 -107 OFFCURVE",
"371 -102 CURVE SMOOTH",
"371 -81 OFFCURVE",
"358 -62 OFFCURVE",
"328 -61 CURVE SMOOTH"
);
}
);
width = 590;
}
);
rightKerningGroup = K;
unicode = 0136;
},
{
glyphname = L;
lastChange = "2017-06-07 13:43:09 +0000";
layers = (
{
hints = (
{
place = "{87, 100}";
},
{
horizontal = 1;
place = "{0, 86}";
},
{
horizontal = 1;
place = "{700, -20}";
target = down;
type = TopGhost;
}
);
layerId = UUID0;
paths = (
{
closed = 1;
nodes = (
"87 0 LINE",
"487 0 LINE",
"487 86 LINE",
"187 86 LINE",
"187 700 LINE",
"87 700 LINE"
);
}
);
width = 507;
}
);
rightKerningGroup = L;
unicode = 004C;
},
{
glyphname = Lacute;
lastChange = "2017-06-07 13:43:09 +0000";
layers = (
{
hints = (
{
place = "{87, 100}";
},
{
horizontal = 1;
place = "{0, 86}";
},
{
horizontal = 1;
place = "{700, -20}";
target = down;
type = TopGhost;
},
{
horizontal = 1;
place = "{917, -20}";
target = down;
type = TopGhost;
}
);
layerId = UUID0;
paths = (
{
closed = 1;
nodes = (
"87 0 LINE",
"487 0 LINE",
"487 86 LINE",
"187 86 LINE",
"187 700 LINE",
"87 700 LINE"
);
},
{
closed = 1;
nodes = (
"407 917 LINE",
"184 810 LINE",
"207 760 LINE",
"392 811 LINE SMOOTH",
"418 818 OFFCURVE",
"434 832 OFFCURVE",
"434 852 CURVE SMOOTH",
"434 857 OFFCURVE",
"433 861 OFFCURVE",
"430 867 CURVE SMOOTH"
);
}
);
width = 507;
}
);
rightKerningGroup = L;
unicode = 0139;
},
{
glyphname = Lcaron;
lastChange = "2017-06-07 13:43:09 +0000";
layers = (
{
hints = (
{
place = "{87, 100}";
},
{
horizontal = 1;
place = "{0, 86}";
},
{
horizontal = 1;
place = "{700, -20}";
target = down;
type = TopGhost;
},
{
horizontal = 1;
place = "{787, -20}";
target = down;
type = TopGhost;
}
);
layerId = UUID0;
paths = (
{
closed = 1;
nodes = (
"87 0 LINE",
"487 0 LINE",
"487 86 LINE",
"187 86 LINE",
"187 700 LINE",
"87 700 LINE"
);
},
{
closed = 1;
nodes = (
"363 787 LINE",
"359 715 LINE SMOOTH",
"357 675 OFFCURVE",
"333 633 OFFCURVE",
"312 585 CURVE",
"376 554 LINE",
"376 554 OFFCURVE",
"442 631 OFFCURVE",
"448 662 CURVE SMOOTH",
"462 736 LINE SMOOTH",
"463 740 OFFCURVE",
"463 743 OFFCURVE",
"463 747 CURVE SMOOTH",
"463 766 OFFCURVE",
"454 781 OFFCURVE",
"426 783 CURVE SMOOTH"
);
}
);
width = 507;
}
);
rightKerningGroup = L;
unicode = 013D;
},
{
glyphname = Lcommaaccent;
lastChange = "2017-06-07 13:43:09 +0000";
layers = (
{
hints = (
{
place = "{87, 100}";
},
{
horizontal = 1;
place = "{-59, 59}";
},
{
horizontal = 1;
place = "{0, 86}";
},
{
horizontal = 1;
place = "{700, -20}";
target = down;
type = TopGhost;
},
{
horizontal = 1;
place = "{-335, 21}";
target = up;
type = BottomGhost;
}
);
layerId = UUID0;
paths = (
{
closed = 1;
nodes = (
"87 0 LINE",
"487 0 LINE",
"487 86 LINE",
"187 86 LINE",
"187 700 LINE",
"87 700 LINE"
);
},
{
closed = 1;
nodes = (
"247 -58 LINE",
"243 -144 LINE SMOOTH",
"240 -192 OFFCURVE",
"209 -248 OFFCURVE",
"184 -305 CURVE",
"249 -335 LINE",
"249 -335 OFFCURVE",
"318 -243 OFFCURVE",
"328 -205 CURVE SMOOTH",
"349 -118 LINE SMOOTH",
"351 -111 OFFCURVE",
"351 -107 OFFCURVE",
"351 -102 CURVE SMOOTH",
"351 -81 OFFCURVE",
"338 -62 OFFCURVE",
"308 -61 CURVE SMOOTH"
);
}
);
width = 507;
}
);
rightKerningGroup = L;
unicode = 013B;
},
{
glyphname = Ldot;
lastChange = "2017-06-07 13:43:09 +0000";
layers = (
{
hints = (
{
place = "{87, 100}";
},
{
place = "{309, 142}";
},
{
horizontal = 1;
place = "{0, 86}";
},
{
horizontal = 1;
place = "{298, 142}";
},
{
horizontal = 1;
place = "{700, -20}";
target = down;
type = TopGhost;
}
);
layerId = UUID0;
paths = (
{
closed = 1;
nodes = (
"87 0 LINE",
"487 0 LINE",
"487 86 LINE",
"187 86 LINE",
"187 700 LINE",
"87 700 LINE"
);
},
{
closed = 1;
nodes = (
"309 330 OFFCURVE",
"341 298 OFFCURVE",
"380 298 CURVE SMOOTH",
"419 298 OFFCURVE",
"451 330 OFFCURVE",
"451 369 CURVE SMOOTH",
"451 408 OFFCURVE",
"419 440 OFFCURVE",
"380 440 CURVE SMOOTH",
"341 440 OFFCURVE",
"309 408 OFFCURVE",
"309 369 CURVE SMOOTH"
);
}
);
width = 507;
}
);
rightKerningGroup = L;
unicode = 013F;
},
{
glyphname = Lslash;
lastChange = "2017-06-07 13:43:09 +0000";
layers = (
{
hints = (
{
place = "{12, 175}";
},
{
place = "{87, 100}";
},
{
place = "{87, 249}";
},
{
horizontal = 1;
place = "{0, 86}";
},
{
horizontal = 1;
place = "{700, -20}";
target = down;
type = TopGhost;
}
);
layerId = UUID0;
paths = (
{
closed = 1;
nodes = (
"12 266 LINE",
"87 289 LINE",
"87 0 LINE",
"487 0 LINE",
"487 86 LINE",
"187 86 LINE",
"187 320 LINE",
"336 366 LINE",
"336 435 LINE",
"187 389 LINE",
"187 700 LINE",
"87 700 LINE",
"87 358 LINE",
"12 335 LINE"
);
}
);
width = 507;
}
);
rightKerningGroup = L;
unicode = 0141;
},
{
glyphname = M;
lastChange = "2017-06-07 13:43:09 +0000";
layers = (
{
hints = (
{
place = "{91, 100}";
},
{
place = "{719, 100}";
},
{
horizontal = 1;
place = "{700, -20}";
target = down;
type = TopGhost;
},
{
horizontal = 1;
place = "{85, 21}";
target = up;
type = BottomGhost;
},
{
horizontal = 1;
place = "{0, 21}";
target = up;
type = BottomGhost;
}
);
layerId = UUID0;
paths = (
{
closed = 1;
nodes = (
"662 700 LINE",
"493 251 LINE SMOOTH",
"467 181 OFFCURVE",
"464 85 OFFCURVE",
"464 85 CURVE",
"446 85 LINE",
"446 85 OFFCURVE",
"443 181 OFFCURVE",
"417 251 CURVE SMOOTH",
"248 700 LINE",
"91 700 LINE",
"91 0 LINE",
"191 0 LINE",
"191 489 LINE SMOOTH",
"191 521 OFFCURVE",
"182 608 OFFCURVE",
"182 608 CURVE",
"198 611 LINE",
"198 611 OFFCURVE",
"218 526 OFFCURVE",
"235 480 CURVE SMOOTH",
"416 0 LINE",
"493 0 LINE",
"675 480 LINE SMOOTH",
"692 525 OFFCURVE",
"712 611 OFFCURVE",
"712 611 CURVE",
"728 608 LINE",
"728 608 OFFCURVE",
"719 521 OFFCURVE",
"719 489 CURVE SMOOTH",
"719 0 LINE",
"819 0 LINE",
"819 700 LINE"
);
}
);
width = 910;
}
);
unicode = 004D;
},
{
glyphname = N;
lastChange = "2017-06-07 13:43:09 +0000";
layers = (
{
hints = (
{
place = "{90, 100}";
},
{
place = "{534, 100}";
},
{
horizontal = 1;
place = "{0, 21}";
target = up;
type = BottomGhost;
},
{
horizontal = 1;
place = "{700, -20}";
target = down;
type = TopGhost;
}
);
layerId = UUID0;
paths = (
{
closed = 1;
nodes = (
"190 449 LINE",
"190 481 OFFCURVE",
"176 568 OFFCURVE",
"176 568 CURVE",
"192 571 LINE",
"192 571 OFFCURVE",
"211 491 OFFCURVE",
"240 449 CURVE SMOOTH",
"544 0 LINE",
"634 0 LINE",
"634 700 LINE",
"534 700 LINE",
"534 248 LINE SMOOTH",
"534 216 OFFCURVE",
"548 130 OFFCURVE",
"548 130 CURVE",
"532 127 LINE",
"532 127 OFFCURVE",
"511 209 OFFCURVE",
"482 252 CURVE SMOOTH",
"180 700 LINE",
"90 700 LINE",
"90 0 LINE",
"190 0 LINE"
);
}
);
width = 724;
}
);
unicode = 004E;
},
{
glyphname = Nacute;
lastChange = "2017-06-07 13:43:09 +0000";
layers = (
{
hints = (
{
place = "{90, 100}";
},
{
place = "{534, 100}";
},
{
horizontal = 1;
place = "{0, 21}";
target = up;
type = BottomGhost;
},
{
horizontal = 1;
place = "{700, -20}";
target = down;
type = TopGhost;
},
{
horizontal = 1;
place = "{917, -20}";
target = down;
type = TopGhost;
}
);
layerId = UUID0;
paths = (
{
closed = 1;
nodes = (
"190 449 LINE",
"190 481 OFFCURVE",
"176 568 OFFCURVE",
"176 568 CURVE",
"192 571 LINE",
"192 571 OFFCURVE",
"211 491 OFFCURVE",
"240 449 CURVE SMOOTH",
"544 0 LINE",
"634 0 LINE",
"634 700 LINE",
"534 700 LINE",
"534 248 LINE SMOOTH",
"534 216 OFFCURVE",
"548 130 OFFCURVE",
"548 130 CURVE",
"532 127 LINE",
"532 127 OFFCURVE",
"511 209 OFFCURVE",
"482 252 CURVE SMOOTH",
"180 700 LINE",
"90 700 LINE",
"90 0 LINE",
"190 0 LINE"
);
},
{
closed = 1;
nodes = (
"453 917 LINE",
"230 810 LINE",
"253 760 LINE",
"438 811 LINE SMOOTH",
"464 818 OFFCURVE",
"480 832 OFFCURVE",
"480 852 CURVE SMOOTH",
"480 857 OFFCURVE",
"479 861 OFFCURVE",
"476 867 CURVE SMOOTH"
);
}
);
width = 724;
}
);
unicode = 0143;
},
{
glyphname = Ncaron;
lastChange = "2017-06-07 13:43:09 +0000";
layers = (
{
hints = (
{
place = "{90, 100}";
},
{
place = "{534, 100}";
},
{
horizontal = 1;
place = "{0, 21}";
target = up;
type = BottomGhost;
},
{
horizontal = 1;
place = "{700, -20}";
target = down;
type = TopGhost;
},
{
horizontal = 1;
place = "{923, -20}";
target = down;
type = TopGhost;
}
);
layerId = UUID0;
paths = (
{
closed = 1;
nodes = (
"190 449 LINE",
"190 481 OFFCURVE",
"176 568 OFFCURVE",
"176 568 CURVE",
"192 571 LINE",
"192 571 OFFCURVE",
"211 491 OFFCURVE",
"240 449 CURVE SMOOTH",
"544 0 LINE",
"634 0 LINE",
"634 700 LINE",
"534 700 LINE",
"534 248 LINE SMOOTH",
"534 216 OFFCURVE",
"548 130 OFFCURVE",
"548 130 CURVE",
"532 127 LINE",
"532 127 OFFCURVE",
"511 209 OFFCURVE",
"482 252 CURVE SMOOTH",
"180 700 LINE",
"90 700 LINE",
"90 0 LINE",
"190 0 LINE"
);
},
{
closed = 1;
nodes = (
"312 763 LINE",
"405 763 LINE",
"530 891 LINE",
"494 923 LINE",
"358 825 LINE",
"223 923 LINE",
"187 891 LINE"
);
}
);
width = 724;
}
);
unicode = 0147;
},
{
glyphname = Ncommaaccent;
lastChange = "2017-06-07 13:43:09 +0000";
layers = (
{
hints = (
{
place = "{90, 100}";
},
{
place = "{534, 100}";
},
{
horizontal = 1;
place = "{0, -20}";
target = down;
type = TopGhost;
},
{
horizontal = 1;
place = "{700, -20}";
target = down;
type = TopGhost;
},
{
horizontal = 1;
place = "{-335, 21}";
target = up;
type = BottomGhost;
}
);
layerId = UUID0;
paths = (
{
closed = 1;
nodes = (
"190 449 LINE",
"190 481 OFFCURVE",
"176 568 OFFCURVE",
"176 568 CURVE",
"192 571 LINE",
"192 571 OFFCURVE",
"211 491 OFFCURVE",
"240 449 CURVE SMOOTH",
"544 0 LINE",
"634 0 LINE",
"634 700 LINE",
"534 700 LINE",
"534 248 LINE SMOOTH",
"534 216 OFFCURVE",
"548 130 OFFCURVE",
"548 130 CURVE",
"532 127 LINE",
"532 127 OFFCURVE",
"511 209 OFFCURVE",
"482 252 CURVE SMOOTH",
"180 700 LINE",
"90 700 LINE",
"90 0 LINE",
"190 0 LINE"
);
},
{
closed = 1;
nodes = (
"317 -58 LINE",
"313 -144 LINE SMOOTH",
"310 -192 OFFCURVE",
"279 -248 OFFCURVE",
"254 -305 CURVE",
"319 -335 LINE",
"319 -335 OFFCURVE",
"388 -243 OFFCURVE",
"398 -205 CURVE SMOOTH",
"419 -118 LINE SMOOTH",
"421 -111 OFFCURVE",
"421 -107 OFFCURVE",
"421 -102 CURVE SMOOTH",
"421 -81 OFFCURVE",
"408 -62 OFFCURVE",
"378 -61 CURVE SMOOTH"
);
}
);
width = 724;
}
);
unicode = 0145;
},
{
glyphname = Eng;
lastChange = "2017-06-07 13:43:09 +0000";
layers = (
{
hints = (
{
place = "{90, 100}";
},
{
place = "{534, 100}";
},
{
horizontal = 1;
place = "{-220, 68}";
},
{
horizontal = 1;
place = "{700, -20}";
target = down;
type = TopGhost;
},
{
horizontal = 1;
place = "{0, -20}";
target = down;
type = TopGhost;
}
);
layerId = UUID0;
paths = (
{
closed = 1;
nodes = (
"190 449 LINE",
"190 481 OFFCURVE",
"176 568 OFFCURVE",
"176 568 CURVE",
"192 571 LINE",
"192 571 OFFCURVE",
"211 491 OFFCURVE",
"240 449 CURVE SMOOTH",
"534 15 LINE",
"534 -76 LINE SMOOTH",
"534 -113 OFFCURVE",
"530 -152 OFFCURVE",
"479 -152 CURVE SMOOTH",
"458 -152 OFFCURVE",
"441 -147 OFFCURVE",
"430 -143 CURVE",
"411 -204 LINE",
"437 -215 OFFCURVE",
"465 -220 OFFCURVE",
"490 -220 CURVE SMOOTH",
"592 -220 OFFCURVE",
"634 -159 OFFCURVE",
"634 -77 CURVE SMOOTH",
"634 700 LINE",
"534 700 LINE",
"534 248 LINE SMOOTH",
"534 216 OFFCURVE",
"548 130 OFFCURVE",
"548 130 CURVE",
"532 127 LINE",
"532 127 OFFCURVE",
"511 209 OFFCURVE",
"482 252 CURVE SMOOTH",
"180 700 LINE",
"90 700 LINE",
"90 0 LINE",
"190 0 LINE"
);
}
);
width = 724;
}
);
unicode = 014A;
},
{
glyphname = Ntilde;
lastChange = "2017-06-07 13:43:09 +0000";
layers = (
{
hints = (
{
place = "{90, 100}";
},
{
place = "{534, 100}";
},
{
horizontal = 1;
place = "{774, 75}";
},
{
horizontal = 1;
place = "{815, 34}";
},
{
horizontal = 1;
place = "{815, 75}";
},
{
horizontal = 1;
place = "{0, 21}";
target = up;
type = BottomGhost;
},
{
horizontal = 1;
place = "{700, -20}";
target = down;
type = TopGhost;
}
);
layerId = UUID0;
paths = (
{
closed = 1;
nodes = (
"190 449 LINE",
"190 481 OFFCURVE",
"176 568 OFFCURVE",
"176 568 CURVE",
"192 571 LINE",
"192 571 OFFCURVE",
"211 491 OFFCURVE",
"240 449 CURVE SMOOTH",
"544 0 LINE",
"634 0 LINE",
"634 700 LINE",
"534 700 LINE",
"534 248 LINE SMOOTH",
"534 216 OFFCURVE",
"548 130 OFFCURVE",
"548 130 CURVE",
"532 127 LINE",
"532 127 OFFCURVE",
"511 209 OFFCURVE",
"482 252 CURVE SMOOTH",
"180 700 LINE",
"90 700 LINE",
"90 0 LINE",
"190 0 LINE"
);
},
{
closed = 1;
nodes = (
"477 774 OFFCURVE",
"516 794 OFFCURVE",
"544 851 CURVE",
"488 886 LINE",
"478 863 OFFCURVE",
"455 849 OFFCURVE",
"428 849 CURVE SMOOTH",
"390 849 OFFCURVE",
"354 890 OFFCURVE",
"295 890 CURVE SMOOTH",
"246 890 OFFCURVE",
"209 867 OFFCURVE",
"181 812 CURVE",
"236 776 LINE",
"254 801 OFFCURVE",
"264 815 OFFCURVE",
"300 815 CURVE SMOOTH",
"334 815 OFFCURVE",
"370 774 OFFCURVE",
"429 774 CURVE SMOOTH"
);
}
);
width = 724;
}
);
unicode = 00D1;
},
{
glyphname = O;
lastChange = "2017-06-07 13:43:09 +0000";
layers = (
{
hints = (
{
place = "{60, 107}";
},
{
place = "{570, 105}";
},
{
horizontal = 1;
place = "{-12, 78}";
},
{
horizontal = 1;
place = "{634, 78}";
}
);
layerId = UUID0;
paths = (
{
closed = 1;
nodes = (
"675 575 OFFCURVE",
"582 712 OFFCURVE",
"367 712 CURVE SMOOTH",
"152 712 OFFCURVE",
"60 575 OFFCURVE",
"60 350 CURVE SMOOTH",
"60 130 OFFCURVE",
"147 -12 OFFCURVE",
"367 -12 CURVE SMOOTH",
"587 -12 OFFCURVE",
"675 130 OFFCURVE",
"675 350 CURVE SMOOTH"
);
},
{
closed = 1;
nodes = (
"211 66 OFFCURVE",
"167 190 OFFCURVE",
"167 350 CURVE SMOOTH",
"167 510 OFFCURVE",
"211 634 OFFCURVE",
"368 634 CURVE SMOOTH",
"525 634 OFFCURVE",
"570 510 OFFCURVE",
"570 350 CURVE SMOOTH",
"570 190 OFFCURVE",
"525 66 OFFCURVE",
"368 66 CURVE SMOOTH"
);
}
);
width = 735;
}
);
leftKerningGroup = O;
rightKerningGroup = O;
unicode = 004F;
},
{
glyphname = Oacute;
lastChange = "2017-06-07 13:43:09 +0000";
layers = (
{
hints = (
{
place = "{60, 107}";
},
{
place = "{570, 105}";
},
{
horizontal = 1;
place = "{-12, 78}";
},
{
horizontal = 1;
place = "{634, 78}";
},
{
horizontal = 1;
place = "{917, -20}";
target = down;
type = TopGhost;
}
);
layerId = UUID0;
paths = (
{
closed = 1;
nodes = (
"675 575 OFFCURVE",
"582 712 OFFCURVE",
"367 712 CURVE SMOOTH",
"152 712 OFFCURVE",
"60 575 OFFCURVE",
"60 350 CURVE SMOOTH",
"60 130 OFFCURVE",
"147 -12 OFFCURVE",
"367 -12 CURVE SMOOTH",
"587 -12 OFFCURVE",
"675 130 OFFCURVE",
"675 350 CURVE SMOOTH"
);
},
{
closed = 1;
nodes = (
"211 66 OFFCURVE",
"167 190 OFFCURVE",
"167 350 CURVE SMOOTH",
"167 510 OFFCURVE",
"211 634 OFFCURVE",
"368 634 CURVE SMOOTH",
"525 634 OFFCURVE",
"570 510 OFFCURVE",
"570 350 CURVE SMOOTH",
"570 190 OFFCURVE",
"525 66 OFFCURVE",
"368 66 CURVE SMOOTH"
);
},
{
closed = 1;
nodes = (
"485 917 LINE",
"262 810 LINE",
"285 760 LINE",
"470 811 LINE SMOOTH",
"496 818 OFFCURVE",
"512 832 OFFCURVE",
"512 852 CURVE SMOOTH",
"512 857 OFFCURVE",
"511 861 OFFCURVE",
"508 867 CURVE SMOOTH"
);
}
);
width = 735;
}
);
leftKerningGroup = O;
rightKerningGroup = O;
unicode = 00D3;
},
{
glyphname = Obreve;
lastChange = "2017-06-07 13:43:09 +0000";
layers = (
{
hints = (
{
place = "{60, 107}";
},
{
place = "{570, 105}";
},
{
horizontal = 1;
place = "{-12, 78}";
},
{
horizontal = 1;
place = "{634, 78}";
},
{
horizontal = 1;
place = "{754, 64}";
},
{
horizontal = 1;
place = "{910, -20}";
target = down;
type = TopGhost;
}
);
layerId = UUID0;
paths = (
{
closed = 1;
nodes = (
"675 575 OFFCURVE",
"582 712 OFFCURVE",
"367 712 CURVE SMOOTH",
"152 712 OFFCURVE",
"60 575 OFFCURVE",
"60 350 CURVE SMOOTH",
"60 130 OFFCURVE",
"147 -12 OFFCURVE",
"367 -12 CURVE SMOOTH",
"587 -12 OFFCURVE",
"675 130 OFFCURVE",
"675 350 CURVE SMOOTH"
);
},
{
closed = 1;
nodes = (
"211 66 OFFCURVE",
"167 190 OFFCURVE",
"167 350 CURVE SMOOTH",
"167 510 OFFCURVE",
"211 634 OFFCURVE",
"368 634 CURVE SMOOTH",
"525 634 OFFCURVE",
"570 510 OFFCURVE",
"570 350 CURVE SMOOTH",
"570 190 OFFCURVE",
"525 66 OFFCURVE",
"368 66 CURVE SMOOTH"
);
},
{
closed = 1;
nodes = (
"494 910 LINE",
"484 833 OFFCURVE",
"449 818 OFFCURVE",
"369 818 CURVE SMOOTH",
"289 818 OFFCURVE",
"254 833 OFFCURVE",
"244 910 CURVE",
"187 901 LINE",
"187 802 OFFCURVE",
"249 754 OFFCURVE",
"369 754 CURVE SMOOTH",
"489 754 OFFCURVE",
"551 802 OFFCURVE",
"551 901 CURVE"
);
}
);
width = 735;
}
);
leftKerningGroup = O;
rightKerningGroup = O;
unicode = 014E;
},
{
glyphname = Ocircumflex;
lastChange = "2017-06-07 13:43:09 +0000";
layers = (
{
hints = (
{
place = "{60, 107}";
},
{
place = "{570, 105}";
},
{
horizontal = 1;
place = "{-12, 78}";
},
{
horizontal = 1;
place = "{634, 78}";
},
{
horizontal = 1;
place = "{712, 186}";
}
);
layerId = UUID0;
paths = (
{
closed = 1;
nodes = (
"675 575 OFFCURVE",
"582 712 OFFCURVE",
"367 712 CURVE SMOOTH",
"152 712 OFFCURVE",
"60 575 OFFCURVE",
"60 350 CURVE SMOOTH",
"60 130 OFFCURVE",
"147 -12 OFFCURVE",
"367 -12 CURVE SMOOTH",
"587 -12 OFFCURVE",
"675 130 OFFCURVE",
"675 350 CURVE SMOOTH"
);
},
{
closed = 1;
nodes = (
"211 66 OFFCURVE",
"167 190 OFFCURVE",
"167 350 CURVE SMOOTH",
"167 510 OFFCURVE",
"211 634 OFFCURVE",
"368 634 CURVE SMOOTH",
"525 634 OFFCURVE",
"570 510 OFFCURVE",
"570 350 CURVE SMOOTH",
"570 190 OFFCURVE",
"525 66 OFFCURVE",
"368 66 CURVE SMOOTH"
);
},
{
closed = 1;
nodes = (
"325 898 LINE",
"418 898 LINE",
"543 770 LINE",
"507 738 LINE",
"371 836 LINE",
"236 738 LINE",
"200 770 LINE"
);
}
);
width = 735;
}
);
leftKerningGroup = O;
rightKerningGroup = O;
unicode = 00D4;
},
{
glyphname = Odieresis;
lastChange = "2017-06-07 13:43:09 +0000";
layers = (
{
hints = (
{
place = "{60, 107}";
},
{
place = "{223, 120}";
},
{
place = "{570, 105}";
},
{
place = "{223, 183}";
},
{
horizontal = 1;
place = "{-12, 78}";
},
{
horizontal = 1;
place = "{634, 78}";
},
{
horizontal = 1;
place = "{772, 120}";
},
{
horizontal = 1;
place = "{634, 138}";
}
);
layerId = UUID0;
paths = (
{
closed = 1;
nodes = (
"675 575 OFFCURVE",
"582 712 OFFCURVE",
"367 712 CURVE SMOOTH",
"152 712 OFFCURVE",
"60 575 OFFCURVE",
"60 350 CURVE SMOOTH",
"60 130 OFFCURVE",
"147 -12 OFFCURVE",
"367 -12 CURVE SMOOTH",
"587 -12 OFFCURVE",
"675 130 OFFCURVE",
"675 350 CURVE SMOOTH"
);
},
{
closed = 1;
nodes = (
"211 66 OFFCURVE",
"167 190 OFFCURVE",
"167 350 CURVE SMOOTH",
"167 510 OFFCURVE",
"211 634 OFFCURVE",
"368 634 CURVE SMOOTH",
"525 634 OFFCURVE",
"570 510 OFFCURVE",
"570 350 CURVE SMOOTH",
"570 190 OFFCURVE",
"525 66 OFFCURVE",
"368 66 CURVE SMOOTH"
);
},
{
closed = 1;
nodes = (
"223 799 OFFCURVE",
"251 772 OFFCURVE",
"283 772 CURVE SMOOTH",
"316 772 OFFCURVE",
"343 799 OFFCURVE",
"343 832 CURVE SMOOTH",
"343 865 OFFCURVE",
"316 892 OFFCURVE",
"283 892 CURVE SMOOTH",
"251 892 OFFCURVE",
"223 865 OFFCURVE",
"223 832 CURVE SMOOTH"
);
},
{
closed = 1;
nodes = (
"526 799 OFFCURVE",
"498 772 OFFCURVE",
"466 772 CURVE SMOOTH",
"433 772 OFFCURVE",
"406 799 OFFCURVE",
"406 832 CURVE SMOOTH",
"406 865 OFFCURVE",
"433 892 OFFCURVE",
"466 892 CURVE SMOOTH",
"498 892 OFFCURVE",
"526 865 OFFCURVE",
"526 832 CURVE SMOOTH"
);
}
);
width = 735;
}
);
leftKerningGroup = O;
rightKerningGroup = O;
unicode = 00D6;
},
{
glyphname = Ograve;
lastChange = "2017-06-07 13:43:09 +0000";
layers = (
{
hints = (
{
place = "{60, 107}";
},
{
place = "{570, 105}";
},
{
horizontal = 1;
place = "{-12, 78}";
},
{
horizontal = 1;
place = "{634, 78}";
},
{
horizontal = 1;
place = "{917, -20}";
target = down;
type = TopGhost;
}
);
layerId = UUID0;
paths = (
{
closed = 1;
nodes = (
"675 575 OFFCURVE",
"582 712 OFFCURVE",
"367 712 CURVE SMOOTH",
"152 712 OFFCURVE",
"60 575 OFFCURVE",
"60 350 CURVE SMOOTH",
"60 130 OFFCURVE",
"147 -12 OFFCURVE",
"367 -12 CURVE SMOOTH",
"587 -12 OFFCURVE",
"675 130 OFFCURVE",
"675 350 CURVE SMOOTH"
);
},
{
closed = 1;
nodes = (
"211 66 OFFCURVE",
"167 190 OFFCURVE",
"167 350 CURVE SMOOTH",
"167 510 OFFCURVE",
"211 634 OFFCURVE",
"368 634 CURVE SMOOTH",
"525 634 OFFCURVE",
"570 510 OFFCURVE",
"570 350 CURVE SMOOTH",
"570 190 OFFCURVE",
"525 66 OFFCURVE",
"368 66 CURVE SMOOTH"
);
},
{
closed = 1;
nodes = (
"255 917 LINE",
"478 810 LINE",
"455 760 LINE",
"270 811 LINE SMOOTH",
"244 818 OFFCURVE",
"228 832 OFFCURVE",
"228 852 CURVE SMOOTH",
"228 857 OFFCURVE",
"229 861 OFFCURVE",
"232 867 CURVE SMOOTH"
);
}
);
width = 735;
}
);
leftKerningGroup = O;
rightKerningGroup = O;
unicode = 00D2;
},
{
glyphname = Ohorn;
lastChange = "2017-06-07 13:43:09 +0000";
layers = (
{
hints = (
{
place = "{60, 107}";
},
{
place = "{570, 105}";
},
{
place = "{682, 90}";
},
{
horizontal = 1;
place = "{-12, 78}";
},
{
horizontal = 1;
place = "{634, 78}";
},
{
horizontal = 1;
place = "{634, 118}";
}
);
layerId = UUID0;
paths = (
{
closed = 1;
nodes = (
"682 752 LINE",
"682 676 OFFCURVE",
"660 624 OFFCURVE",
"611 603 CURVE",
"561 673 OFFCURVE",
"481 712 OFFCURVE",
"367 712 CURVE SMOOTH",
"152 712 OFFCURVE",
"60 575 OFFCURVE",
"60 350 CURVE SMOOTH",
"60 130 OFFCURVE",
"147 -12 OFFCURVE",
"367 -12 CURVE SMOOTH",
"587 -12 OFFCURVE",
"675 130 OFFCURVE",
"675 350 CURVE SMOOTH",
"675 424 OFFCURVE",
"665 489 OFFCURVE",
"643 542 CURVE",
"676 557 OFFCURVE",
"701 575 OFFCURVE",
"720 595 CURVE SMOOTH",
"755 632 OFFCURVE",
"772 670 OFFCURVE",
"772 729 CURVE SMOOTH",
"772 744 OFFCURVE",
"762 752 OFFCURVE",
"747 752 CURVE SMOOTH"
);
},
{
closed = 1;
nodes = (
"211 66 OFFCURVE",
"167 190 OFFCURVE",
"167 350 CURVE SMOOTH",
"167 510 OFFCURVE",
"211 634 OFFCURVE",
"368 634 CURVE SMOOTH",
"525 634 OFFCURVE",
"570 510 OFFCURVE",
"570 350 CURVE SMOOTH",
"570 190 OFFCURVE",
"525 66 OFFCURVE",
"368 66 CURVE SMOOTH"
);
}
);
width = 735;
}
);
leftKerningGroup = O;
rightKerningGroup = O;
unicode = 01A0;
},
{
glyphname = Ohungarumlaut;
lastChange = "2017-06-07 13:43:09 +0000";
layers = (
{
hints = (
{
place = "{60, 107}";
},
{
place = "{570, 105}";
},
{
horizontal = 1;
place = "{-12, 78}";
},
{
horizontal = 1;
place = "{634, 78}";
},
{
horizontal = 1;
place = "{974, -20}";
target = down;
type = TopGhost;
}
);
layerId = UUID0;
paths = (
{
closed = 1;
nodes = (
"675 575 OFFCURVE",
"582 712 OFFCURVE",
"367 712 CURVE SMOOTH",
"152 712 OFFCURVE",
"60 575 OFFCURVE",
"60 350 CURVE SMOOTH",
"60 130 OFFCURVE",
"147 -12 OFFCURVE",
"367 -12 CURVE SMOOTH",
"587 -12 OFFCURVE",
"675 130 OFFCURVE",
"675 350 CURVE SMOOTH"
);
},
{
closed = 1;
nodes = (
"211 66 OFFCURVE",
"167 190 OFFCURVE",
"167 350 CURVE SMOOTH",
"167 510 OFFCURVE",
"211 634 OFFCURVE",
"368 634 CURVE SMOOTH",
"525 634 OFFCURVE",
"570 510 OFFCURVE",
"570 350 CURVE SMOOTH",
"570 190 OFFCURVE",
"525 66 OFFCURVE",
"368 66 CURVE SMOOTH"
);
},
{
closed = 1;
nodes = (
"361 974 LINE",
"207 781 LINE",
"249 746 LINE",
"395 871 LINE SMOOTH",
"409 883 OFFCURVE",
"417 899 OFFCURVE",
"417 913 CURVE SMOOTH",
"417 925 OFFCURVE",
"411 934 OFFCURVE",
"404 940 CURVE SMOOTH"
);
},
{
closed = 1;
nodes = (
"539 974 LINE",
"385 781 LINE",
"427 746 LINE",
"573 871 LINE SMOOTH",
"587 883 OFFCURVE",
"595 899 OFFCURVE",
"595 913 CURVE SMOOTH",
"595 925 OFFCURVE",
"589 934 OFFCURVE",
"582 940 CURVE SMOOTH"
);
}
);
width = 735;
}
);
leftKerningGroup = O;
rightKerningGroup = O;
unicode = 0150;
},
{
glyphname = Omacron;
lastChange = "2017-06-07 13:43:09 +0000";
layers = (
{
hints = (
{
place = "{60, 107}";
},
{
place = "{570, 105}";
},
{
horizontal = 1;
place = "{-12, 78}";
},
{
horizontal = 1;
place = "{634, 78}";
},
{
horizontal = 1;
place = "{786, 69}";
}
);
layerId = UUID0;
paths = (
{
closed = 1;
nodes = (
"675 575 OFFCURVE",
"582 712 OFFCURVE",
"367 712 CURVE SMOOTH",
"152 712 OFFCURVE",
"60 575 OFFCURVE",
"60 350 CURVE SMOOTH",
"60 130 OFFCURVE",
"147 -12 OFFCURVE",
"367 -12 CURVE SMOOTH",
"587 -12 OFFCURVE",
"675 130 OFFCURVE",
"675 350 CURVE SMOOTH"
);
},
{
closed = 1;
nodes = (
"211 66 OFFCURVE",
"167 190 OFFCURVE",
"167 350 CURVE SMOOTH",
"167 510 OFFCURVE",
"211 634 OFFCURVE",
"368 634 CURVE SMOOTH",
"525 634 OFFCURVE",
"570 510 OFFCURVE",
"570 350 CURVE SMOOTH",
"570 190 OFFCURVE",
"525 66 OFFCURVE",
"368 66 CURVE SMOOTH"
);
},
{
closed = 1;
nodes = (
"210 786 LINE",
"524 786 LINE",
"524 855 LINE",
"210 855 LINE"
);
}
);
width = 735;
}
);
leftKerningGroup = O;
rightKerningGroup = O;
unicode = 014C;
},
{
glyphname = Oslash;
lastChange = "2017-06-07 13:43:09 +0000";
layers = (
{
hints = (
{
place = "{60, 107}";
},
{
place = "{570, 105}";
},
{
horizontal = 1;
place = "{-12, 78}";
},
{
horizontal = 1;
place = "{634, 78}";
},
{
horizontal = 1;
place = "{-33, 21}";
target = up;
type = BottomGhost;
},
{
horizontal = 1;
place = "{735, -20}";
target = down;
type = TopGhost;
}
);
layerId = UUID0;
paths = (
{
closed = 1;
nodes = (
"152 -33 LINE",
"196 29 LINE",
"241 2 OFFCURVE",
"297 -12 OFFCURVE",
"367 -12 CURVE SMOOTH",
"587 -12 OFFCURVE",
"675 130 OFFCURVE",
"675 350 CURVE SMOOTH",
"675 456 OFFCURVE",
"654 542 OFFCURVE",
"610 604 CURVE",
"666 682 LINE",
"594 735 LINE",
"544 667 LINE",
"498 696 OFFCURVE",
"440 712 OFFCURVE",
"367 712 CURVE SMOOTH",
"152 712 OFFCURVE",
"60 575 OFFCURVE",
"60 350 CURVE SMOOTH",
"60 242 OFFCURVE",
"81 153 OFFCURVE",
"128 90 CURVE",
"76 19 LINE"
);
},
{
closed = 1;
nodes = (
"170 270 OFFCURVE",
"167 309 OFFCURVE",
"167 350 CURVE SMOOTH",
"167 510 OFFCURVE",
"211 634 OFFCURVE",
"368 634 CURVE SMOOTH",
"421 634 OFFCURVE",
"462 620 OFFCURVE",
"492 594 CURVE",
"261 274 LINE SMOOTH",
"236 239 OFFCURVE",
"219 217 OFFCURVE",
"204 172 CURVE",
"186 175 LINE",
"182 196 OFFCURVE",
"178 215 OFFCURVE",
"175 235 CURVE SMOOTH"
);
},
{
closed = 1;
nodes = (
"317 66 OFFCURVE",
"278 78 OFFCURVE",
"248 101 CURVE",
"485 430 LINE SMOOTH",
"510 465 OFFCURVE",
"526 496 OFFCURVE",
"534 522 CURVE",
"552 519 LINE",
"558 498 OFFCURVE",
"561 481 OFFCURVE",
"563 462 CURVE SMOOTH",
"567 428 OFFCURVE",
"570 390 OFFCURVE",
"570 350 CURVE SMOOTH",
"570 190 OFFCURVE",
"525 66 OFFCURVE",
"368 66 CURVE SMOOTH"
);
}
);
width = 735;
}
);
leftKerningGroup = O;
rightKerningGroup = O;
unicode = 00D8;
},
{
glyphname = Oslashacute;
lastChange = "2017-06-07 13:43:09 +0000";
layers = (
{
hints = (
{
place = "{60, 107}";
},
{
place = "{570, 105}";
},
{
horizontal = 1;
place = "{-12, 78}";
},
{
horizontal = 1;
place = "{634, 78}";
},
{
horizontal = 1;
place = "{-33, 21}";
target = up;
type = BottomGhost;
},
{
horizontal = 1;
place = "{917, -20}";
target = down;
type = TopGhost;
}
);
layerId = UUID0;
paths = (
{
closed = 1;
nodes = (
"152 -33 LINE",
"196 29 LINE",
"241 2 OFFCURVE",
"297 -12 OFFCURVE",
"367 -12 CURVE SMOOTH",
"587 -12 OFFCURVE",
"675 130 OFFCURVE",
"675 350 CURVE SMOOTH",
"675 456 OFFCURVE",
"654 542 OFFCURVE",
"610 604 CURVE",
"666 682 LINE",
"594 735 LINE",
"544 667 LINE",
"498 696 OFFCURVE",
"440 712 OFFCURVE",
"367 712 CURVE SMOOTH",
"152 712 OFFCURVE",
"60 575 OFFCURVE",
"60 350 CURVE SMOOTH",
"60 242 OFFCURVE",
"81 153 OFFCURVE",
"128 90 CURVE",
"76 19 LINE"
);
},
{
closed = 1;
nodes = (
"170 270 OFFCURVE",
"167 309 OFFCURVE",
"167 350 CURVE SMOOTH",
"167 510 OFFCURVE",
"211 634 OFFCURVE",
"368 634 CURVE SMOOTH",
"421 634 OFFCURVE",
"462 620 OFFCURVE",
"492 594 CURVE",
"261 274 LINE SMOOTH",
"236 239 OFFCURVE",
"219 217 OFFCURVE",
"204 172 CURVE",
"186 175 LINE",
"182 196 OFFCURVE",
"178 215 OFFCURVE",
"175 235 CURVE SMOOTH"
);
},
{
closed = 1;
nodes = (
"317 66 OFFCURVE",
"278 78 OFFCURVE",
"248 101 CURVE",
"485 430 LINE SMOOTH",
"510 465 OFFCURVE",
"526 496 OFFCURVE",
"534 522 CURVE",
"552 519 LINE",
"558 498 OFFCURVE",
"561 481 OFFCURVE",
"563 462 CURVE SMOOTH",
"567 428 OFFCURVE",
"570 390 OFFCURVE",
"570 350 CURVE SMOOTH",
"570 190 OFFCURVE",
"525 66 OFFCURVE",
"368 66 CURVE SMOOTH"
);
},
{
closed = 1;
nodes = (
"495 917 LINE",
"272 810 LINE",
"295 760 LINE",
"480 811 LINE SMOOTH",
"506 818 OFFCURVE",
"522 832 OFFCURVE",
"522 852 CURVE SMOOTH",
"522 857 OFFCURVE",
"521 861 OFFCURVE",
"518 867 CURVE SMOOTH"
);
}
);
width = 735;
}
);
leftKerningGroup = O;
rightKerningGroup = O;
unicode = 01FE;
},
{
glyphname = Otilde;
lastChange = "2017-06-07 13:43:09 +0000";
layers = (
{
hints = (
{
place = "{60, 107}";
},
{
place = "{570, 105}";
},
{
horizontal = 1;
place = "{-12, 78}";
},
{
horizontal = 1;
place = "{634, 78}";
},
{
horizontal = 1;
place = "{773, 75}";
},
{
horizontal = 1;
place = "{814, 34}";
},
{
horizontal = 1;
place = "{814, 75}";
}
);
layerId = UUID0;
paths = (
{
closed = 1;
nodes = (
"675 575 OFFCURVE",
"582 712 OFFCURVE",
"367 712 CURVE SMOOTH",
"152 712 OFFCURVE",
"60 575 OFFCURVE",
"60 350 CURVE SMOOTH",
"60 130 OFFCURVE",
"147 -12 OFFCURVE",
"367 -12 CURVE SMOOTH",
"587 -12 OFFCURVE",
"675 130 OFFCURVE",
"675 350 CURVE SMOOTH"
);
},
{
closed = 1;
nodes = (
"211 66 OFFCURVE",
"167 190 OFFCURVE",
"167 350 CURVE SMOOTH",
"167 510 OFFCURVE",
"211 634 OFFCURVE",
"368 634 CURVE SMOOTH",
"525 634 OFFCURVE",
"570 510 OFFCURVE",
"570 350 CURVE SMOOTH",
"570 190 OFFCURVE",
"525 66 OFFCURVE",
"368 66 CURVE SMOOTH"
);
},
{
closed = 1;
nodes = (
"486 773 OFFCURVE",
"525 793 OFFCURVE",
"553 850 CURVE",
"497 885 LINE",
"487 862 OFFCURVE",
"464 848 OFFCURVE",
"437 848 CURVE SMOOTH",
"399 848 OFFCURVE",
"363 889 OFFCURVE",
"304 889 CURVE SMOOTH",
"255 889 OFFCURVE",
"218 866 OFFCURVE",
"190 811 CURVE",
"245 775 LINE",
"263 800 OFFCURVE",
"273 814 OFFCURVE",
"309 814 CURVE SMOOTH",
"343 814 OFFCURVE",
"379 773 OFFCURVE",
"438 773 CURVE SMOOTH"
);
}
);
width = 735;
}
);
leftKerningGroup = O;
unicode = 00D5;
},
{
glyphname = OE;
lastChange = "2017-06-07 13:43:09 +0000";
layers = (
{
hints = (
{
place = "{60, 107}";
},
{
place = "{468, 100}";
},
{
horizontal = 1;
place = "{-12, 78}";
},
{
horizontal = 1;
place = "{0, 83}";
},
{
horizontal = 1;
place = "{332, 84}";
},
{
horizontal = 1;
place = "{617, 83}";
},
{
horizontal = 1;
place = "{634, 78}";
}
);
layerId = UUID0;
paths = (
{
closed = 1;
nodes = (
"885 0 LINE",
"885 83 LINE",
"568 83 LINE",
"568 332 LINE",
"855 332 LINE",
"855 416 LINE",
"568 416 LINE",
"568 617 LINE",
"885 617 LINE",
"885 700 LINE",
"469 700 LINE",
"438 708 OFFCURVE",
"405 712 OFFCURVE",
"367 712 CURVE SMOOTH",
"152 712 OFFCURVE",
"60 575 OFFCURVE",
"60 350 CURVE SMOOTH",
"60 130 OFFCURVE",
"147 -12 OFFCURVE",
"367 -12 CURVE SMOOTH",
"404 -12 OFFCURVE",
"438 -8 OFFCURVE",
"468 0 CURVE"
);
},
{
closed = 1;
nodes = (
"211 66 OFFCURVE",
"167 190 OFFCURVE",
"167 350 CURVE SMOOTH",
"167 510 OFFCURVE",
"211 634 OFFCURVE",
"368 634 CURVE SMOOTH",
"408 634 OFFCURVE",
"441 626 OFFCURVE",
"468 611 CURVE",
"468 89 LINE",
"441 74 OFFCURVE",
"408 66 OFFCURVE",
"368 66 CURVE SMOOTH"
);
}
);
width = 945;
}
);
leftKerningGroup = O;
unicode = 0152;
},
{
glyphname = P;
lastChange = "2017-06-07 13:43:09 +0000";
layers = (
{
hints = (
{
place = "{88, 100}";
},
{
place = "{441, 96}";
},
{
horizontal = 1;
place = "{258, 76}";
},
{
horizontal = 1;
place = "{626, 74}";
},
{
horizontal = 1;
place = "{0, 21}";
target = up;
type = BottomGhost;
}
);
layerId = UUID0;
paths = (
{
closed = 1;
nodes = (
"188 0 LINE",
"188 258 LINE",
"267 258 LINE SMOOTH",
"415 258 OFFCURVE",
"537 309 OFFCURVE",
"537 479 CURVE SMOOTH",
"537 627 OFFCURVE",
"455 700 OFFCURVE",
"307 700 CURVE SMOOTH",
"88 700 LINE",
"88 0 LINE"
);
},
{
closed = 1;
nodes = (
"188 334 LINE",
"188 626 LINE",
"299 626 LINE SMOOTH",
"396 626 OFFCURVE",
"441 576 OFFCURVE",
"441 479 CURVE SMOOTH",
"441 382 OFFCURVE",
"381 334 OFFCURVE",
"284 334 CURVE SMOOTH"
);
}
);
width = 559;
}
);
rightKerningGroup = P;
unicode = 0050;
},
{
glyphname = Thorn;
lastChange = "2017-06-07 13:43:09 +0000";
layers = (
{
hints = (
{
place = "{88, 100}";
},
{
place = "{441, 96}";
},
{
horizontal = 1;
place = "{116, 76}";
},
{
horizontal = 1;
place = "{484, 74}";
},
{
horizontal = 1;
place = "{0, 21}";
target = up;
type = BottomGhost;
},
{
horizontal = 1;
place = "{700, -20}";
target = down;
type = TopGhost;
}
);
layerId = UUID0;
paths = (
{
closed = 1;
nodes = (
"188 0 LINE",
"188 116 LINE",
"267 116 LINE SMOOTH",
"415 116 OFFCURVE",
"537 167 OFFCURVE",
"537 337 CURVE SMOOTH",
"537 485 OFFCURVE",
"455 558 OFFCURVE",
"307 558 CURVE SMOOTH",
"188 558 LINE",
"188 700 LINE",
"88 700 LINE",
"88 0 LINE"
);
},
{
closed = 1;
nodes = (
"188 192 LINE",
"188 484 LINE",
"299 484 LINE SMOOTH",
"396 484 OFFCURVE",
"441 434 OFFCURVE",
"441 337 CURVE SMOOTH",
"441 240 OFFCURVE",
"381 192 OFFCURVE",
"284 192 CURVE SMOOTH"
);
}
);
width = 559;
}
);
unicode = 00DE;
},
{
glyphname = Q;
lastChange = "2017-06-07 13:43:09 +0000";
layers = (
{
hints = (
{
place = "{60, 107}";
},
{
place = "{570, 105}";
},
{
horizontal = 1;
place = "{-12, 78}";
},
{
horizontal = 1;
place = "{634, 78}";
},
{
horizontal = 1;
place = "{-86, 21}";
target = up;
type = BottomGhost;
}
);
layerId = UUID0;
paths = (
{
closed = 1;
nodes = (
"675 575 OFFCURVE",
"582 712 OFFCURVE",
"367 712 CURVE SMOOTH",
"152 712 OFFCURVE",
"60 575 OFFCURVE",
"60 350 CURVE SMOOTH",
"60 130 OFFCURVE",
"147 -12 OFFCURVE",
"367 -12 CURVE SMOOTH",
"407 -12 OFFCURVE",
"443 -7 OFFCURVE",
"474 2 CURVE",
"520 -59 LINE SMOOTH",
"531 -74 OFFCURVE",
"546 -86 OFFCURVE",
"567 -86 CURVE SMOOTH",
"575 -86 OFFCURVE",
"582 -84 OFFCURVE",
"590 -79 CURVE SMOOTH",
"638 -46 LINE",
"557 41 LINE",
"639 102 OFFCURVE",
"675 210 OFFCURVE",
"675 350 CURVE SMOOTH"
);
},
{
closed = 1;
nodes = (
"350 169 LINE",
"422 71 LINE",
"406 67 OFFCURVE",
"388 66 OFFCURVE",
"368 66 CURVE SMOOTH",
"211 66 OFFCURVE",
"167 190 OFFCURVE",
"167 350 CURVE SMOOTH",
"167 510 OFFCURVE",
"211 634 OFFCURVE",
"368 634 CURVE SMOOTH",
"525 634 OFFCURVE",
"570 510 OFFCURVE",
"570 350 CURVE SMOOTH",
"570 246 OFFCURVE",
"551 158 OFFCURVE",
"495 108 CURVE",
"405 206 LINE"
);
}
);
width = 735;
}
);
leftKerningGroup = O;
rightKerningGroup = O;
unicode = 0051;
},
{
glyphname = R;
lastChange = "2017-06-07 13:43:09 +0000";
layers = (
{
hints = (
{
place = "{88, 100}";
},
{
place = "{441, 96}";
},
{
horizontal = 1;
place = "{276, 76}";
},
{
horizontal = 1;
place = "{626, 74}";
},
{
horizontal = 1;
place = "{0, 21}";
target = up;
type = BottomGhost;
}
);
layerId = UUID0;
paths = (
{
closed = 1;
nodes = (
"188 0 LINE",
"188 276 LINE",
"267 276 LINE SMOOTH",
"285 276 OFFCURVE",
"303 277 OFFCURVE",
"320 278 CURVE",
"484 0 LINE",
"595 0 LINE",
"411 298 LINE",
"486 326 OFFCURVE",
"537 384 OFFCURVE",
"537 491 CURVE SMOOTH",
"537 631 OFFCURVE",
"455 700 OFFCURVE",
"307 700 CURVE SMOOTH",
"88 700 LINE",
"88 0 LINE"
);
},
{
closed = 1;
nodes = (
"188 352 LINE",
"188 626 LINE",
"299 626 LINE SMOOTH",
"396 626 OFFCURVE",
"441 580 OFFCURVE",
"441 491 CURVE SMOOTH",
"441 393 OFFCURVE",
"381 352 OFFCURVE",
"284 352 CURVE SMOOTH"
);
}
);
width = 610;
}
);
unicode = 0052;
},
{
glyphname = Racute;
lastChange = "2017-06-07 13:43:09 +0000";
layers = (
{
hints = (
{
place = "{88, 100}";
},
{
place = "{441, 96}";
},
{
horizontal = 1;
place = "{276, 76}";
},
{
horizontal = 1;
place = "{626, 74}";
},
{
horizontal = 1;
place = "{0, 21}";
target = up;
type = BottomGhost;
},
{
horizontal = 1;
place = "{917, -20}";
target = down;
type = TopGhost;
}
);
layerId = UUID0;
paths = (
{
closed = 1;
nodes = (
"188 0 LINE",
"188 276 LINE",
"267 276 LINE SMOOTH",
"285 276 OFFCURVE",
"303 277 OFFCURVE",
"320 278 CURVE",
"484 0 LINE",
"595 0 LINE",
"411 298 LINE",
"486 326 OFFCURVE",
"537 384 OFFCURVE",
"537 491 CURVE SMOOTH",
"537 631 OFFCURVE",
"455 700 OFFCURVE",
"307 700 CURVE SMOOTH",
"88 700 LINE",
"88 0 LINE"
);
},
{
closed = 1;
nodes = (
"188 352 LINE",
"188 626 LINE",
"299 626 LINE SMOOTH",
"396 626 OFFCURVE",
"441 580 OFFCURVE",
"441 491 CURVE SMOOTH",
"441 393 OFFCURVE",
"381 352 OFFCURVE",
"284 352 CURVE SMOOTH"
);
},
{
closed = 1;
nodes = (
"410 917 LINE",
"187 810 LINE",
"210 760 LINE",
"395 811 LINE SMOOTH",
"421 818 OFFCURVE",
"437 832 OFFCURVE",
"437 852 CURVE SMOOTH",
"437 857 OFFCURVE",
"436 861 OFFCURVE",
"433 867 CURVE SMOOTH"
);
}
);
width = 610;
}
);
unicode = 0154;
},
{
glyphname = Rcaron;
lastChange = "2017-06-07 13:43:09 +0000";
layers = (
{
hints = (
{
place = "{88, 100}";
},
{
place = "{441, 96}";
},
{
horizontal = 1;
place = "{276, 76}";
},
{
horizontal = 1;
place = "{626, 74}";
},
{
horizontal = 1;
place = "{700, 63}";
},
{
horizontal = 1;
place = "{0, 21}";
target = up;
type = BottomGhost;
},
{
horizontal = 1;
place = "{923, -20}";
target = down;
type = TopGhost;
}
);
layerId = UUID0;
paths = (
{
closed = 1;
nodes = (
"188 0 LINE",
"188 276 LINE",
"267 276 LINE SMOOTH",
"285 276 OFFCURVE",
"303 277 OFFCURVE",
"320 278 CURVE",
"484 0 LINE",
"595 0 LINE",
"411 298 LINE",
"486 326 OFFCURVE",
"537 384 OFFCURVE",
"537 491 CURVE SMOOTH",
"537 631 OFFCURVE",
"455 700 OFFCURVE",
"307 700 CURVE SMOOTH",
"88 700 LINE",
"88 0 LINE"
);
},
{
closed = 1;
nodes = (
"188 352 LINE",
"188 626 LINE",
"299 626 LINE SMOOTH",
"396 626 OFFCURVE",
"441 580 OFFCURVE",
"441 491 CURVE SMOOTH",
"441 393 OFFCURVE",
"381 352 OFFCURVE",
"284 352 CURVE SMOOTH"
);
},
{
closed = 1;
nodes = (
"237 763 LINE",
"330 763 LINE",
"455 891 LINE",
"419 923 LINE",
"283 825 LINE",
"148 923 LINE",
"112 891 LINE"
);
}
);
width = 610;
}
);
unicode = 0158;
},
{
glyphname = Rcommaaccent;
lastChange = "2017-06-07 13:43:09 +0000";
layers = (
{
hints = (
{
place = "{88, 100}";
},
{
place = "{441, 96}";
},
{
horizontal = 1;
place = "{626, 74}";
},
{
horizontal = 1;
place = "{276, 76}";
},
{
horizontal = 1;
place = "{0, -20}";
target = down;
type = TopGhost;
},
{
horizontal = 1;
place = "{-335, 21}";
target = up;
type = BottomGhost;
}
);
layerId = UUID0;
paths = (
{
closed = 1;
nodes = (
"188 0 LINE",
"188 276 LINE",
"267 276 LINE SMOOTH",
"285 276 OFFCURVE",
"303 277 OFFCURVE",
"320 278 CURVE",
"484 0 LINE",
"595 0 LINE",
"411 298 LINE",
"486 326 OFFCURVE",
"537 384 OFFCURVE",
"537 491 CURVE SMOOTH",
"537 631 OFFCURVE",
"455 700 OFFCURVE",
"307 700 CURVE SMOOTH",
"88 700 LINE",
"88 0 LINE"
);
},
{
closed = 1;
nodes = (
"188 352 LINE",
"188 626 LINE",
"299 626 LINE SMOOTH",
"396 626 OFFCURVE",
"441 580 OFFCURVE",
"441 491 CURVE SMOOTH",
"441 393 OFFCURVE",
"381 352 OFFCURVE",
"284 352 CURVE SMOOTH"
);
},
{
closed = 1;
nodes = (
"257 -58 LINE",
"253 -144 LINE SMOOTH",
"250 -192 OFFCURVE",
"219 -248 OFFCURVE",
"194 -305 CURVE",
"259 -335 LINE",
"259 -335 OFFCURVE",
"328 -243 OFFCURVE",
"338 -205 CURVE SMOOTH",
"359 -118 LINE SMOOTH",
"361 -111 OFFCURVE",
"361 -107 OFFCURVE",
"361 -102 CURVE SMOOTH",
"361 -81 OFFCURVE",
"348 -62 OFFCURVE",
"318 -61 CURVE SMOOTH"
);
}
);
width = 610;
}
);
unicode = 0156;
},
{
glyphname = S;
lastChange = "2017-06-07 13:43:09 +0000";
layers = (
{
hints = (
{
place = "{52, 108}";
},
{
place = "{387, 111}";
},
{
horizontal = 1;
place = "{-12, 79}";
},
{
horizontal = 1;
place = "{635, 77}";
}
);
layerId = UUID0;
paths = (
{
closed = 1;
nodes = (
"37 41 LINE",
"105 11 OFFCURVE",
"179 -12 OFFCURVE",
"265 -12 CURVE SMOOTH",
"371 -12 OFFCURVE",
"498 42 OFFCURVE",
"498 196 CURVE SMOOTH",
"498 288 OFFCURVE",
"436 343 OFFCURVE",
"365 378 CURVE SMOOTH",
"245 437 LINE SMOOTH",
"190 463 OFFCURVE",
"160 491 OFFCURVE",
"160 540 CURVE SMOOTH",
"160 596 OFFCURVE",
"192 635 OFFCURVE",
"284 635 CURVE SMOOTH",
"343 635 OFFCURVE",
"405 616 OFFCURVE",
"451 599 CURVE",
"478 670 LINE",
"426 691 OFFCURVE",
"375 712 OFFCURVE",
"286 712 CURVE SMOOTH",
"170 712 OFFCURVE",
"52 645 OFFCURVE",
"52 519 CURVE SMOOTH",
"52 427 OFFCURVE",
"105 378 OFFCURVE",
"177 344 CURVE SMOOTH",
"279 296 LINE SMOOTH",
"341 267 OFFCURVE",
"387 230 OFFCURVE",
"387 171 CURVE SMOOTH",
"387 105 OFFCURVE",
"333 67 OFFCURVE",
"267 67 CURVE SMOOTH",
"186 67 OFFCURVE",
"123 92 OFFCURVE",
"69 116 CURVE"
);
}
);
width = 547;
}
);
unicode = 0053;
},
{
glyphname = Sacute;
lastChange = "2017-06-07 13:43:09 +0000";
layers = (
{
hints = (
{
place = "{52, 108}";
},
{
place = "{387, 111}";
},
{
horizontal = 1;
place = "{-12, 79}";
},
{
horizontal = 1;
place = "{635, 77}";
},
{
horizontal = 1;
place = "{917, -20}";
target = down;
type = TopGhost;
}
);
layerId = UUID0;
paths = (
{
closed = 1;
nodes = (
"37 41 LINE",
"105 11 OFFCURVE",
"179 -12 OFFCURVE",
"265 -12 CURVE SMOOTH",
"371 -12 OFFCURVE",
"498 42 OFFCURVE",
"498 196 CURVE SMOOTH",
"498 288 OFFCURVE",
"436 343 OFFCURVE",
"365 378 CURVE SMOOTH",
"245 437 LINE SMOOTH",
"190 463 OFFCURVE",
"160 491 OFFCURVE",
"160 540 CURVE SMOOTH",
"160 596 OFFCURVE",
"192 635 OFFCURVE",
"284 635 CURVE SMOOTH",
"343 635 OFFCURVE",
"405 616 OFFCURVE",
"451 599 CURVE",
"478 670 LINE",
"426 691 OFFCURVE",
"375 712 OFFCURVE",
"286 712 CURVE SMOOTH",
"170 712 OFFCURVE",
"52 645 OFFCURVE",
"52 519 CURVE SMOOTH",
"52 427 OFFCURVE",
"105 378 OFFCURVE",
"177 344 CURVE SMOOTH",
"279 296 LINE SMOOTH",
"341 267 OFFCURVE",
"387 230 OFFCURVE",
"387 171 CURVE SMOOTH",
"387 105 OFFCURVE",
"333 67 OFFCURVE",
"267 67 CURVE SMOOTH",
"186 67 OFFCURVE",
"123 92 OFFCURVE",
"69 116 CURVE"
);
},
{
closed = 1;
nodes = (
"371 917 LINE",
"148 810 LINE",
"171 760 LINE",
"356 811 LINE SMOOTH",
"382 818 OFFCURVE",
"398 832 OFFCURVE",
"398 852 CURVE SMOOTH",
"398 857 OFFCURVE",
"397 861 OFFCURVE",
"394 867 CURVE SMOOTH"
);
}
);
width = 547;
}
);
unicode = 015A;
},
{
glyphname = Scaron;
lastChange = "2017-06-07 13:43:09 +0000";
layers = (
{
hints = (
{
place = "{52, 108}";
},
{
place = "{387, 111}";
},
{
horizontal = 1;
place = "{-12, 79}";
},
{
horizontal = 1;
place = "{635, 77}";
},
{
horizontal = 1;
place = "{712, 51}";
},
{
horizontal = 1;
place = "{923, -20}";
target = down;
type = TopGhost;
}
);
layerId = UUID0;
paths = (
{
closed = 1;
nodes = (
"37 41 LINE",
"105 11 OFFCURVE",
"179 -12 OFFCURVE",
"265 -12 CURVE SMOOTH",
"371 -12 OFFCURVE",
"498 42 OFFCURVE",
"498 196 CURVE SMOOTH",
"498 288 OFFCURVE",
"436 343 OFFCURVE",
"365 378 CURVE SMOOTH",
"245 437 LINE SMOOTH",
"190 463 OFFCURVE",
"160 491 OFFCURVE",
"160 540 CURVE SMOOTH",
"160 596 OFFCURVE",
"192 635 OFFCURVE",
"284 635 CURVE SMOOTH",
"343 635 OFFCURVE",
"405 616 OFFCURVE",
"451 599 CURVE",
"478 670 LINE",
"426 691 OFFCURVE",
"375 712 OFFCURVE",
"286 712 CURVE SMOOTH",
"170 712 OFFCURVE",
"52 645 OFFCURVE",
"52 519 CURVE SMOOTH",
"52 427 OFFCURVE",
"105 378 OFFCURVE",
"177 344 CURVE SMOOTH",
"279 296 LINE SMOOTH",
"341 267 OFFCURVE",
"387 230 OFFCURVE",
"387 171 CURVE SMOOTH",
"387 105 OFFCURVE",
"333 67 OFFCURVE",
"267 67 CURVE SMOOTH",
"186 67 OFFCURVE",
"123 92 OFFCURVE",
"69 116 CURVE"
);
},
{
closed = 1;
nodes = (
"228 763 LINE",
"321 763 LINE",
"446 891 LINE",
"410 923 LINE",
"274 825 LINE",
"139 923 LINE",
"103 891 LINE"
);
}
);
width = 547;
}
);
unicode = 0160;
},
{
glyphname = Scedilla;
lastChange = "2017-06-07 13:43:09 +0000";
layers = (
{
hints = (
{
place = "{52, 108}";
},
{
place = "{297, 62}";
},
{
place = "{387, 111}";
},
{
horizontal = 1;
place = "{-220, 43}";
},
{
horizontal = 1;
place = "{-84, 151}";
},
{
horizontal = 1;
place = "{-11, 78}";
},
{
horizontal = 1;
place = "{635, 77}";
}
);
layerId = UUID0;
paths = (
{
closed = 1;
nodes = (
"220 -177 OFFCURVE",
"204 -174 OFFCURVE",
"189 -170 CURVE",
"179 -210 LINE",
"194 -215 OFFCURVE",
"219 -220 OFFCURVE",
"247 -220 CURVE SMOOTH",
"320 -220 OFFCURVE",
"359 -190 OFFCURVE",
"359 -130 CURVE SMOOTH",
"359 -90 OFFCURVE",
"328 -56 OFFCURVE",
"270 -48 CURVE",
"280 -11 LINE",
"382 -6 OFFCURVE",
"498 49 OFFCURVE",
"498 196 CURVE SMOOTH",
"498 288 OFFCURVE",
"436 343 OFFCURVE",
"365 378 CURVE SMOOTH",
"245 437 LINE SMOOTH",
"190 463 OFFCURVE",
"160 491 OFFCURVE",
"160 540 CURVE SMOOTH",
"160 596 OFFCURVE",
"192 635 OFFCURVE",
"284 635 CURVE SMOOTH",
"343 635 OFFCURVE",
"405 616 OFFCURVE",
"451 599 CURVE",
"478 670 LINE",
"426 691 OFFCURVE",
"375 712 OFFCURVE",
"286 712 CURVE SMOOTH",
"170 712 OFFCURVE",
"52 645 OFFCURVE",
"52 519 CURVE SMOOTH",
"52 427 OFFCURVE",
"105 378 OFFCURVE",
"177 344 CURVE SMOOTH",
"279 296 LINE SMOOTH",
"341 267 OFFCURVE",
"387 230 OFFCURVE",
"387 171 CURVE SMOOTH",
"387 105 OFFCURVE",
"333 67 OFFCURVE",
"267 67 CURVE SMOOTH",
"186 67 OFFCURVE",
"123 92 OFFCURVE",
"69 116 CURVE",
"37 41 LINE",
"94 15 OFFCURVE",
"156 -5 OFFCURVE",
"226 -10 CURVE",
"209 -84 LINE",
"258 -87 OFFCURVE",
"297 -94 OFFCURVE",
"297 -129 CURVE SMOOTH",
"297 -155 OFFCURVE",
"282 -177 OFFCURVE",
"243 -177 CURVE SMOOTH"
);
}
);
width = 547;
}
);
unicode = 015E;
},
{
glyphname = Scircumflex;
lastChange = "2017-06-07 13:43:09 +0000";
layers = (
{
hints = (
{
place = "{52, 108}";
},
{
place = "{387, 111}";
},
{
horizontal = 1;
place = "{-12, 79}";
},
{
horizontal = 1;
place = "{635, 77}";
},
{
horizontal = 1;
place = "{712, 186}";
}
);
layerId = UUID0;
paths = (
{
closed = 1;
nodes = (
"37 41 LINE",
"105 11 OFFCURVE",
"179 -12 OFFCURVE",
"265 -12 CURVE SMOOTH",
"371 -12 OFFCURVE",
"498 42 OFFCURVE",
"498 196 CURVE SMOOTH",
"498 288 OFFCURVE",
"436 343 OFFCURVE",
"365 378 CURVE SMOOTH",
"245 437 LINE SMOOTH",
"190 463 OFFCURVE",
"160 491 OFFCURVE",
"160 540 CURVE SMOOTH",
"160 596 OFFCURVE",
"192 635 OFFCURVE",
"284 635 CURVE SMOOTH",
"343 635 OFFCURVE",
"405 616 OFFCURVE",
"451 599 CURVE",
"478 670 LINE",
"426 691 OFFCURVE",
"375 712 OFFCURVE",
"286 712 CURVE SMOOTH",
"170 712 OFFCURVE",
"52 645 OFFCURVE",
"52 519 CURVE SMOOTH",
"52 427 OFFCURVE",
"105 378 OFFCURVE",
"177 344 CURVE SMOOTH",
"279 296 LINE SMOOTH",
"341 267 OFFCURVE",
"387 230 OFFCURVE",
"387 171 CURVE SMOOTH",
"387 105 OFFCURVE",
"333 67 OFFCURVE",
"267 67 CURVE SMOOTH",
"186 67 OFFCURVE",
"123 92 OFFCURVE",
"69 116 CURVE"
);
},
{
closed = 1;
nodes = (
"231 898 LINE",
"324 898 LINE",
"449 770 LINE",
"413 738 LINE",
"277 836 LINE",
"142 738 LINE",
"106 770 LINE"
);
}
);
width = 547;
}
);
unicode = 015C;
},
{
glyphname = Scommaaccent;
lastChange = "2017-06-07 13:43:09 +0000";
layers = (
{
hints = (
{
place = "{52, 108}";
},
{
place = "{387, 111}";
},
{
horizontal = 1;
place = "{-59, 47}";
},
{
horizontal = 1;
place = "{635, 77}";
},
{
horizontal = 1;
place = "{-12, 79}";
},
{
horizontal = 1;
place = "{-335, 21}";
target = up;
type = BottomGhost;
}
);
layerId = UUID0;
paths = (
{
closed = 1;
nodes = (
"37 41 LINE",
"105 11 OFFCURVE",
"179 -12 OFFCURVE",
"265 -12 CURVE SMOOTH",
"371 -12 OFFCURVE",
"498 42 OFFCURVE",
"498 196 CURVE SMOOTH",
"498 288 OFFCURVE",
"436 343 OFFCURVE",
"365 378 CURVE SMOOTH",
"245 437 LINE SMOOTH",
"190 463 OFFCURVE",
"160 491 OFFCURVE",
"160 540 CURVE SMOOTH",
"160 596 OFFCURVE",
"192 635 OFFCURVE",
"284 635 CURVE SMOOTH",
"343 635 OFFCURVE",
"405 616 OFFCURVE",
"451 599 CURVE",
"478 670 LINE",
"426 691 OFFCURVE",
"375 712 OFFCURVE",
"286 712 CURVE SMOOTH",
"170 712 OFFCURVE",
"52 645 OFFCURVE",
"52 519 CURVE SMOOTH",
"52 427 OFFCURVE",
"105 378 OFFCURVE",
"177 344 CURVE SMOOTH",
"279 296 LINE SMOOTH",
"341 267 OFFCURVE",
"387 230 OFFCURVE",
"387 171 CURVE SMOOTH",
"387 105 OFFCURVE",
"333 67 OFFCURVE",
"267 67 CURVE SMOOTH",
"186 67 OFFCURVE",
"123 92 OFFCURVE",
"69 116 CURVE"
);
},
{
closed = 1;
nodes = (
"233 -58 LINE",
"229 -144 LINE SMOOTH",
"226 -192 OFFCURVE",
"195 -248 OFFCURVE",
"170 -305 CURVE",
"235 -335 LINE",
"235 -335 OFFCURVE",
"304 -243 OFFCURVE",
"314 -205 CURVE SMOOTH",
"335 -118 LINE SMOOTH",
"337 -111 OFFCURVE",
"337 -107 OFFCURVE",
"337 -102 CURVE SMOOTH",
"337 -81 OFFCURVE",
"324 -62 OFFCURVE",
"294 -61 CURVE SMOOTH"
);
}
);
width = 547;
}
);
unicode = 0218;
},
{
glyphname = T;
lastChange = "2017-06-07 13:43:09 +0000";
layers = (
{
hints = (
{
place = "{216, 101}";
},
{
horizontal = 1;
place = "{611, 89}";
},
{
horizontal = 1;
place = "{0, 21}";
target = up;
type = BottomGhost;
}
);
layerId = UUID0;
paths = (
{
closed = 1;
nodes = (
"317 0 LINE",
"317 611 LINE",
"532 611 LINE",
"532 700 LINE",
"3 700 LINE",
"3 611 LINE",
"216 611 LINE",
"216 0 LINE"
);
}
);
width = 535;
}
);
leftKerningGroup = T;
rightKerningGroup = T;
unicode = 0054;
},
{
glyphname = Tbar;
lastChange = "2017-06-07 13:43:09 +0000";
layers = (
{
hints = (
{
place = "{216, 101}";
},
{
horizontal = 1;
place = "{334, 63}";
},
{
horizontal = 1;
place = "{611, 89}";
},
{
horizontal = 1;
place = "{0, 21}";
target = up;
type = BottomGhost;
}
);
layerId = UUID0;
paths = (
{
closed = 1;
nodes = (
"45 334 LINE",
"216 334 LINE",
"216 0 LINE",
"317 0 LINE",
"317 334 LINE",
"489 334 LINE",
"489 397 LINE",
"317 397 LINE",
"317 611 LINE",
"532 611 LINE",
"532 700 LINE",
"3 700 LINE",
"3 611 LINE",
"216 611 LINE",
"216 397 LINE",
"45 397 LINE"
);
}
);
width = 535;
}
);
leftKerningGroup = T;
rightKerningGroup = T;
unicode = 0166;
},
{
glyphname = Tcaron;
lastChange = "2017-06-07 13:43:09 +0000";
layers = (
{
hints = (
{
place = "{216, 101}";
},
{
horizontal = 1;
place = "{611, 89}";
},
{
horizontal = 1;
place = "{700, 63}";
},
{
horizontal = 1;
place = "{0, 21}";
target = up;
type = BottomGhost;
},
{
horizontal = 1;
place = "{923, -20}";
target = down;
type = TopGhost;
}
);
layerId = UUID0;
paths = (
{
closed = 1;
nodes = (
"317 0 LINE",
"317 611 LINE",
"532 611 LINE",
"532 700 LINE",
"3 700 LINE",
"3 611 LINE",
"216 611 LINE",
"216 0 LINE"
);
},
{
closed = 1;
nodes = (
"218 763 LINE",
"311 763 LINE",
"436 891 LINE",
"400 923 LINE",
"264 825 LINE",
"129 923 LINE",
"93 891 LINE"
);
}
);
width = 535;
}
);
leftKerningGroup = T;
rightKerningGroup = T;
unicode = 0164;
},
{
glyphname = Tcedilla;
lastChange = "2017-06-07 13:43:09 +0000";
layers = (
{
hints = (
{
place = "{216, 101}";
},
{
place = "{304, 62}";
},
{
horizontal = 1;
place = "{-220, 43}";
},
{
horizontal = 1;
place = "{611, 89}";
},
{
horizontal = 1;
place = "{0, -20}";
target = down;
type = TopGhost;
}
);
layerId = UUID0;
paths = (
{
closed = 1;
nodes = (
"227 -177 OFFCURVE",
"211 -174 OFFCURVE",
"196 -170 CURVE",
"186 -210 LINE",
"201 -215 OFFCURVE",
"226 -220 OFFCURVE",
"254 -220 CURVE SMOOTH",
"327 -220 OFFCURVE",
"366 -190 OFFCURVE",
"366 -130 CURVE SMOOTH",
"366 -90 OFFCURVE",
"335 -56 OFFCURVE",
"277 -48 CURVE",
"290 0 LINE",
"317 0 LINE",
"317 611 LINE",
"532 611 LINE",
"532 700 LINE",
"3 700 LINE",
"3 611 LINE",
"216 611 LINE",
"216 0 LINE",
"236 0 LINE",
"216 -84 LINE",
"265 -87 OFFCURVE",
"304 -94 OFFCURVE",
"304 -129 CURVE SMOOTH",
"304 -155 OFFCURVE",
"289 -177 OFFCURVE",
"250 -177 CURVE SMOOTH"
);
}
);
width = 535;
}
);
leftKerningGroup = T;
rightKerningGroup = T;
unicode = 0162;
},
{
glyphname = Tcommaaccent;
lastChange = "2017-06-07 13:43:09 +0000";
layers = (
{
hints = (
{
place = "{216, 101}";
},
{
horizontal = 1;
place = "{-59, 59}";
},
{
horizontal = 1;
place = "{611, 89}";
},
{
horizontal = 1;
place = "{-335, 21}";
target = up;
type = BottomGhost;
}
);
layerId = UUID0;
paths = (
{
closed = 1;
nodes = (
"317 0 LINE",
"317 611 LINE",
"532 611 LINE",
"532 700 LINE",
"3 700 LINE",
"3 611 LINE",
"216 611 LINE",
"216 0 LINE"
);
},
{
closed = 1;
nodes = (
"220 -58 LINE",
"216 -144 LINE SMOOTH",
"213 -192 OFFCURVE",
"182 -248 OFFCURVE",
"157 -305 CURVE",
"222 -335 LINE",
"222 -335 OFFCURVE",
"291 -243 OFFCURVE",
"301 -205 CURVE SMOOTH",
"322 -118 LINE SMOOTH",
"324 -111 OFFCURVE",
"324 -107 OFFCURVE",
"324 -102 CURVE SMOOTH",
"324 -81 OFFCURVE",
"311 -62 OFFCURVE",
"281 -61 CURVE SMOOTH"
);
}
);
width = 535;
}
);
leftKerningGroup = T;
rightKerningGroup = T;
unicode = 021A;
},
{
glyphname = U;
lastChange = "2017-06-07 13:43:09 +0000";
layers = (
{
hints = (
{
place = "{80, 100}";
},
{
place = "{514, 100}";
},
{
horizontal = 1;
place = "{-12, 83}";
},
{
horizontal = 1;
place = "{700, -20}";
target = down;
type = TopGhost;
}
);
layerId = UUID0;
paths = (
{
closed = 1;
nodes = (
"614 700 LINE",
"514 700 LINE",
"514 280 LINE SMOOTH",
"514 160 OFFCURVE",
"487 71 OFFCURVE",
"347 71 CURVE SMOOTH",
"207 71 OFFCURVE",
"180 160 OFFCURVE",
"180 280 CURVE SMOOTH",
"180 700 LINE",
"80 700 LINE",
"80 260 LINE SMOOTH",
"80 81 OFFCURVE",
"168 -12 OFFCURVE",
"347 -12 CURVE SMOOTH",
"526 -12 OFFCURVE",
"614 81 OFFCURVE",
"614 260 CURVE SMOOTH"
);
}
);
width = 694;
}
);
unicode = 0055;
},
{
glyphname = Uacute;
lastChange = "2017-06-07 13:43:09 +0000";
layers = (
{
hints = (
{
place = "{80, 100}";
},
{
place = "{514, 100}";
},
{
horizontal = 1;
place = "{-12, 83}";
},
{
horizontal = 1;
place = "{700, -20}";
target = down;
type = TopGhost;
},
{
horizontal = 1;
place = "{917, -20}";
target = down;
type = TopGhost;
}
);
layerId = UUID0;
paths = (
{
closed = 1;
nodes = (
"614 700 LINE",
"514 700 LINE",
"514 280 LINE SMOOTH",
"514 160 OFFCURVE",
"487 71 OFFCURVE",
"347 71 CURVE SMOOTH",
"207 71 OFFCURVE",
"180 160 OFFCURVE",
"180 280 CURVE SMOOTH",
"180 700 LINE",
"80 700 LINE",
"80 260 LINE SMOOTH",
"80 81 OFFCURVE",
"168 -12 OFFCURVE",
"347 -12 CURVE SMOOTH",
"526 -12 OFFCURVE",
"614 81 OFFCURVE",
"614 260 CURVE SMOOTH"
);
},
{
closed = 1;
nodes = (
"456 917 LINE",
"233 810 LINE",
"256 760 LINE",
"441 811 LINE SMOOTH",
"467 818 OFFCURVE",
"483 832 OFFCURVE",
"483 852 CURVE SMOOTH",
"483 857 OFFCURVE",
"482 861 OFFCURVE",
"479 867 CURVE SMOOTH"
);
}
);
width = 694;
}
);
unicode = 00DA;
},
{
glyphname = Ubreve;
lastChange = "2017-06-07 13:43:09 +0000";
layers = (
{
hints = (
{
place = "{80, 100}";
},
{
place = "{514, 100}";
},
{
horizontal = 1;
place = "{-12, 83}";
},
{
horizontal = 1;
place = "{754, 64}";
},
{
horizontal = 1;
place = "{700, -20}";
target = down;
type = TopGhost;
},
{
horizontal = 1;
place = "{910, -20}";
target = down;
type = TopGhost;
}
);
layerId = UUID0;
paths = (
{
closed = 1;
nodes = (
"614 700 LINE",
"514 700 LINE",
"514 280 LINE SMOOTH",
"514 160 OFFCURVE",
"487 71 OFFCURVE",
"347 71 CURVE SMOOTH",
"207 71 OFFCURVE",
"180 160 OFFCURVE",
"180 280 CURVE SMOOTH",
"180 700 LINE",
"80 700 LINE",
"80 260 LINE SMOOTH",
"80 81 OFFCURVE",
"168 -12 OFFCURVE",
"347 -12 CURVE SMOOTH",
"526 -12 OFFCURVE",
"614 81 OFFCURVE",
"614 260 CURVE SMOOTH"
);
},
{
closed = 1;
nodes = (
"475 910 LINE",
"465 833 OFFCURVE",
"430 818 OFFCURVE",
"350 818 CURVE SMOOTH",
"270 818 OFFCURVE",
"235 833 OFFCURVE",
"225 910 CURVE",
"168 901 LINE",
"168 802 OFFCURVE",
"230 754 OFFCURVE",
"350 754 CURVE SMOOTH",
"470 754 OFFCURVE",
"532 802 OFFCURVE",
"532 901 CURVE"
);
}
);
width = 694;
}
);
unicode = 016C;
},
{
glyphname = Ucircumflex;
lastChange = "2017-06-07 13:43:09 +0000";
layers = (
{
hints = (
{
place = "{80, 100}";
},
{
place = "{514, 100}";
},
{
horizontal = 1;
place = "{-12, 83}";
},
{
horizontal = 1;
place = "{898, -20}";
target = down;
type = TopGhost;
},
{
horizontal = 1;
place = "{700, -20}";
target = down;
type = TopGhost;
}
);
layerId = UUID0;
paths = (
{
closed = 1;
nodes = (
"614 700 LINE",
"514 700 LINE",
"514 280 LINE SMOOTH",
"514 160 OFFCURVE",
"487 71 OFFCURVE",
"347 71 CURVE SMOOTH",
"207 71 OFFCURVE",
"180 160 OFFCURVE",
"180 280 CURVE SMOOTH",
"180 700 LINE",
"80 700 LINE",
"80 260 LINE SMOOTH",
"80 81 OFFCURVE",
"168 -12 OFFCURVE",
"347 -12 CURVE SMOOTH",
"526 -12 OFFCURVE",
"614 81 OFFCURVE",
"614 260 CURVE SMOOTH"
);
},
{
closed = 1;
nodes = (
"303 898 LINE",
"396 898 LINE",
"521 770 LINE",
"485 738 LINE",
"349 836 LINE",
"214 738 LINE",
"178 770 LINE"
);
}
);
width = 694;
}
);
unicode = 00DB;
},
{
glyphname = Udieresis;
lastChange = "2017-06-07 13:43:09 +0000";
layers = (
{
hints = (
{
place = "{80, 100}";
},
{
place = "{197, 120}";
},
{
place = "{514, 100}";
},
{
place = "{197, 183}";
},
{
horizontal = 1;
place = "{-12, 83}";
},
{
horizontal = 1;
place = "{772, 120}";
},
{
horizontal = 1;
place = "{700, -20}";
target = down;
type = TopGhost;
}
);
layerId = UUID0;
paths = (
{
closed = 1;
nodes = (
"614 700 LINE",
"514 700 LINE",
"514 280 LINE SMOOTH",
"514 160 OFFCURVE",
"487 71 OFFCURVE",
"347 71 CURVE SMOOTH",
"207 71 OFFCURVE",
"180 160 OFFCURVE",
"180 280 CURVE SMOOTH",
"180 700 LINE",
"80 700 LINE",
"80 260 LINE SMOOTH",
"80 81 OFFCURVE",
"168 -12 OFFCURVE",
"347 -12 CURVE SMOOTH",
"526 -12 OFFCURVE",
"614 81 OFFCURVE",
"614 260 CURVE SMOOTH"
);
},
{
closed = 1;
nodes = (
"197 799 OFFCURVE",
"225 772 OFFCURVE",
"257 772 CURVE SMOOTH",
"290 772 OFFCURVE",
"317 799 OFFCURVE",
"317 832 CURVE SMOOTH",
"317 865 OFFCURVE",
"290 892 OFFCURVE",
"257 892 CURVE SMOOTH",
"225 892 OFFCURVE",
"197 865 OFFCURVE",
"197 832 CURVE SMOOTH"
);
},
{
closed = 1;
nodes = (
"500 799 OFFCURVE",
"472 772 OFFCURVE",
"440 772 CURVE SMOOTH",
"407 772 OFFCURVE",
"380 799 OFFCURVE",
"380 832 CURVE SMOOTH",
"380 865 OFFCURVE",
"407 892 OFFCURVE",
"440 892 CURVE SMOOTH",
"472 892 OFFCURVE",
"500 865 OFFCURVE",
"500 832 CURVE SMOOTH"
);
}
);
width = 694;
}
);
unicode = 00DC;
},
{
glyphname = Ugrave;
lastChange = "2017-06-07 13:43:09 +0000";
layers = (
{
hints = (
{
place = "{80, 100}";
},
{
place = "{514, 100}";
},
{
horizontal = 1;
place = "{-12, 83}";
},
{
horizontal = 1;
place = "{917, -20}";
target = down;
type = TopGhost;
},
{
horizontal = 1;
place = "{700, -20}";
target = down;
type = TopGhost;
}
);
layerId = UUID0;
paths = (
{
closed = 1;
nodes = (
"614 700 LINE",
"514 700 LINE",
"514 280 LINE SMOOTH",
"514 160 OFFCURVE",
"487 71 OFFCURVE",
"347 71 CURVE SMOOTH",
"207 71 OFFCURVE",
"180 160 OFFCURVE",
"180 280 CURVE SMOOTH",
"180 700 LINE",
"80 700 LINE",
"80 260 LINE SMOOTH",
"80 81 OFFCURVE",
"168 -12 OFFCURVE",
"347 -12 CURVE SMOOTH",
"526 -12 OFFCURVE",
"614 81 OFFCURVE",
"614 260 CURVE SMOOTH"
);
},
{
closed = 1;
nodes = (
"240 917 LINE",
"463 810 LINE",
"440 760 LINE",
"255 811 LINE SMOOTH",
"229 818 OFFCURVE",
"213 832 OFFCURVE",
"213 852 CURVE SMOOTH",
"213 857 OFFCURVE",
"214 861 OFFCURVE",
"217 867 CURVE SMOOTH"
);
}
);
width = 694;
}
);
unicode = 00D9;
},
{
glyphname = Uhorn;
lastChange = "2017-06-07 13:43:09 +0000";
layers = (
{
hints = (
{
place = "{80, 100}";
},
{
place = "{514, 100}";
},
{
place = "{630, 174}";
},
{
place = "{714, 90}";
},
{
horizontal = 1;
place = "{-12, 83}";
},
{
horizontal = 1;
place = "{700, -20}";
target = down;
type = TopGhost;
},
{
horizontal = 1;
place = "{752, -20}";
target = down;
type = TopGhost;
}
);
layerId = UUID0;
paths = (
{
closed = 1;
nodes = (
"614 700 LINE",
"514 700 LINE",
"514 280 LINE SMOOTH",
"514 160 OFFCURVE",
"487 71 OFFCURVE",
"347 71 CURVE SMOOTH",
"207 71 OFFCURVE",
"180 160 OFFCURVE",
"180 280 CURVE SMOOTH",
"180 700 LINE",
"80 700 LINE",
"80 260 LINE SMOOTH",
"80 81 OFFCURVE",
"168 -12 OFFCURVE",
"347 -12 CURVE SMOOTH",
"526 -12 OFFCURVE",
"614 81 OFFCURVE",
"614 260 CURVE SMOOTH"
);
},
{
closed = 1;
nodes = (
"714 752 LINE",
"714 670 OFFCURVE",
"689 615 OFFCURVE",
"630 599 CURVE",
"630 526 LINE",
"686 542 OFFCURVE",
"725 567 OFFCURVE",
"752 595 CURVE SMOOTH",
"787 632 OFFCURVE",
"804 670 OFFCURVE",
"804 729 CURVE SMOOTH",
"804 744 OFFCURVE",
"794 752 OFFCURVE",
"779 752 CURVE SMOOTH"
);
}
);
width = 694;
}
);
unicode = 01AF;
},
{
glyphname = Uhungarumlaut;
lastChange = "2017-06-07 13:43:09 +0000";
layers = (
{
hints = (
{
place = "{80, 100}";
},
{
place = "{514, 100}";
},
{
horizontal = 1;
place = "{-12, 83}";
},
{
horizontal = 1;
place = "{700, -20}";
target = down;
type = TopGhost;
},
{
horizontal = 1;
place = "{974, -20}";
target = down;
type = TopGhost;
}
);
layerId = UUID0;
paths = (
{
closed = 1;
nodes = (
"614 700 LINE",
"514 700 LINE",
"514 280 LINE SMOOTH",
"514 160 OFFCURVE",
"487 71 OFFCURVE",
"347 71 CURVE SMOOTH",
"207 71 OFFCURVE",
"180 160 OFFCURVE",
"180 280 CURVE SMOOTH",
"180 700 LINE",
"80 700 LINE",
"80 260 LINE SMOOTH",
"80 81 OFFCURVE",
"168 -12 OFFCURVE",
"347 -12 CURVE SMOOTH",
"526 -12 OFFCURVE",
"614 81 OFFCURVE",
"614 260 CURVE SMOOTH"
);
},
{
closed = 1;
nodes = (
"344 974 LINE",
"190 781 LINE",
"232 746 LINE",
"378 871 LINE SMOOTH",
"392 883 OFFCURVE",
"400 899 OFFCURVE",
"400 913 CURVE SMOOTH",
"400 925 OFFCURVE",
"394 934 OFFCURVE",
"387 940 CURVE SMOOTH"
);
},
{
closed = 1;
nodes = (
"522 974 LINE",
"368 781 LINE",
"410 746 LINE",
"556 871 LINE SMOOTH",
"570 883 OFFCURVE",
"578 899 OFFCURVE",
"578 913 CURVE SMOOTH",
"578 925 OFFCURVE",
"572 934 OFFCURVE",
"565 940 CURVE SMOOTH"
);
}
);
width = 694;
}
);
unicode = 0170;
},
{
glyphname = Umacron;
lastChange = "2017-06-07 13:43:09 +0000";
layers = (
{
hints = (
{
place = "{80, 100}";
},
{
place = "{514, 100}";
},
{
horizontal = 1;
place = "{-12, 83}";
},
{
horizontal = 1;
place = "{786, 69}";
},
{
horizontal = 1;
place = "{700, -20}";
target = down;
type = TopGhost;
}
);
layerId = UUID0;
paths = (
{
closed = 1;
nodes = (
"614 700 LINE",
"514 700 LINE",
"514 280 LINE SMOOTH",
"514 160 OFFCURVE",
"487 71 OFFCURVE",
"347 71 CURVE SMOOTH",
"207 71 OFFCURVE",
"180 160 OFFCURVE",
"180 280 CURVE SMOOTH",
"180 700 LINE",
"80 700 LINE",
"80 260 LINE SMOOTH",
"80 81 OFFCURVE",
"168 -12 OFFCURVE",
"347 -12 CURVE SMOOTH",
"526 -12 OFFCURVE",
"614 81 OFFCURVE",
"614 260 CURVE SMOOTH"
);
},
{
closed = 1;
nodes = (
"190 786 LINE",
"504 786 LINE",
"504 855 LINE",
"190 855 LINE"
);
}
);
width = 694;
}
);
unicode = 016A;
},
{
glyphname = Uogonek;
lastChange = "2017-06-07 13:43:09 +0000";
layers = (
{
hints = (
{
place = "{80, 100}";
},
{
place = "{281, 67}";
},
{
place = "{514, 100}";
},
{
horizontal = 1;
place = "{-220, 55}";
},
{
horizontal = 1;
place = "{-12, 83}";
},
{
horizontal = 1;
place = "{700, -20}";
target = down;
type = TopGhost;
}
);
layerId = UUID0;
paths = (
{
closed = 1;
nodes = (
"614 700 LINE",
"514 700 LINE",
"514 280 LINE SMOOTH",
"514 160 OFFCURVE",
"487 71 OFFCURVE",
"347 71 CURVE SMOOTH",
"207 71 OFFCURVE",
"180 160 OFFCURVE",
"180 280 CURVE SMOOTH",
"180 700 LINE",
"80 700 LINE",
"80 260 LINE SMOOTH",
"80 83 OFFCURVE",
"166 -10 OFFCURVE",
"341 -12 CURVE",
"302 -45 OFFCURVE",
"281 -79 OFFCURVE",
"281 -118 CURVE SMOOTH",
"281 -173 OFFCURVE",
"314 -220 OFFCURVE",
"392 -220 CURVE SMOOTH",
"432 -220 OFFCURVE",
"456 -206 OFFCURVE",
"473 -196 CURVE",
"444 -151 LINE",
"432 -159 OFFCURVE",
"416 -165 OFFCURVE",
"396 -165 CURVE SMOOTH",
"371 -165 OFFCURVE",
"348 -149 OFFCURVE",
"348 -118 CURVE SMOOTH",
"348 -67 OFFCURVE",
"412 -19 OFFCURVE",
"484 13 CURVE SMOOTH",
"571 51 OFFCURVE",
"614 135 OFFCURVE",
"614 260 CURVE SMOOTH"
);
}
);
width = 694;
}
);
unicode = 0172;
},
{
glyphname = Uring;
lastChange = "2017-06-07 13:43:09 +0000";
layers = (
{
hints = (
{
place = "{80, 100}";
},
{
place = "{248, 57}";
},
{
place = "{390, 57}";
},
{
place = "{514, 100}";
},
{
horizontal = 1;
place = "{-12, 83}";
},
{
horizontal = 1;
place = "{751, 52}";
},
{
horizontal = 1;
place = "{888, 51}";
},
{
horizontal = 1;
place = "{700, -20}";
target = down;
type = TopGhost;
}
);
layerId = UUID0;
paths = (
{
closed = 1;
nodes = (
"614 700 LINE",
"514 700 LINE",
"514 280 LINE SMOOTH",
"514 160 OFFCURVE",
"487 71 OFFCURVE",
"347 71 CURVE SMOOTH",
"207 71 OFFCURVE",
"180 160 OFFCURVE",
"180 280 CURVE SMOOTH",
"180 700 LINE",
"80 700 LINE",
"80 260 LINE SMOOTH",
"80 81 OFFCURVE",
"168 -12 OFFCURVE",
"347 -12 CURVE SMOOTH",
"526 -12 OFFCURVE",
"614 81 OFFCURVE",
"614 260 CURVE SMOOTH"
);
},
{
closed = 1;
nodes = (
"248 790 OFFCURVE",
"293 751 OFFCURVE",
"347 751 CURVE SMOOTH",
"401 751 OFFCURVE",
"447 790 OFFCURVE",
"447 844 CURVE SMOOTH",
"447 899 OFFCURVE",
"401 939 OFFCURVE",
"347 939 CURVE SMOOTH",
"293 939 OFFCURVE",
"248 899 OFFCURVE",
"248 844 CURVE SMOOTH"
);
},
{
closed = 1;
nodes = (
"305 872 OFFCURVE",
"323 888 OFFCURVE",
"347 888 CURVE SMOOTH",
"371 888 OFFCURVE",
"390 872 OFFCURVE",
"390 844 CURVE SMOOTH",
"390 818 OFFCURVE",
"371 803 OFFCURVE",
"347 803 CURVE SMOOTH",
"323 803 OFFCURVE",
"305 818 OFFCURVE",
"305 844 CURVE SMOOTH"
);
}
);
width = 694;
}
);
unicode = 016E;
},
{
glyphname = Utilde;
lastChange = "2017-06-07 13:43:09 +0000";
layers = (
{
hints = (
{
place = "{80, 100}";
},
{
place = "{514, 100}";
},
{
horizontal = 1;
place = "{-12, 83}";
},
{
horizontal = 1;
place = "{773, 75}";
},
{
horizontal = 1;
place = "{814, 34}";
},
{
horizontal = 1;
place = "{814, 75}";
},
{
horizontal = 1;
place = "{700, -20}";
target = down;
type = TopGhost;
}
);
layerId = UUID0;
paths = (
{
closed = 1;
nodes = (
"614 700 LINE",
"514 700 LINE",
"514 280 LINE SMOOTH",
"514 160 OFFCURVE",
"487 71 OFFCURVE",
"347 71 CURVE SMOOTH",
"207 71 OFFCURVE",
"180 160 OFFCURVE",
"180 280 CURVE SMOOTH",
"180 700 LINE",
"80 700 LINE",
"80 260 LINE SMOOTH",
"80 81 OFFCURVE",
"168 -12 OFFCURVE",
"347 -12 CURVE SMOOTH",
"526 -12 OFFCURVE",
"614 81 OFFCURVE",
"614 260 CURVE SMOOTH"
);
},
{
closed = 1;
nodes = (
"462 773 OFFCURVE",
"501 793 OFFCURVE",
"529 850 CURVE",
"473 885 LINE",
"463 862 OFFCURVE",
"440 848 OFFCURVE",
"413 848 CURVE SMOOTH",
"375 848 OFFCURVE",
"339 889 OFFCURVE",
"280 889 CURVE SMOOTH",
"231 889 OFFCURVE",
"194 866 OFFCURVE",
"166 811 CURVE",
"221 775 LINE",
"239 800 OFFCURVE",
"249 814 OFFCURVE",
"285 814 CURVE SMOOTH",
"319 814 OFFCURVE",
"355 773 OFFCURVE",
"414 773 CURVE SMOOTH"
);
}
);
width = 694;
}
);
unicode = 0168;
},
{
glyphname = V;
lastChange = "2017-06-07 13:43:09 +0000";
layers = (
{
hints = (
{
horizontal = 1;
place = "{700, -20}";
target = down;
type = TopGhost;
},
{
horizontal = 1;
place = "{83, 21}";
target = up;
type = BottomGhost;
},
{
horizontal = 1;
place = "{0, 21}";
target = up;
type = BottomGhost;
}
);
layerId = UUID0;
paths = (
{
closed = 1;
nodes = (
"359 0 LINE",
"229 0 LINE",
"3 700 LINE",
"103 700 LINE",
"247 247 LINE SMOOTH",
"270 174 OFFCURVE",
"287 83 OFFCURVE",
"287 83 CURVE",
"305 83 LINE",
"305 83 OFFCURVE",
"325 174 OFFCURVE",
"351 247 CURVE SMOOTH",
"511 700 LINE",
"611 700 LINE"
);
}
);
width = 614;
}
);
leftKerningGroup = V;
rightKerningGroup = V;
unicode = 0056;
},
{
glyphname = W;
lastChange = "2017-06-07 13:43:09 +0000";
layers = (
{
hints = (
{
horizontal = 1;
place = "{0, 21}";
target = up;
type = BottomGhost;
},
{
horizontal = 1;
place = "{700, -20}";
target = down;
type = TopGhost;
},
{
horizontal = 1;
place = "{85, 21}";
target = up;
type = BottomGhost;
}
);
layerId = UUID0;
paths = (
{
closed = 1;
nodes = (
"323 0 LINE",
"186 0 LINE",
"7 700 LINE",
"113 700 LINE",
"226 229 LINE SMOOTH",
"242 164 OFFCURVE",
"247 85 OFFCURVE",
"247 85 CURVE",
"263 85 LINE",
"263 85 OFFCURVE",
"269 164 OFFCURVE",
"284 229 CURVE SMOOTH",
"391 700 LINE",
"527 700 LINE",
"634 229 LINE SMOOTH",
"649 164 OFFCURVE",
"655 85 OFFCURVE",
"655 85 CURVE",
"671 85 LINE",
"671 85 OFFCURVE",
"676 164 OFFCURVE",
"692 229 CURVE SMOOTH",
"805 700 LINE",
"911 700 LINE",
"732 0 LINE",
"595 0 LINE",
"488 461 LINE SMOOTH",
"473 526 OFFCURVE",
"467 605 OFFCURVE",
"467 605 CURVE",
"451 605 LINE",
"451 605 OFFCURVE",
"445 526 OFFCURVE",
"430 461 CURVE SMOOTH"
);
}
);
width = 918;
}
);
leftKerningGroup = V;
rightKerningGroup = V;
unicode = 0057;
},
{
glyphname = Wacute;
lastChange = "2017-06-07 13:43:09 +0000";
layers = (
{
hints = (
{
horizontal = 1;
place = "{0, 21}";
target = up;
type = BottomGhost;
},
{
horizontal = 1;
place = "{700, -20}";
target = down;
type = TopGhost;
},
{
horizontal = 1;
place = "{85, 21}";
target = up;
type = BottomGhost;
},
{
horizontal = 1;
place = "{917, -20}";
target = down;
type = TopGhost;
}
);
layerId = UUID0;
paths = (
{
closed = 1;
nodes = (
"323 0 LINE",
"186 0 LINE",
"7 700 LINE",
"113 700 LINE",
"226 229 LINE SMOOTH",
"242 164 OFFCURVE",
"247 85 OFFCURVE",
"247 85 CURVE",
"263 85 LINE",
"263 85 OFFCURVE",
"269 164 OFFCURVE",
"284 229 CURVE SMOOTH",
"391 700 LINE",
"527 700 LINE",
"634 229 LINE SMOOTH",
"649 164 OFFCURVE",
"655 85 OFFCURVE",
"655 85 CURVE",
"671 85 LINE",
"671 85 OFFCURVE",
"676 164 OFFCURVE",
"692 229 CURVE SMOOTH",
"805 700 LINE",
"911 700 LINE",
"732 0 LINE",
"595 0 LINE",
"488 461 LINE SMOOTH",
"473 526 OFFCURVE",
"467 605 OFFCURVE",
"467 605 CURVE",
"451 605 LINE",
"451 605 OFFCURVE",
"445 526 OFFCURVE",
"430 461 CURVE SMOOTH"
);
},
{
closed = 1;
nodes = (
"587 917 LINE",
"364 810 LINE",
"387 760 LINE",
"572 811 LINE SMOOTH",
"598 818 OFFCURVE",
"614 832 OFFCURVE",
"614 852 CURVE SMOOTH",
"614 857 OFFCURVE",
"613 861 OFFCURVE",
"610 867 CURVE SMOOTH"
);
}
);
width = 918;
}
);
leftKerningGroup = V;
rightKerningGroup = V;
unicode = 1E82;
},
{
glyphname = Wcircumflex;
lastChange = "2017-06-07 13:43:09 +0000";
layers = (
{
hints = (
{
horizontal = 1;
place = "{898, -20}";
target = down;
type = TopGhost;
},
{
horizontal = 1;
place = "{0, 21}";
target = up;
type = BottomGhost;
},
{
horizontal = 1;
place = "{700, -20}";
target = down;
type = TopGhost;
},
{
horizontal = 1;
place = "{85, 21}";
target = up;
type = BottomGhost;
}
);
layerId = UUID0;
paths = (
{
closed = 1;
nodes = (
"323 0 LINE",
"186 0 LINE",
"7 700 LINE",
"113 700 LINE",
"226 229 LINE SMOOTH",
"242 164 OFFCURVE",
"247 85 OFFCURVE",
"247 85 CURVE",
"263 85 LINE",
"263 85 OFFCURVE",
"269 164 OFFCURVE",
"284 229 CURVE SMOOTH",
"391 700 LINE",
"527 700 LINE",
"634 229 LINE SMOOTH",
"649 164 OFFCURVE",
"655 85 OFFCURVE",
"655 85 CURVE",
"671 85 LINE",
"671 85 OFFCURVE",
"676 164 OFFCURVE",
"692 229 CURVE SMOOTH",
"805 700 LINE",
"911 700 LINE",
"732 0 LINE",
"595 0 LINE",
"488 461 LINE SMOOTH",
"473 526 OFFCURVE",
"467 605 OFFCURVE",
"467 605 CURVE",
"451 605 LINE",
"451 605 OFFCURVE",
"445 526 OFFCURVE",
"430 461 CURVE SMOOTH"
);
},
{
closed = 1;
nodes = (
"413 898 LINE",
"506 898 LINE",
"631 770 LINE",
"595 738 LINE",
"459 836 LINE",
"324 738 LINE",
"288 770 LINE"
);
}
);
width = 918;
}
);
leftKerningGroup = V;
rightKerningGroup = V;
unicode = 0174;
},
{
glyphname = Wdieresis;
lastChange = "2017-06-07 13:43:09 +0000";
layers = (
{
hints = (
{
place = "{312, 120}";
},
{
place = "{495, 120}";
},
{
horizontal = 1;
place = "{772, 120}";
},
{
horizontal = 1;
place = "{700, 72}";
},
{
horizontal = 1;
place = "{0, 21}";
target = up;
type = BottomGhost;
},
{
horizontal = 1;
place = "{85, 21}";
target = up;
type = BottomGhost;
}
);
layerId = UUID0;
paths = (
{
closed = 1;
nodes = (
"323 0 LINE",
"186 0 LINE",
"7 700 LINE",
"113 700 LINE",
"226 229 LINE SMOOTH",
"242 164 OFFCURVE",
"247 85 OFFCURVE",
"247 85 CURVE",
"263 85 LINE",
"263 85 OFFCURVE",
"269 164 OFFCURVE",
"284 229 CURVE SMOOTH",
"391 700 LINE",
"527 700 LINE",
"634 229 LINE SMOOTH",
"649 164 OFFCURVE",
"655 85 OFFCURVE",
"655 85 CURVE",
"671 85 LINE",
"671 85 OFFCURVE",
"676 164 OFFCURVE",
"692 229 CURVE SMOOTH",
"805 700 LINE",
"911 700 LINE",
"732 0 LINE",
"595 0 LINE",
"488 461 LINE SMOOTH",
"473 526 OFFCURVE",
"467 605 OFFCURVE",
"467 605 CURVE",
"451 605 LINE",
"451 605 OFFCURVE",
"445 526 OFFCURVE",
"430 461 CURVE SMOOTH"
);
},
{
closed = 1;
nodes = (
"312 799 OFFCURVE",
"340 772 OFFCURVE",
"372 772 CURVE SMOOTH",
"405 772 OFFCURVE",
"432 799 OFFCURVE",
"432 832 CURVE SMOOTH",
"432 865 OFFCURVE",
"405 892 OFFCURVE",
"372 892 CURVE SMOOTH",
"340 892 OFFCURVE",
"312 865 OFFCURVE",
"312 832 CURVE SMOOTH"
);
},
{
closed = 1;
nodes = (
"615 799 OFFCURVE",
"587 772 OFFCURVE",
"555 772 CURVE SMOOTH",
"522 772 OFFCURVE",
"495 799 OFFCURVE",
"495 832 CURVE SMOOTH",
"495 865 OFFCURVE",
"522 892 OFFCURVE",
"555 892 CURVE SMOOTH",
"587 892 OFFCURVE",
"615 865 OFFCURVE",
"615 832 CURVE SMOOTH"
);
}
);
width = 918;
}
);
leftKerningGroup = V;
rightKerningGroup = V;
unicode = 1E84;
},
{
glyphname = Wgrave;
lastChange = "2017-06-07 13:43:09 +0000";
layers = (
{
hints = (
{
horizontal = 1;
place = "{917, -20}";
target = down;
type = TopGhost;
},
{
horizontal = 1;
place = "{0, 21}";
target = up;
type = BottomGhost;
},
{
horizontal = 1;
place = "{700, -20}";
target = down;
type = TopGhost;
},
{
horizontal = 1;
place = "{85, 21}";
target = up;
type = BottomGhost;
}
);
layerId = UUID0;
paths = (
{
closed = 1;
nodes = (
"323 0 LINE",
"186 0 LINE",
"7 700 LINE",
"113 700 LINE",
"226 229 LINE SMOOTH",
"242 164 OFFCURVE",
"247 85 OFFCURVE",
"247 85 CURVE",
"263 85 LINE",
"263 85 OFFCURVE",
"269 164 OFFCURVE",
"284 229 CURVE SMOOTH",
"391 700 LINE",
"527 700 LINE",
"634 229 LINE SMOOTH",
"649 164 OFFCURVE",
"655 85 OFFCURVE",
"655 85 CURVE",
"671 85 LINE",
"671 85 OFFCURVE",
"676 164 OFFCURVE",
"692 229 CURVE SMOOTH",
"805 700 LINE",
"911 700 LINE",
"732 0 LINE",
"595 0 LINE",
"488 461 LINE SMOOTH",
"473 526 OFFCURVE",
"467 605 OFFCURVE",
"467 605 CURVE",
"451 605 LINE",
"451 605 OFFCURVE",
"445 526 OFFCURVE",
"430 461 CURVE SMOOTH"
);
},
{
closed = 1;
nodes = (
"341 917 LINE",
"564 810 LINE",
"541 760 LINE",
"356 811 LINE SMOOTH",
"330 818 OFFCURVE",
"314 832 OFFCURVE",
"314 852 CURVE SMOOTH",
"314 857 OFFCURVE",
"315 861 OFFCURVE",
"318 867 CURVE SMOOTH"
);
}
);
width = 918;
}
);
leftKerningGroup = V;
rightKerningGroup = V;
unicode = 1E80;
},
{
glyphname = X;
lastChange = "2017-06-07 13:43:09 +0000";
layers = (
{
hints = (
{
horizontal = 1;
place = "{0, 21}";
target = up;
type = BottomGhost;
},
{
horizontal = 1;
place = "{700, -20}";
target = down;
type = TopGhost;
}
);
layerId = UUID0;
paths = (
{
closed = 1;
nodes = (
"302 280 LINE",
"302 280 OFFCURVE",
"323 232 OFFCURVE",
"361 163 CURVE SMOOTH",
"451 0 LINE",
"567 0 LINE",
"346 363 LINE",
"561 700 LINE",
"450 700 LINE",
"357 542 LINE SMOOTH",
"326 491 OFFCURVE",
"304 440 OFFCURVE",
"304 440 CURVE",
"288 440 LINE",
"288 440 OFFCURVE",
"267 489 OFFCURVE",
"239 542 CURVE SMOOTH",
"154 700 LINE",
"43 700 LINE",
"246 363 LINE",
"4 0 LINE",
"120 0 LINE",
"223 163 LINE SMOOTH",
"265 229 OFFCURVE",
"286 280 OFFCURVE",
"286 280 CURVE"
);
}
);
width = 581;
}
);
unicode = 0058;
},
{
glyphname = Y;
lastChange = "2017-06-07 13:43:09 +0000";
layers = (
{
hints = (
{
place = "{227, 98}";
},
{
horizontal = 1;
place = "{700, -20}";
target = down;
type = TopGhost;
},
{
horizontal = 1;
place = "{0, 21}";
target = up;
type = BottomGhost;
}
);
layerId = UUID0;
paths = (
{
closed = 1;
nodes = (
"316 429 LINE",
"293 382 OFFCURVE",
"284 323 OFFCURVE",
"284 323 CURVE",
"268 323 LINE",
"268 323 OFFCURVE",
"261 382 OFFCURVE",
"238 429 CURVE SMOOTH",
"109 700 LINE",
"3 700 LINE",
"227 263 LINE",
"227 0 LINE",
"325 0 LINE",
"325 263 LINE",
"557 700 LINE",
"451 700 LINE"
);
}
);
width = 560;
}
);
leftKerningGroup = Y;
rightKerningGroup = Y;
unicode = 0059;
},
{
glyphname = Yacute;
lastChange = "2017-06-07 13:43:09 +0000";
layers = (
{
hints = (
{
place = "{227, 98}";
},
{
horizontal = 1;
place = "{700, -20}";
target = down;
type = TopGhost;
},
{
horizontal = 1;
place = "{0, 21}";
target = up;
type = BottomGhost;
},
{
horizontal = 1;
place = "{917, -20}";
target = down;
type = TopGhost;
}
);
layerId = UUID0;
paths = (
{
closed = 1;
nodes = (
"316 429 LINE",
"293 382 OFFCURVE",
"284 323 OFFCURVE",
"284 323 CURVE",
"268 323 LINE",
"268 323 OFFCURVE",
"261 382 OFFCURVE",
"238 429 CURVE SMOOTH",
"109 700 LINE",
"3 700 LINE",
"227 263 LINE",
"227 0 LINE",
"325 0 LINE",
"325 263 LINE",
"557 700 LINE",
"451 700 LINE"
);
},
{
closed = 1;
nodes = (
"406 917 LINE",
"183 810 LINE",
"206 760 LINE",
"391 811 LINE SMOOTH",
"417 818 OFFCURVE",
"433 832 OFFCURVE",
"433 852 CURVE SMOOTH",
"433 857 OFFCURVE",
"432 861 OFFCURVE",
"429 867 CURVE SMOOTH"
);
}
);
width = 560;
}
);
leftKerningGroup = Y;
rightKerningGroup = Y;
unicode = 00DD;
},
{
glyphname = Ycircumflex;
lastChange = "2017-06-07 13:43:09 +0000";
layers = (
{
hints = (
{
place = "{227, 98}";
},
{
horizontal = 1;
place = "{898, -20}";
target = down;
type = TopGhost;
},
{
horizontal = 1;
place = "{700, -20}";
target = down;
type = TopGhost;
},
{
horizontal = 1;
place = "{0, 21}";
target = up;
type = BottomGhost;
}
);
layerId = UUID0;
paths = (
{
closed = 1;
nodes = (
"316 429 LINE",
"293 382 OFFCURVE",
"284 323 OFFCURVE",
"284 323 CURVE",
"268 323 LINE",
"268 323 OFFCURVE",
"261 382 OFFCURVE",
"238 429 CURVE SMOOTH",
"109 700 LINE",
"3 700 LINE",
"227 263 LINE",
"227 0 LINE",
"325 0 LINE",
"325 263 LINE",
"557 700 LINE",
"451 700 LINE"
);
},
{
closed = 1;
nodes = (
"231 898 LINE",
"324 898 LINE",
"449 770 LINE",
"413 738 LINE",
"277 836 LINE",
"142 738 LINE",
"106 770 LINE"
);
}
);
width = 560;
}
);
leftKerningGroup = Y;
rightKerningGroup = Y;
unicode = 0176;
},
{
glyphname = Ydieresis;
lastChange = "2017-06-07 13:43:09 +0000";
layers = (
{
hints = (
{
place = "{123, 120}";
},
{
place = "{227, 98}";
},
{
place = "{306, 120}";
},
{
horizontal = 1;
place = "{772, 120}";
},
{
horizontal = 1;
place = "{700, -20}";
target = down;
type = TopGhost;
},
{
horizontal = 1;
place = "{0, 21}";
target = up;
type = BottomGhost;
}
);
layerId = UUID0;
paths = (
{
closed = 1;
nodes = (
"316 429 LINE",
"293 382 OFFCURVE",
"284 323 OFFCURVE",
"284 323 CURVE",
"268 323 LINE",
"268 323 OFFCURVE",
"261 382 OFFCURVE",
"238 429 CURVE SMOOTH",
"109 700 LINE",
"3 700 LINE",
"227 263 LINE",
"227 0 LINE",
"325 0 LINE",
"325 263 LINE",
"557 700 LINE",
"451 700 LINE"
);
},
{
closed = 1;
nodes = (
"123 799 OFFCURVE",
"151 772 OFFCURVE",
"183 772 CURVE SMOOTH",
"216 772 OFFCURVE",
"243 799 OFFCURVE",
"243 832 CURVE SMOOTH",
"243 865 OFFCURVE",
"216 892 OFFCURVE",
"183 892 CURVE SMOOTH",
"151 892 OFFCURVE",
"123 865 OFFCURVE",
"123 832 CURVE SMOOTH"
);
},
{
closed = 1;
nodes = (
"426 799 OFFCURVE",
"398 772 OFFCURVE",
"366 772 CURVE SMOOTH",
"333 772 OFFCURVE",
"306 799 OFFCURVE",
"306 832 CURVE SMOOTH",
"306 865 OFFCURVE",
"333 892 OFFCURVE",
"366 892 CURVE SMOOTH",
"398 892 OFFCURVE",
"426 865 OFFCURVE",
"426 832 CURVE SMOOTH"
);
}
);
width = 560;
}
);
leftKerningGroup = Y;
rightKerningGroup = Y;
unicode = 0178;
},
{
glyphname = Ygrave;
lastChange = "2017-06-07 13:43:09 +0000";
layers = (
{
hints = (
{
place = "{227, 98}";
},
{
horizontal = 1;
place = "{917, -20}";
target = down;
type = TopGhost;
},
{
horizontal = 1;
place = "{700, -20}";
target = down;
type = TopGhost;
},
{
horizontal = 1;
place = "{0, 21}";
target = up;
type = BottomGhost;
}
);
layerId = UUID0;
paths = (
{
closed = 1;
nodes = (
"316 429 LINE",
"293 382 OFFCURVE",
"284 323 OFFCURVE",
"284 323 CURVE",
"268 323 LINE",
"268 323 OFFCURVE",
"261 382 OFFCURVE",
"238 429 CURVE SMOOTH",
"109 700 LINE",
"3 700 LINE",
"227 263 LINE",
"227 0 LINE",
"325 0 LINE",
"325 263 LINE",
"557 700 LINE",
"451 700 LINE"
);
},
{
closed = 1;
nodes = (
"166 917 LINE",
"389 810 LINE",
"366 760 LINE",
"181 811 LINE SMOOTH",
"155 818 OFFCURVE",
"139 832 OFFCURVE",
"139 852 CURVE SMOOTH",
"139 857 OFFCURVE",
"140 861 OFFCURVE",
"143 867 CURVE SMOOTH"
);
}
);
width = 560;
}
);
leftKerningGroup = Y;
rightKerningGroup = Y;
unicode = 1EF2;
},
{
glyphname = Z;
lastChange = "2017-06-07 13:43:09 +0000";
layers = (
{
hints = (
{
horizontal = 1;
place = "{0, 86}";
},
{
horizontal = 1;
place = "{618, 82}";
}
);
layerId = UUID0;
paths = (
{
closed = 1;
nodes = (
"117 82 LINE",
"117 82 OFFCURVE",
"163 128 OFFCURVE",
"195 175 CURVE SMOOTH",
"494 618 LINE",
"494 700 LINE",
"53 700 LINE",
"53 618 LINE",
"290 618 LINE SMOOTH",
"341 618 OFFCURVE",
"390 637 OFFCURVE",
"390 637 CURVE",
"399 621 LINE",
"399 621 OFFCURVE",
"353 576 OFFCURVE",
"321 529 CURVE SMOOTH",
"25 86 LINE",
"25 0 LINE",
"515 0 LINE",
"515 86 LINE",
"242 86 LINE SMOOTH",
"170 86 OFFCURVE",
"126 66 OFFCURVE",
"126 66 CURVE"
);
}
);
width = 545;
}
);
unicode = 005A;
},
{
glyphname = Zacute;
lastChange = "2017-06-07 13:43:09 +0000";
layers = (
{
hints = (
{
horizontal = 1;
place = "{0, 86}";
},
{
horizontal = 1;
place = "{618, 82}";
},
{
horizontal = 1;
place = "{917, -20}";
target = down;
type = TopGhost;
}
);
layerId = UUID0;
paths = (
{
closed = 1;
nodes = (
"117 82 LINE",
"117 82 OFFCURVE",
"163 128 OFFCURVE",
"195 175 CURVE SMOOTH",
"494 618 LINE",
"494 700 LINE",
"53 700 LINE",
"53 618 LINE",
"290 618 LINE SMOOTH",
"341 618 OFFCURVE",
"390 637 OFFCURVE",
"390 637 CURVE",
"399 621 LINE",
"399 621 OFFCURVE",
"353 576 OFFCURVE",
"321 529 CURVE SMOOTH",
"25 86 LINE",
"25 0 LINE",
"515 0 LINE",
"515 86 LINE",
"242 86 LINE SMOOTH",
"170 86 OFFCURVE",
"126 66 OFFCURVE",
"126 66 CURVE"
);
},
{
closed = 1;
nodes = (
"400 917 LINE",
"177 810 LINE",
"200 760 LINE",
"385 811 LINE SMOOTH",
"411 818 OFFCURVE",
"427 832 OFFCURVE",
"427 852 CURVE SMOOTH",
"427 857 OFFCURVE",
"426 861 OFFCURVE",
"423 867 CURVE SMOOTH"
);
}
);
width = 545;
}
);
unicode = 0179;
},
{
glyphname = Zcaron;
lastChange = "2017-06-07 13:43:09 +0000";
layers = (
{
hints = (
{
horizontal = 1;
place = "{0, 86}";
},
{
horizontal = 1;
place = "{618, 82}";
},
{
horizontal = 1;
place = "{700, 63}";
},
{
horizontal = 1;
place = "{923, -20}";
target = down;
type = TopGhost;
}
);
layerId = UUID0;
paths = (
{
closed = 1;
nodes = (
"117 82 LINE",
"117 82 OFFCURVE",
"163 128 OFFCURVE",
"195 175 CURVE SMOOTH",
"494 618 LINE",
"494 700 LINE",
"53 700 LINE",
"53 618 LINE",
"290 618 LINE SMOOTH",
"341 618 OFFCURVE",
"390 637 OFFCURVE",
"390 637 CURVE",
"399 621 LINE",
"399 621 OFFCURVE",
"353 576 OFFCURVE",
"321 529 CURVE SMOOTH",
"25 86 LINE",
"25 0 LINE",
"515 0 LINE",
"515 86 LINE",
"242 86 LINE SMOOTH",
"170 86 OFFCURVE",
"126 66 OFFCURVE",
"126 66 CURVE"
);
},
{
closed = 1;
nodes = (
"224 763 LINE",
"317 763 LINE",
"442 891 LINE",
"406 923 LINE",
"270 825 LINE",
"135 923 LINE",
"99 891 LINE"
);
}
);
width = 545;
}
);
unicode = 017D;
},
{
glyphname = Zdotaccent;
lastChange = "2017-06-07 13:43:09 +0000";
layers = (
{
hints = (
{
place = "{197, 142}";
},
{
horizontal = 1;
place = "{0, 86}";
},
{
horizontal = 1;
place = "{618, 82}";
},
{
horizontal = 1;
place = "{773, 142}";
}
);
layerId = UUID0;
paths = (
{
closed = 1;
nodes = (
"117 82 LINE",
"117 82 OFFCURVE",
"163 128 OFFCURVE",
"195 175 CURVE SMOOTH",
"494 618 LINE",
"494 700 LINE",
"53 700 LINE",
"53 618 LINE",
"290 618 LINE SMOOTH",
"341 618 OFFCURVE",
"390 637 OFFCURVE",
"390 637 CURVE",
"399 621 LINE",
"399 621 OFFCURVE",
"353 576 OFFCURVE",
"321 529 CURVE SMOOTH",
"25 86 LINE",
"25 0 LINE",
"515 0 LINE",
"515 86 LINE",
"242 86 LINE SMOOTH",
"170 86 OFFCURVE",
"126 66 OFFCURVE",
"126 66 CURVE"
);
},
{
closed = 1;
nodes = (
"197 805 OFFCURVE",
"229 773 OFFCURVE",
"268 773 CURVE SMOOTH",
"307 773 OFFCURVE",
"339 805 OFFCURVE",
"339 844 CURVE SMOOTH",
"339 883 OFFCURVE",
"307 915 OFFCURVE",
"268 915 CURVE SMOOTH",
"229 915 OFFCURVE",
"197 883 OFFCURVE",
"197 844 CURVE SMOOTH"
);
}
);
width = 545;
}
);
unicode = 017B;
},
{
glyphname = uni1E00;
lastChange = "2017-06-07 13:43:09 +0000";
layers = (
{
hints = (
{
place = "{217, 59}";
},
{
place = "{374, 59}";
},
{
horizontal = 1;
place = "{-245, 53}";
},
{
horizontal = 1;
place = "{-94, 53}";
},
{
horizontal = 1;
place = "{186, 82}";
},
{
horizontal = 1;
place = "{700, -20}";
target = down;
type = TopGhost;
},
{
horizontal = 1;
place = "{0, -20}";
target = down;
type = TopGhost;
}
);
layerId = UUID0;
paths = (
{
closed = 1;
nodes = (
"397 700 LINE",
"263 700 LINE",
"13 0 LINE",
"113 0 LINE",
"179 186 LINE",
"461 186 LINE",
"521 0 LINE",
"621 0 LINE"
);
},
{
closed = 1;
nodes = (
"273 451 LINE",
"299 524 OFFCURVE",
"320 615 OFFCURVE",
"320 615 CURVE",
"336 615 LINE",
"336 615 OFFCURVE",
"354 524 OFFCURVE",
"377 451 CURVE SMOOTH",
"435 268 LINE",
"208 268 LINE"
);
},
{
closed = 1;
nodes = (
"217 -204 OFFCURVE",
"265 -245 OFFCURVE",
"324 -245 CURVE SMOOTH",
"383 -245 OFFCURVE",
"433 -204 OFFCURVE",
"433 -144 CURVE SMOOTH",
"433 -84 OFFCURVE",
"383 -41 OFFCURVE",
"324 -41 CURVE SMOOTH",
"265 -41 OFFCURVE",
"217 -84 OFFCURVE",
"217 -144 CURVE SMOOTH"
);
},
{
closed = 1;
nodes = (
"276 -114 OFFCURVE",
"298 -94 OFFCURVE",
"324 -94 CURVE SMOOTH",
"351 -94 OFFCURVE",
"374 -114 OFFCURVE",
"374 -144 CURVE SMOOTH",
"374 -173 OFFCURVE",
"351 -192 OFFCURVE",
"324 -192 CURVE SMOOTH",
"298 -192 OFFCURVE",
"276 -173 OFFCURVE",
"276 -144 CURVE SMOOTH"
);
}
);
width = 634;
}
);
leftKerningGroup = A;
rightKerningGroup = A;
unicode = 1E00;
},
{
glyphname = uni1E3E;
lastChange = "2017-06-07 13:43:09 +0000";
layers = (
{
hints = (
{
place = "{91, 100}";
},
{
place = "{719, 100}";
},
{
horizontal = 1;
place = "{85, 21}";
target = up;
type = BottomGhost;
},
{
horizontal = 1;
place = "{700, -20}";
target = down;
type = TopGhost;
},
{
horizontal = 1;
place = "{0, 21}";
target = up;
type = BottomGhost;
},
{
horizontal = 1;
place = "{917, -20}";
target = down;
type = TopGhost;
}
);
layerId = UUID0;
paths = (
{
closed = 1;
nodes = (
"662 700 LINE",
"493 251 LINE SMOOTH",
"467 181 OFFCURVE",
"464 85 OFFCURVE",
"464 85 CURVE",
"446 85 LINE",
"446 85 OFFCURVE",
"443 181 OFFCURVE",
"417 251 CURVE SMOOTH",
"248 700 LINE",
"91 700 LINE",
"91 0 LINE",
"191 0 LINE",
"191 489 LINE SMOOTH",
"191 521 OFFCURVE",
"182 608 OFFCURVE",
"182 608 CURVE",
"198 611 LINE",
"198 611 OFFCURVE",
"218 526 OFFCURVE",
"235 480 CURVE SMOOTH",
"416 0 LINE",
"493 0 LINE",
"675 480 LINE SMOOTH",
"692 525 OFFCURVE",
"712 611 OFFCURVE",
"712 611 CURVE",
"728 608 LINE",
"728 608 OFFCURVE",
"719 521 OFFCURVE",
"719 489 CURVE SMOOTH",
"719 0 LINE",
"819 0 LINE",
"819 700 LINE"
);
},
{
closed = 1;
nodes = (
"561 917 LINE",
"338 810 LINE",
"361 760 LINE",
"546 811 LINE SMOOTH",
"572 818 OFFCURVE",
"588 832 OFFCURVE",
"588 852 CURVE SMOOTH",
"588 857 OFFCURVE",
"587 861 OFFCURVE",
"584 867 CURVE SMOOTH"
);
}
);
width = 910;
}
);
unicode = 1E3E;
},
{
glyphname = uni1EF4;
lastChange = "2017-06-07 13:43:09 +0000";
layers = (
{
hints = (
{
place = "{202, 142}";
},
{
place = "{227, 98}";
},
{
horizontal = 1;
place = "{-210, 142}";
},
{
horizontal = 1;
place = "{700, -20}";
target = down;
type = TopGhost;
},
{
horizontal = 1;
place = "{0, -20}";
target = down;
type = TopGhost;
}
);
layerId = UUID0;
paths = (
{
closed = 1;
nodes = (
"316 429 LINE",
"293 382 OFFCURVE",
"284 323 OFFCURVE",
"284 323 CURVE",
"268 323 LINE",
"268 323 OFFCURVE",
"261 382 OFFCURVE",
"238 429 CURVE SMOOTH",
"109 700 LINE",
"3 700 LINE",
"227 263 LINE",
"227 0 LINE",
"325 0 LINE",
"325 263 LINE",
"557 700 LINE",
"451 700 LINE"
);
},
{
closed = 1;
nodes = (
"202 -178 OFFCURVE",
"234 -210 OFFCURVE",
"273 -210 CURVE SMOOTH",
"312 -210 OFFCURVE",
"344 -178 OFFCURVE",
"344 -139 CURVE SMOOTH",
"344 -100 OFFCURVE",
"312 -68 OFFCURVE",
"273 -68 CURVE SMOOTH",
"234 -68 OFFCURVE",
"202 -100 OFFCURVE",
"202 -139 CURVE SMOOTH"
);
}
);
width = 560;
}
);
leftKerningGroup = Y;
rightKerningGroup = Y;
unicode = 1EF4;
},
{
glyphname = uni1EF6;
lastChange = "2017-06-07 13:43:09 +0000";
layers = (
{
hints = (
{
place = "{227, 98}";
},
{
place = "{255, 125}";
},
{
place = "{326, 54}";
},
{
horizontal = 1;
place = "{840, 41}";
},
{
horizontal = 1;
place = "{700, -20}";
target = down;
type = TopGhost;
},
{
horizontal = 1;
place = "{0, 21}";
target = up;
type = BottomGhost;
},
{
horizontal = 1;
place = "{752, -20}";
target = down;
type = TopGhost;
}
);
layerId = UUID0;
paths = (
{
closed = 1;
nodes = (
"316 429 LINE",
"293 382 OFFCURVE",
"284 323 OFFCURVE",
"284 323 CURVE",
"268 323 LINE",
"268 323 OFFCURVE",
"261 382 OFFCURVE",
"238 429 CURVE SMOOTH",
"109 700 LINE",
"3 700 LINE",
"227 263 LINE",
"227 0 LINE",
"325 0 LINE",
"325 263 LINE",
"557 700 LINE",
"451 700 LINE"
);
},
{
closed = 1;
nodes = (
"255 665 LINE",
"306 665 LINE",
"306 715 LINE",
"333 715 OFFCURVE",
"380 734 OFFCURVE",
"380 801 CURVE SMOOTH",
"380 854 OFFCURVE",
"340 881 OFFCURVE",
"292 881 CURVE SMOOTH",
"272 881 OFFCURVE",
"252 876 OFFCURVE",
"237 866 CURVE",
"249 833 LINE",
"259 838 OFFCURVE",
"268 840 OFFCURVE",
"282 840 CURVE SMOOTH",
"308 840 OFFCURVE",
"326 825 OFFCURVE",
"326 801 CURVE SMOOTH",
"326 771 OFFCURVE",
"309 752 OFFCURVE",
"281 752 CURVE SMOOTH",
"255 752 LINE"
);
}
);
width = 560;
}
);
leftKerningGroup = Y;
rightKerningGroup = Y;
unicode = 1EF6;
},
{
glyphname = uni1EF8;
lastChange = "2017-06-07 13:43:09 +0000";
layers = (
{
hints = (
{
place = "{227, 98}";
},
{
horizontal = 1;
place = "{773, 75}";
},
{
horizontal = 1;
place = "{814, 34}";
},
{
horizontal = 1;
place = "{814, 75}";
},
{
horizontal = 1;
place = "{700, -20}";
target = down;
type = TopGhost;
},
{
horizontal = 1;
place = "{0, 21}";
target = up;
type = BottomGhost;
}
);
layerId = UUID0;
paths = (
{
closed = 1;
nodes = (
"316 429 LINE",
"293 382 OFFCURVE",
"284 323 OFFCURVE",
"284 323 CURVE",
"268 323 LINE",
"268 323 OFFCURVE",
"261 382 OFFCURVE",
"238 429 CURVE SMOOTH",
"109 700 LINE",
"3 700 LINE",
"227 263 LINE",
"227 0 LINE",
"325 0 LINE",
"325 263 LINE",
"557 700 LINE",
"451 700 LINE"
);
},
{
closed = 1;
nodes = (
"393 773 OFFCURVE",
"432 793 OFFCURVE",
"460 850 CURVE",
"404 885 LINE",
"394 862 OFFCURVE",
"371 848 OFFCURVE",
"344 848 CURVE SMOOTH",
"306 848 OFFCURVE",
"270 889 OFFCURVE",
"211 889 CURVE SMOOTH",
"162 889 OFFCURVE",
"125 866 OFFCURVE",
"97 811 CURVE",
"152 775 LINE",
"170 800 OFFCURVE",
"180 814 OFFCURVE",
"216 814 CURVE SMOOTH",
"250 814 OFFCURVE",
"286 773 OFFCURVE",
"345 773 CURVE SMOOTH"
);
}
);
width = 560;
}
);
leftKerningGroup = Y;
rightKerningGroup = Y;
unicode = 1EF8;
},
{
glyphname = Bsmallcap;
lastChange = "2017-06-07 13:43:09 +0000";
layers = (
{
hints = (
{
place = "{100, 95}";
},
{
place = "{363, 93}";
},
{
place = "{398, 94}";
},
{
horizontal = 1;
place = "{0, 63}";
},
{
horizontal = 1;
place = "{253, 67}";
},
{
horizontal = 1;
place = "{484, 62}";
}
);
layerId = UUID0;
paths = (
{
closed = 1;
nodes = (
"255 0 LINE",
"397 0 OFFCURVE",
"492 39 OFFCURVE",
"492 158 CURVE SMOOTH",
"492 227 OFFCURVE",
"458 265 OFFCURVE",
"375 289 CURVE",
"375 301 LINE",
"433 324 OFFCURVE",
"456 369 OFFCURVE",
"456 408 CURVE SMOOTH",
"456 509 OFFCURVE",
"378 546 OFFCURVE",
"257 546 CURVE SMOOTH",
"100 546 LINE",
"100 0 LINE"
);
},
{
closed = 1;
nodes = (
"262 253 LINE",
"347 253 OFFCURVE",
"398 215 OFFCURVE",
"398 158 CURVE SMOOTH",
"398 77 OFFCURVE",
"340 63 OFFCURVE",
"255 63 CURVE SMOOTH",
"195 63 LINE",
"195 253 LINE"
);
},
{
closed = 1;
nodes = (
"363 345 OFFCURVE",
"314 320 OFFCURVE",
"248 320 CURVE SMOOTH",
"195 320 LINE",
"195 484 LINE",
"249 484 LINE SMOOTH",
"315 484 OFFCURVE",
"363 465 OFFCURVE",
"363 406 CURVE SMOOTH"
);
}
);
width = 547;
}
);
unicode = 0299;
},
{
glyphname = Gsmallcap;
lastChange = "2017-06-07 13:43:09 +0000";
layers = (
{
hints = (
{
place = "{60, 105}";
},
{
place = "{309, 204}";
},
{
place = "{417, 96}";
},
{
horizontal = 1;
place = "{-12, 76}";
},
{
horizontal = 1;
place = "{196, 78}";
},
{
horizontal = 1;
place = "{479, 79}";
},
{
horizontal = 1;
place = "{32, 21}";
target = up;
type = BottomGhost;
},
{
horizontal = 1;
place = "{-9, -20}";
target = down;
type = TopGhost;
}
);
layerId = UUID0;
paths = (
{
closed = 1;
nodes = (
"349 -12 OFFCURVE",
"405 1 OFFCURVE",
"433 32 CURVE",
"447 32 LINE",
"459 12 LINE SMOOTH",
"470 -5 OFFCURVE",
"482 -9 OFFCURVE",
"496 -9 CURVE SMOOTH",
"513 -9 LINE",
"513 274 LINE",
"309 274 LINE",
"309 196 LINE",
"417 196 LINE",
"417 107 LINE",
"399 83 OFFCURVE",
"368 64 OFFCURVE",
"319 64 CURVE SMOOTH",
"197 64 OFFCURVE",
"165 157 OFFCURVE",
"165 273 CURVE SMOOTH",
"165 387 OFFCURVE",
"200 479 OFFCURVE",
"330 479 CURVE SMOOTH",
"377 479 OFFCURVE",
"442 465 OFFCURVE",
"471 459 CURVE",
"479 535 LINE",
"451 544 OFFCURVE",
"399 558 OFFCURVE",
"330 558 CURVE SMOOTH",
"141 558 OFFCURVE",
"60 450 OFFCURVE",
"60 273 CURVE SMOOTH",
"60 100 OFFCURVE",
"135 -12 OFFCURVE",
"313 -12 CURVE SMOOTH"
);
}
);
width = 573;
}
);
unicode = 0262;
},
{
glyphname = Gsmallhook;
lastChange = "2017-06-07 13:43:09 +0000";
layers = (
{
hints = (
{
place = "{58, 105}";
},
{
place = "{307, 204}";
},
{
place = "{381, 97}";
},
{
place = "{415, 96}";
},
{
horizontal = 1;
place = "{-12, 76}";
},
{
horizontal = 1;
place = "{196, 78}";
},
{
horizontal = 1;
place = "{479, 79}";
},
{
horizontal = 1;
place = "{698, 68}";
},
{
horizontal = 1;
place = "{32, 21}";
target = up;
type = BottomGhost;
},
{
horizontal = 1;
place = "{-9, -20}";
target = down;
type = TopGhost;
}
);
layerId = UUID0;
paths = (
{
closed = 1;
nodes = (
"478 622 LINE SMOOTH",
"478 659 OFFCURVE",
"482 698 OFFCURVE",
"536 698 CURVE SMOOTH",
"557 698 OFFCURVE",
"574 693 OFFCURVE",
"585 689 CURVE",
"604 750 LINE",
"578 761 OFFCURVE",
"550 766 OFFCURVE",
"525 766 CURVE SMOOTH",
"423 766 OFFCURVE",
"381 705 OFFCURVE",
"381 623 CURVE SMOOTH",
"381 555 LINE",
"364 556 OFFCURVE",
"347 558 OFFCURVE",
"328 558 CURVE SMOOTH",
"139 558 OFFCURVE",
"58 450 OFFCURVE",
"58 273 CURVE SMOOTH",
"58 100 OFFCURVE",
"133 -12 OFFCURVE",
"311 -12 CURVE SMOOTH",
"347 -12 OFFCURVE",
"403 1 OFFCURVE",
"431 32 CURVE",
"445 32 LINE",
"457 12 LINE SMOOTH",
"468 -5 OFFCURVE",
"480 -9 OFFCURVE",
"494 -9 CURVE SMOOTH",
"511 -9 LINE",
"511 274 LINE",
"307 274 LINE",
"307 196 LINE",
"415 196 LINE",
"415 107 LINE",
"397 83 OFFCURVE",
"366 64 OFFCURVE",
"317 64 CURVE SMOOTH",
"195 64 OFFCURVE",
"163 157 OFFCURVE",
"163 273 CURVE SMOOTH",
"163 387 OFFCURVE",
"198 479 OFFCURVE",
"328 479 CURVE SMOOTH",
"375 479 OFFCURVE",
"449 464 OFFCURVE",
"478 457 CURVE"
);
}
);
width = 571;
}
);
unicode = 029B;
},
{
glyphname = Hsmallcap;
lastChange = "2017-06-07 13:43:09 +0000";
layers = (
{
hints = (
{
place = "{95, 100}";
},
{
place = "{457, 100}";
},
{
horizontal = 1;
place = "{234, 84}";
},
{
horizontal = 1;
place = "{0, 21}";
target = up;
type = BottomGhost;
},
{
horizontal = 1;
place = "{546, -20}";
target = down;
type = TopGhost;
}
);
layerId = UUID0;
paths = (
{
closed = 1;
nodes = (
"195 0 LINE",
"195 234 LINE",
"457 234 LINE",
"457 0 LINE",
"557 0 LINE",
"557 546 LINE",
"457 546 LINE",
"457 318 LINE",
"195 318 LINE",
"195 546 LINE",
"95 546 LINE",
"95 0 LINE"
);
}
);
width = 652;
}
);
unicode = 029C;
},
{
glyphname = Ismallcap;
lastChange = "2017-06-07 13:43:09 +0000";
layers = (
{
hints = (
{
place = "{34, 220}";
},
{
place = "{95, 98}";
},
{
horizontal = 1;
place = "{0, 63}";
},
{
horizontal = 1;
place = "{483, 63}";
}
);
layerId = UUID0;
paths = (
{
closed = 1;
nodes = (
"34 483 LINE",
"95 483 LINE",
"95 63 LINE",
"34 63 LINE",
"34 0 LINE",
"254 0 LINE",
"254 63 LINE",
"193 63 LINE",
"193 483 LINE",
"254 483 LINE",
"254 546 LINE",
"34 546 LINE"
);
}
);
width = 288;
}
);
unicode = 026A;
},
{
glyphname = Lsmallcap;
lastChange = "2017-06-07 13:43:09 +0000";
layers = (
{
hints = (
{
place = "{87, 100}";
},
{
horizontal = 1;
place = "{0, 86}";
},
{
horizontal = 1;
place = "{546, -20}";
target = down;
type = TopGhost;
}
);
layerId = UUID0;
paths = (
{
closed = 1;
nodes = (
"87 0 LINE",
"431 0 LINE",
"431 86 LINE",
"187 86 LINE",
"187 546 LINE",
"87 546 LINE"
);
}
);
width = 451;
}
);
rightKerningGroup = L;
unicode = 029F;
},
{
glyphname = Nsmallcap;
lastChange = "2017-06-07 13:43:09 +0000";
layers = (
{
hints = (
{
place = "{90, 97}";
},
{
place = "{460, 97}";
},
{
horizontal = 1;
place = "{0, 21}";
target = up;
type = BottomGhost;
},
{
horizontal = 1;
place = "{546, -20}";
target = down;
type = TopGhost;
}
);
layerId = UUID0;
paths = (
{
closed = 1;
nodes = (
"187 324 LINE",
"187 344 OFFCURVE",
"175 403 OFFCURVE",
"175 403 CURVE",
"188 406 LINE",
"188 406 OFFCURVE",
"203 352 OFFCURVE",
"227 324 CURVE SMOOTH",
"472 0 LINE",
"557 0 LINE",
"557 546 LINE",
"460 546 LINE",
"460 229 LINE SMOOTH",
"460 207 OFFCURVE",
"473 147 OFFCURVE",
"473 147 CURVE",
"458 145 LINE",
"458 145 OFFCURVE",
"442 202 OFFCURVE",
"417 232 CURVE SMOOTH",
"184 546 LINE",
"90 546 LINE",
"90 0 LINE",
"187 0 LINE"
);
}
);
width = 647;
}
);
unicode = 0274;
},
{
glyphname = OEsmallcap;
lastChange = "2017-06-07 13:43:09 +0000";
layers = (
{
hints = (
{
place = "{60, 107}";
},
{
place = "{412, 99}";
},
{
horizontal = 1;
place = "{-12, 76}";
},
{
horizontal = 1;
place = "{249, 82}";
},
{
horizontal = 1;
place = "{464, 82}";
},
{
horizontal = 1;
place = "{479, 67}";
},
{
horizontal = 1;
place = "{-12, 91}";
},
{
horizontal = 1;
place = "{555, -20}";
target = down;
type = TopGhost;
},
{
horizontal = 1;
place = "{-3, -20}";
target = down;
type = TopGhost;
}
);
layerId = UUID0;
paths = (
{
closed = 1;
nodes = (
"770 -3 LINE",
"770 79 LINE",
"511 79 LINE",
"511 249 LINE",
"745 249 LINE",
"745 331 LINE",
"511 331 LINE",
"511 464 LINE",
"770 464 LINE",
"770 546 LINE",
"412 546 LINE",
"412 545 LINE",
"386 552 OFFCURVE",
"356 555 OFFCURVE",
"324 555 CURVE SMOOTH",
"139 555 OFFCURVE",
"60 448 OFFCURVE",
"60 271 CURVE SMOOTH",
"60 99 OFFCURVE",
"134 -12 OFFCURVE",
"324 -12 CURVE SMOOTH",
"356 -12 OFFCURVE",
"386 -8 OFFCURVE",
"412 -2 CURVE",
"412 -3 LINE"
);
},
{
closed = 1;
nodes = (
"199 64 OFFCURVE",
"167 156 OFFCURVE",
"167 271 CURVE SMOOTH",
"167 387 OFFCURVE",
"199 479 OFFCURVE",
"325 479 CURVE SMOOTH",
"360 479 OFFCURVE",
"389 472 OFFCURVE",
"412 460 CURVE",
"412 82 LINE",
"389 70 OFFCURVE",
"360 64 OFFCURVE",
"325 64 CURVE SMOOTH"
);
}
);
width = 830;
}
);
unicode = 0276;
},
{
glyphname = Rsmallcap;
lastChange = "2017-06-07 13:43:09 +0000";
layers = (
{
hints = (
{
place = "{88, 95}";
},
{
place = "{376, 97}";
},
{
horizontal = 1;
place = "{210, 70}";
},
{
horizontal = 1;
place = "{476, 70}";
},
{
horizontal = 1;
place = "{0, 21}";
target = up;
type = BottomGhost;
}
);
layerId = UUID0;
paths = (
{
closed = 1;
nodes = (
"183 0 LINE",
"183 210 LINE",
"241 210 LINE SMOOTH",
"259 210 OFFCURVE",
"277 210 OFFCURVE",
"294 212 CURVE",
"417 0 LINE",
"523 0 LINE",
"379 233 LINE",
"436 257 OFFCURVE",
"473 303 OFFCURVE",
"473 383 CURVE SMOOTH",
"473 492 OFFCURVE",
"403 546 OFFCURVE",
"275 546 CURVE SMOOTH",
"88 546 LINE",
"88 0 LINE"
);
},
{
closed = 1;
nodes = (
"183 280 LINE",
"183 476 LINE",
"269 476 LINE SMOOTH",
"342 476 OFFCURVE",
"376 444 OFFCURVE",
"376 383 CURVE SMOOTH",
"376 310 OFFCURVE",
"329 280 OFFCURVE",
"255 280 CURVE SMOOTH"
);
}
);
width = 538;
}
);
unicode = 0280;
},
{
glyphname = Rsmallinverted;
lastChange = "2017-06-07 13:43:09 +0000";
layers = (
{
hints = (
{
place = "{88, 95}";
},
{
place = "{376, 97}";
},
{
horizontal = 1;
place = "{0, 70}";
},
{
horizontal = 1;
place = "{266, 70}";
},
{
horizontal = 1;
place = "{546, -20}";
target = down;
type = TopGhost;
}
);
layerId = UUID0;
paths = (
{
closed = 1;
nodes = (
"183 546 LINE",
"183 336 LINE",
"241 336 LINE SMOOTH",
"259 336 OFFCURVE",
"277 335 OFFCURVE",
"294 333 CURVE",
"417 546 LINE",
"523 546 LINE",
"379 313 LINE",
"436 288 OFFCURVE",
"473 242 OFFCURVE",
"473 163 CURVE SMOOTH",
"473 54 OFFCURVE",
"403 0 OFFCURVE",
"275 0 CURVE SMOOTH",
"88 0 LINE",
"88 546 LINE"
);
},
{
closed = 1;
nodes = (
"183 266 LINE",
"183 70 LINE",
"269 70 LINE SMOOTH",
"342 70 OFFCURVE",
"376 102 OFFCURVE",
"376 163 CURVE SMOOTH",
"376 236 OFFCURVE",
"329 266 OFFCURVE",
"255 266 CURVE SMOOTH"
);
}
);
width = 538;
}
);
unicode = 0281;
},
{
glyphname = Ysmallcap;
lastChange = "2017-06-07 13:43:09 +0000";
layers = (
{
hints = (
{
place = "{189, 95}";
},
{
horizontal = 1;
place = "{546, -20}";
target = down;
type = TopGhost;
},
{
horizontal = 1;
place = "{0, 21}";
target = up;
type = BottomGhost;
}
);
layerId = UUID0;
paths = (
{
closed = 1;
nodes = (
"270 349 LINE",
"250 312 OFFCURVE",
"243 272 OFFCURVE",
"243 272 CURVE",
"230 272 LINE",
"230 272 OFFCURVE",
"225 312 OFFCURVE",
"206 349 CURVE SMOOTH",
"103 546 LINE",
"3 546 LINE",
"189 205 LINE",
"189 0 LINE",
"284 0 LINE",
"284 205 LINE",
"477 546 LINE",
"378 546 LINE"
);
}
);
width = 480;
}
);
unicode = 028F;
},
{
glyphname = a;
lastChange = "2017-06-07 13:43:09 +0000";
layers = (
{
anchors = (
{
name = top;
position = "{285, 0}";
}
);
hints = (
{
place = "{57, 102}";
},
{
place = "{377, 99}";
},
{
horizontal = 1;
place = "{-12, 68}";
},
{
horizontal = 1;
place = "{247, 60}";
},
{
horizontal = 1;
place = "{460, 68}";
},
{
horizontal = 1;
place = "{58, 21}";
target = up;
type = BottomGhost;
}
);
layerId = UUID0;
paths = (
{
closed = 1;
nodes = (
"476 358 LINE",
"476 479 OFFCURVE",
"403 528 OFFCURVE",
"272 528 CURVE SMOOTH",
"223 528 OFFCURVE",
"142 515 OFFCURVE",
"96 497 CURVE",
"114 438 LINE",
"159 449 OFFCURVE",
"209 460 OFFCURVE",
"255 460 CURVE SMOOTH",
"352 460 OFFCURVE",
"377 426 OFFCURVE",
"377 349 CURVE SMOOTH",
"377 316 LINE",
"263 307 LINE SMOOTH",
"125 296 OFFCURVE",
"57 252 OFFCURVE",
"57 145 CURVE SMOOTH",
"57 41 OFFCURVE",
"124 -12 OFFCURVE",
"224 -12 CURVE SMOOTH",
"293 -12 OFFCURVE",
"336 12 OFFCURVE",
"371 58 CURVE",
"387 58 LINE",
"402 31 LINE SMOOTH",
"421 -3 OFFCURVE",
"437 -11 OFFCURVE",
"475 -12 CURVE SMOOTH",
"493 -12 OFFCURVE",
"500 -7 OFFCURVE",
"500 -7 CURVE",
"514 53 LINE",
"481 63 OFFCURVE",
"476 80 OFFCURVE",
"476 123 CURVE SMOOTH"
);
},
{
closed = 1;
nodes = (
"377 165 LINE",
"377 80 OFFCURVE",
"313 56 OFFCURVE",
"253 56 CURVE SMOOTH",
"195 56 OFFCURVE",
"159 84 OFFCURVE",
"159 150 CURVE SMOOTH",
"159 208 OFFCURVE",
"198 241 OFFCURVE",
"281 247 CURVE SMOOTH",
"377 254 LINE"
);
}
);
width = 564;
}
);
leftKerningGroup = a;
rightKerningGroup = a;
unicode = 0061;
},
{
glyphname = aacute;
lastChange = "2017-06-07 13:43:09 +0000";
layers = (
{
hints = (
{
place = "{57, 102}";
},
{
place = "{377, 99}";
},
{
horizontal = 1;
place = "{-12, 68}";
},
{
horizontal = 1;
place = "{247, 60}";
},
{
horizontal = 1;
place = "{460, 68}";
},
{
horizontal = 1;
place = "{58, 21}";
target = up;
type = BottomGhost;
},
{
horizontal = 1;
place = "{777, -20}";
target = down;
type = TopGhost;
}
);
layerId = UUID0;
paths = (
{
closed = 1;
nodes = (
"476 358 LINE",
"476 479 OFFCURVE",
"403 528 OFFCURVE",
"272 528 CURVE SMOOTH",
"223 528 OFFCURVE",
"142 515 OFFCURVE",
"96 497 CURVE",
"114 438 LINE",
"159 449 OFFCURVE",
"209 460 OFFCURVE",
"255 460 CURVE SMOOTH",
"352 460 OFFCURVE",
"377 426 OFFCURVE",
"377 349 CURVE SMOOTH",
"377 316 LINE",
"263 307 LINE SMOOTH",
"125 296 OFFCURVE",
"57 252 OFFCURVE",
"57 145 CURVE SMOOTH",
"57 41 OFFCURVE",
"124 -12 OFFCURVE",
"224 -12 CURVE SMOOTH",
"293 -12 OFFCURVE",
"336 12 OFFCURVE",
"371 58 CURVE",
"387 58 LINE",
"402 31 LINE SMOOTH",
"421 -3 OFFCURVE",
"437 -11 OFFCURVE",
"475 -12 CURVE SMOOTH",
"493 -12 OFFCURVE",
"500 -7 OFFCURVE",
"500 -7 CURVE",
"514 53 LINE",
"481 63 OFFCURVE",
"476 80 OFFCURVE",
"476 123 CURVE SMOOTH"
);
},
{
closed = 1;
nodes = (
"377 165 LINE",
"377 80 OFFCURVE",
"313 56 OFFCURVE",
"253 56 CURVE SMOOTH",
"195 56 OFFCURVE",
"159 84 OFFCURVE",
"159 150 CURVE SMOOTH",
"159 208 OFFCURVE",
"198 241 OFFCURVE",
"281 247 CURVE SMOOTH",
"377 254 LINE"
);
},
{
closed = 1;
nodes = (
"363 777 LINE",
"163 632 LINE",
"194 587 LINE",
"368 669 LINE SMOOTH",
"388 678 OFFCURVE",
"402 694 OFFCURVE",
"402 711 CURVE SMOOTH",
"402 718 OFFCURVE",
"400 725 OFFCURVE",
"395 732 CURVE SMOOTH"
);
}
);
width = 564;
}
);
leftKerningGroup = a;
rightKerningGroup = a;
unicode = 00E1;
},
{
glyphname = abreve;
lastChange = "2017-06-07 13:43:09 +0000";
layers = (
{
hints = (
{
place = "{57, 102}";
},
{
place = "{377, 99}";
},
{
horizontal = 1;
place = "{-12, 68}";
},
{
horizontal = 1;
place = "{247, 60}";
},
{
horizontal = 1;
place = "{460, 68}";
},
{
horizontal = 1;
place = "{605, 64}";
},
{
horizontal = 1;
place = "{58, 21}";
target = up;
type = BottomGhost;
},
{
horizontal = 1;
place = "{761, -20}";
target = down;
type = TopGhost;
}
);
layerId = UUID0;
paths = (
{
closed = 1;
nodes = (
"476 358 LINE",
"476 479 OFFCURVE",
"403 528 OFFCURVE",
"272 528 CURVE SMOOTH",
"223 528 OFFCURVE",
"142 515 OFFCURVE",
"96 497 CURVE",
"114 438 LINE",
"159 449 OFFCURVE",
"209 460 OFFCURVE",
"255 460 CURVE SMOOTH",
"352 460 OFFCURVE",
"377 426 OFFCURVE",
"377 349 CURVE SMOOTH",
"377 316 LINE",
"263 307 LINE SMOOTH",
"125 296 OFFCURVE",
"57 252 OFFCURVE",
"57 145 CURVE SMOOTH",
"57 41 OFFCURVE",
"124 -12 OFFCURVE",
"224 -12 CURVE SMOOTH",
"293 -12 OFFCURVE",
"336 12 OFFCURVE",
"371 58 CURVE",
"387 58 LINE",
"402 31 LINE SMOOTH",
"421 -3 OFFCURVE",
"437 -11 OFFCURVE",
"475 -12 CURVE SMOOTH",
"493 -12 OFFCURVE",
"500 -7 OFFCURVE",
"500 -7 CURVE",
"514 53 LINE",
"481 63 OFFCURVE",
"476 80 OFFCURVE",
"476 123 CURVE SMOOTH"
);
},
{
closed = 1;
nodes = (
"377 165 LINE",
"377 80 OFFCURVE",
"313 56 OFFCURVE",
"253 56 CURVE SMOOTH",
"195 56 OFFCURVE",
"159 84 OFFCURVE",
"159 150 CURVE SMOOTH",
"159 208 OFFCURVE",
"198 241 OFFCURVE",
"281 247 CURVE SMOOTH",
"377 254 LINE"
);
},
{
closed = 1;
nodes = (
"409 761 LINE",
"399 684 OFFCURVE",
"364 669 OFFCURVE",
"284 669 CURVE SMOOTH",
"204 669 OFFCURVE",
"169 684 OFFCURVE",
"159 761 CURVE",
"102 752 LINE",
"102 653 OFFCURVE",
"164 605 OFFCURVE",
"284 605 CURVE SMOOTH",
"404 605 OFFCURVE",
"466 653 OFFCURVE",
"466 752 CURVE"
);
}
);
width = 564;
}
);
leftKerningGroup = a;
rightKerningGroup = a;
unicode = 0103;
},
{
glyphname = acircumflex;
lastChange = "2017-06-07 13:43:09 +0000";
layers = (
{
hints = (
{
place = "{57, 102}";
},
{
place = "{377, 99}";
},
{
horizontal = 1;
place = "{-12, 68}";
},
{
horizontal = 1;
place = "{247, 60}";
},
{
horizontal = 1;
place = "{460, 68}";
},
{
horizontal = 1;
place = "{528, 231}";
},
{
horizontal = 1;
place = "{307, 153}";
},
{
horizontal = 1;
place = "{56, 191}";
},
{
horizontal = 1;
place = "{58, 21}";
target = up;
type = BottomGhost;
}
);
layerId = UUID0;
paths = (
{
closed = 1;
nodes = (
"476 358 LINE",
"476 479 OFFCURVE",
"403 528 OFFCURVE",
"272 528 CURVE SMOOTH",
"223 528 OFFCURVE",
"142 515 OFFCURVE",
"96 497 CURVE",
"114 438 LINE",
"159 449 OFFCURVE",
"209 460 OFFCURVE",
"255 460 CURVE SMOOTH",
"352 460 OFFCURVE",
"377 426 OFFCURVE",
"377 349 CURVE SMOOTH",
"377 316 LINE",
"263 307 LINE SMOOTH",
"125 296 OFFCURVE",
"57 252 OFFCURVE",
"57 145 CURVE SMOOTH",
"57 41 OFFCURVE",
"124 -12 OFFCURVE",
"224 -12 CURVE SMOOTH",
"293 -12 OFFCURVE",
"336 12 OFFCURVE",
"371 58 CURVE",
"387 58 LINE",
"402 31 LINE SMOOTH",
"421 -3 OFFCURVE",
"437 -11 OFFCURVE",
"475 -12 CURVE SMOOTH",
"493 -12 OFFCURVE",
"500 -7 OFFCURVE",
"500 -7 CURVE",
"514 53 LINE",
"481 63 OFFCURVE",
"476 80 OFFCURVE",
"476 123 CURVE SMOOTH"
);
},
{
closed = 1;
nodes = (
"377 165 LINE",
"377 80 OFFCURVE",
"313 56 OFFCURVE",
"253 56 CURVE SMOOTH",
"195 56 OFFCURVE",
"159 84 OFFCURVE",
"159 150 CURVE SMOOTH",
"159 208 OFFCURVE",
"198 241 OFFCURVE",
"281 247 CURVE SMOOTH",
"377 254 LINE"
);
},
{
closed = 1;
nodes = (
"238 759 LINE",
"331 759 LINE",
"456 611 LINE",
"420 579 LINE",
"284 692 LINE",
"149 579 LINE",
"113 611 LINE"
);
}
);
width = 564;
}
);
leftKerningGroup = a;
rightKerningGroup = a;
unicode = 00E2;
},
{
glyphname = adieresis;
lastChange = "2017-06-07 13:43:09 +0000";
layers = (
{
hints = (
{
place = "{57, 102}";
},
{
place = "{118, 120}";
},
{
place = "{377, 99}";
},
{
place = "{118, 214}";
},
{
horizontal = 1;
place = "{-12, 68}";
},
{
horizontal = 1;
place = "{247, 60}";
},
{
horizontal = 1;
place = "{460, 68}";
},
{
horizontal = 1;
place = "{608, 120}";
},
{
horizontal = 1;
place = "{460, 148}";
},
{
horizontal = 1;
place = "{58, 21}";
target = up;
type = BottomGhost;
}
);
layerId = UUID0;
paths = (
{
closed = 1;
nodes = (
"476 358 LINE",
"476 479 OFFCURVE",
"403 528 OFFCURVE",
"272 528 CURVE SMOOTH",
"223 528 OFFCURVE",
"142 515 OFFCURVE",
"96 497 CURVE",
"114 438 LINE",
"159 449 OFFCURVE",
"209 460 OFFCURVE",
"255 460 CURVE SMOOTH",
"352 460 OFFCURVE",
"377 426 OFFCURVE",
"377 349 CURVE SMOOTH",
"377 316 LINE",
"263 307 LINE SMOOTH",
"125 296 OFFCURVE",
"57 252 OFFCURVE",
"57 145 CURVE SMOOTH",
"57 41 OFFCURVE",
"124 -12 OFFCURVE",
"224 -12 CURVE SMOOTH",
"293 -12 OFFCURVE",
"336 12 OFFCURVE",
"371 58 CURVE",
"387 58 LINE",
"402 31 LINE SMOOTH",
"421 -3 OFFCURVE",
"437 -11 OFFCURVE",
"475 -12 CURVE SMOOTH",
"493 -12 OFFCURVE",
"500 -7 OFFCURVE",
"500 -7 CURVE",
"514 53 LINE",
"481 63 OFFCURVE",
"476 80 OFFCURVE",
"476 123 CURVE SMOOTH"
);
},
{
closed = 1;
nodes = (
"377 165 LINE",
"377 80 OFFCURVE",
"313 56 OFFCURVE",
"253 56 CURVE SMOOTH",
"195 56 OFFCURVE",
"159 84 OFFCURVE",
"159 150 CURVE SMOOTH",
"159 208 OFFCURVE",
"198 241 OFFCURVE",
"281 247 CURVE SMOOTH",
"377 254 LINE"
);
},
{
closed = 1;
nodes = (
"118 635 OFFCURVE",
"146 608 OFFCURVE",
"178 608 CURVE SMOOTH",
"211 608 OFFCURVE",
"238 635 OFFCURVE",
"238 668 CURVE SMOOTH",
"238 701 OFFCURVE",
"211 728 OFFCURVE",
"178 728 CURVE SMOOTH",
"146 728 OFFCURVE",
"118 701 OFFCURVE",
"118 668 CURVE SMOOTH"
);
},
{
closed = 1;
nodes = (
"452 635 OFFCURVE",
"424 608 OFFCURVE",
"392 608 CURVE SMOOTH",
"359 608 OFFCURVE",
"332 635 OFFCURVE",
"332 668 CURVE SMOOTH",
"332 701 OFFCURVE",
"359 728 OFFCURVE",
"392 728 CURVE SMOOTH",
"424 728 OFFCURVE",
"452 701 OFFCURVE",
"452 668 CURVE SMOOTH"
);
}
);
width = 564;
}
);
leftKerningGroup = a;
rightKerningGroup = a;
unicode = 00E4;
},
{
glyphname = agrave;
lastChange = "2017-06-07 13:43:09 +0000";
layers = (
{
hints = (
{
place = "{57, 102}";
},
{
place = "{377, 99}";
},
{
horizontal = 1;
place = "{-12, 68}";
},
{
horizontal = 1;
place = "{247, 60}";
},
{
horizontal = 1;
place = "{460, 68}";
},
{
horizontal = 1;
place = "{778, -20}";
target = down;
type = TopGhost;
},
{
horizontal = 1;
place = "{58, 21}";
target = up;
type = BottomGhost;
}
);
layerId = UUID0;
paths = (
{
closed = 1;
nodes = (
"476 358 LINE",
"476 479 OFFCURVE",
"403 528 OFFCURVE",
"272 528 CURVE SMOOTH",
"223 528 OFFCURVE",
"142 515 OFFCURVE",
"96 497 CURVE",
"114 438 LINE",
"159 449 OFFCURVE",
"209 460 OFFCURVE",
"255 460 CURVE SMOOTH",
"352 460 OFFCURVE",
"377 426 OFFCURVE",
"377 349 CURVE SMOOTH",
"377 316 LINE",
"263 307 LINE SMOOTH",
"125 296 OFFCURVE",
"57 252 OFFCURVE",
"57 145 CURVE SMOOTH",
"57 41 OFFCURVE",
"124 -12 OFFCURVE",
"224 -12 CURVE SMOOTH",
"293 -12 OFFCURVE",
"336 12 OFFCURVE",
"371 58 CURVE",
"387 58 LINE",
"402 31 LINE SMOOTH",
"421 -3 OFFCURVE",
"437 -11 OFFCURVE",
"475 -12 CURVE SMOOTH",
"493 -12 OFFCURVE",
"500 -7 OFFCURVE",
"500 -7 CURVE",
"514 53 LINE",
"481 63 OFFCURVE",
"476 80 OFFCURVE",
"476 123 CURVE SMOOTH"
);
},
{
closed = 1;
nodes = (
"377 165 LINE",
"377 80 OFFCURVE",
"313 56 OFFCURVE",
"253 56 CURVE SMOOTH",
"195 56 OFFCURVE",
"159 84 OFFCURVE",
"159 150 CURVE SMOOTH",
"159 208 OFFCURVE",
"198 241 OFFCURVE",
"281 247 CURVE SMOOTH",
"377 254 LINE"
);
},
{
closed = 1;
nodes = (
"185 778 LINE",
"385 633 LINE",
"354 588 LINE",
"180 670 LINE SMOOTH",
"160 679 OFFCURVE",
"146 695 OFFCURVE",
"146 712 CURVE SMOOTH",
"146 719 OFFCURVE",
"148 726 OFFCURVE",
"153 733 CURVE SMOOTH"
);
}
);
width = 564;
}
);
leftKerningGroup = a;
rightKerningGroup = a;
unicode = 00E0;
},
{
glyphname = amacron;
lastChange = "2017-06-07 13:43:09 +0000";
layers = (
{
hints = (
{
place = "{57, 102}";
},
{
place = "{377, 99}";
},
{
horizontal = 1;
place = "{-12, 68}";
},
{
horizontal = 1;
place = "{247, 60}";
},
{
horizontal = 1;
place = "{460, 68}";
},
{
horizontal = 1;
place = "{637, 69}";
},
{
horizontal = 1;
place = "{58, 21}";
target = up;
type = BottomGhost;
}
);
layerId = UUID0;
paths = (
{
closed = 1;
nodes = (
"476 358 LINE",
"476 479 OFFCURVE",
"403 528 OFFCURVE",
"272 528 CURVE SMOOTH",
"223 528 OFFCURVE",
"142 515 OFFCURVE",
"96 497 CURVE",
"114 438 LINE",
"159 449 OFFCURVE",
"209 460 OFFCURVE",
"255 460 CURVE SMOOTH",
"352 460 OFFCURVE",
"377 426 OFFCURVE",
"377 349 CURVE SMOOTH",
"377 316 LINE",
"263 307 LINE SMOOTH",
"125 296 OFFCURVE",
"57 252 OFFCURVE",
"57 145 CURVE SMOOTH",
"57 41 OFFCURVE",
"124 -12 OFFCURVE",
"224 -12 CURVE SMOOTH",
"293 -12 OFFCURVE",
"336 12 OFFCURVE",
"371 58 CURVE",
"387 58 LINE",
"402 31 LINE SMOOTH",
"421 -3 OFFCURVE",
"437 -11 OFFCURVE",
"475 -12 CURVE SMOOTH",
"493 -12 OFFCURVE",
"500 -7 OFFCURVE",
"500 -7 CURVE",
"514 53 LINE",
"481 63 OFFCURVE",
"476 80 OFFCURVE",
"476 123 CURVE SMOOTH"
);
},
{
closed = 1;
nodes = (
"377 165 LINE",
"377 80 OFFCURVE",
"313 56 OFFCURVE",
"253 56 CURVE SMOOTH",
"195 56 OFFCURVE",
"159 84 OFFCURVE",
"159 150 CURVE SMOOTH",
"159 208 OFFCURVE",
"198 241 OFFCURVE",
"281 247 CURVE SMOOTH",
"377 254 LINE"
);
},
{
closed = 1;
nodes = (
"126 637 LINE",
"440 637 LINE",
"440 706 LINE",
"126 706 LINE"
);
}
);
width = 564;
}
);
leftKerningGroup = a;
rightKerningGroup = a;
unicode = 0101;
},
{
glyphname = aogonek;
lastChange = "2017-06-07 13:43:09 +0000";
layers = (
{
hints = (
{
place = "{57, 102}";
},
{
place = "{334, 67}";
},
{
place = "{377, 99}";
},
{
horizontal = 1;
place = "{-220, 55}";
},
{
horizontal = 1;
place = "{-12, 68}";
},
{
horizontal = 1;
place = "{247, 60}";
},
{
horizontal = 1;
place = "{460, 68}";
},
{
horizontal = 1;
place = "{58, 21}";
target = up;
type = BottomGhost;
}
);
layerId = UUID0;
paths = (
{
closed = 1;
nodes = (
"476 358 LINE",
"476 479 OFFCURVE",
"403 528 OFFCURVE",
"272 528 CURVE SMOOTH",
"223 528 OFFCURVE",
"142 515 OFFCURVE",
"96 497 CURVE",
"114 438 LINE",
"159 449 OFFCURVE",
"209 460 OFFCURVE",
"255 460 CURVE SMOOTH",
"352 460 OFFCURVE",
"377 426 OFFCURVE",
"377 349 CURVE SMOOTH",
"377 316 LINE",
"263 307 LINE SMOOTH",
"125 296 OFFCURVE",
"57 252 OFFCURVE",
"57 145 CURVE SMOOTH",
"57 41 OFFCURVE",
"124 -12 OFFCURVE",
"224 -12 CURVE SMOOTH",
"293 -12 OFFCURVE",
"336 12 OFFCURVE",
"371 58 CURVE",
"387 58 LINE",
"402 31 LINE SMOOTH",
"408 20 OFFCURVE",
"413 12 OFFCURVE",
"419 6 CURVE",
"364 -33 OFFCURVE",
"334 -71 OFFCURVE",
"334 -118 CURVE SMOOTH",
"334 -173 OFFCURVE",
"367 -220 OFFCURVE",
"445 -220 CURVE SMOOTH",
"485 -220 OFFCURVE",
"509 -206 OFFCURVE",
"526 -196 CURVE",
"497 -151 LINE",
"485 -159 OFFCURVE",
"469 -165 OFFCURVE",
"449 -165 CURVE SMOOTH",
"424 -165 OFFCURVE",
"401 -149 OFFCURVE",
"401 -118 CURVE SMOOTH",
"401 -79 OFFCURVE",
"441 -39 OFFCURVE",
"495 -9 CURVE SMOOTH",
"498 -8 OFFCURVE",
"500 -7 OFFCURVE",
"500 -7 CURVE",
"514 53 LINE",
"481 63 OFFCURVE",
"476 80 OFFCURVE",
"476 123 CURVE SMOOTH"
);
},
{
closed = 1;
nodes = (
"377 165 LINE",
"377 80 OFFCURVE",
"313 56 OFFCURVE",
"253 56 CURVE SMOOTH",
"195 56 OFFCURVE",
"159 84 OFFCURVE",
"159 150 CURVE SMOOTH",
"159 208 OFFCURVE",
"198 241 OFFCURVE",
"281 247 CURVE SMOOTH",
"377 254 LINE"
);
}
);
width = 564;
}
);
leftKerningGroup = a;
rightKerningGroup = a;
unicode = 0105;
},
{
glyphname = aring;
lastChange = "2017-06-07 13:43:09 +0000";
layers = (
{
hints = (
{
place = "{57, 102}";
},
{
place = "{174, 59}";
},
{
place = "{331, 59}";
},
{
place = "{377, 99}";
},
{
horizontal = 1;
place = "{-12, 68}";
},
{
horizontal = 1;
place = "{247, 60}";
},
{
horizontal = 1;
place = "{460, 68}";
},
{
horizontal = 1;
place = "{568, 53}";
},
{
horizontal = 1;
place = "{719, 53}";
},
{
horizontal = 1;
place = "{58, 21}";
target = up;
type = BottomGhost;
}
);
layerId = UUID0;
paths = (
{
closed = 1;
nodes = (
"476 358 LINE",
"476 479 OFFCURVE",
"403 528 OFFCURVE",
"272 528 CURVE SMOOTH",
"223 528 OFFCURVE",
"142 515 OFFCURVE",
"96 497 CURVE",
"114 438 LINE",
"159 449 OFFCURVE",
"209 460 OFFCURVE",
"255 460 CURVE SMOOTH",
"352 460 OFFCURVE",
"377 426 OFFCURVE",
"377 349 CURVE SMOOTH",
"377 316 LINE",
"263 307 LINE SMOOTH",
"125 296 OFFCURVE",
"57 252 OFFCURVE",
"57 145 CURVE SMOOTH",
"57 41 OFFCURVE",
"124 -12 OFFCURVE",
"224 -12 CURVE SMOOTH",
"293 -12 OFFCURVE",
"336 12 OFFCURVE",
"371 58 CURVE",
"387 58 LINE",
"402 31 LINE SMOOTH",
"421 -3 OFFCURVE",
"437 -11 OFFCURVE",
"475 -12 CURVE SMOOTH",
"493 -12 OFFCURVE",
"500 -7 OFFCURVE",
"500 -7 CURVE",
"514 53 LINE",
"481 63 OFFCURVE",
"476 80 OFFCURVE",
"476 123 CURVE SMOOTH"
);
},
{
closed = 1;
nodes = (
"377 165 LINE",
"377 80 OFFCURVE",
"313 56 OFFCURVE",
"253 56 CURVE SMOOTH",
"195 56 OFFCURVE",
"159 84 OFFCURVE",
"159 150 CURVE SMOOTH",
"159 208 OFFCURVE",
"198 241 OFFCURVE",
"281 247 CURVE SMOOTH",
"377 254 LINE"
);
},
{
closed = 1;
nodes = (
"174 609 OFFCURVE",
"222 568 OFFCURVE",
"281 568 CURVE SMOOTH",
"340 568 OFFCURVE",
"390 609 OFFCURVE",
"390 669 CURVE SMOOTH",
"390 729 OFFCURVE",
"340 772 OFFCURVE",
"281 772 CURVE SMOOTH",
"222 772 OFFCURVE",
"174 729 OFFCURVE",
"174 669 CURVE SMOOTH"
);
},
{
closed = 1;
nodes = (
"233 699 OFFCURVE",
"255 719 OFFCURVE",
"281 719 CURVE SMOOTH",
"308 719 OFFCURVE",
"331 699 OFFCURVE",
"331 669 CURVE SMOOTH",
"331 640 OFFCURVE",
"308 621 OFFCURVE",
"281 621 CURVE SMOOTH",
"255 621 OFFCURVE",
"233 640 OFFCURVE",
"233 669 CURVE SMOOTH"
);
}
);
width = 564;
}
);
leftKerningGroup = a;
rightKerningGroup = a;
unicode = 00E5;
},
{
glyphname = aringacute;
lastChange = "2017-06-07 13:43:09 +0000";
layers = (
{
hints = (
{
place = "{57, 102}";
},
{
place = "{174, 59}";
},
{
place = "{331, 59}";
},
{
place = "{377, 99}";
},
{
horizontal = 1;
place = "{-12, 68}";
},
{
horizontal = 1;
place = "{247, 60}";
},
{
horizontal = 1;
place = "{460, 68}";
},
{
horizontal = 1;
place = "{568, 53}";
},
{
horizontal = 1;
place = "{719, 53}";
},
{
horizontal = 1;
place = "{58, 21}";
target = up;
type = BottomGhost;
},
{
horizontal = 1;
place = "{1014, -20}";
target = down;
type = TopGhost;
}
);
layerId = UUID0;
paths = (
{
closed = 1;
nodes = (
"476 358 LINE",
"476 479 OFFCURVE",
"403 528 OFFCURVE",
"272 528 CURVE SMOOTH",
"223 528 OFFCURVE",
"142 515 OFFCURVE",
"96 497 CURVE",
"114 438 LINE",
"159 449 OFFCURVE",
"209 460 OFFCURVE",
"255 460 CURVE SMOOTH",
"352 460 OFFCURVE",
"377 426 OFFCURVE",
"377 349 CURVE SMOOTH",
"377 316 LINE",
"263 307 LINE SMOOTH",
"125 296 OFFCURVE",
"57 252 OFFCURVE",
"57 145 CURVE SMOOTH",
"57 41 OFFCURVE",
"124 -12 OFFCURVE",
"224 -12 CURVE SMOOTH",
"293 -12 OFFCURVE",
"336 12 OFFCURVE",
"371 58 CURVE",
"387 58 LINE",
"402 31 LINE SMOOTH",
"421 -3 OFFCURVE",
"437 -11 OFFCURVE",
"475 -12 CURVE SMOOTH",
"493 -12 OFFCURVE",
"500 -7 OFFCURVE",
"500 -7 CURVE",
"514 53 LINE",
"481 63 OFFCURVE",
"476 80 OFFCURVE",
"476 123 CURVE SMOOTH"
);
},
{
closed = 1;
nodes = (
"377 165 LINE",
"377 80 OFFCURVE",
"313 56 OFFCURVE",
"253 56 CURVE SMOOTH",
"195 56 OFFCURVE",
"159 84 OFFCURVE",
"159 150 CURVE SMOOTH",
"159 208 OFFCURVE",
"198 241 OFFCURVE",
"281 247 CURVE SMOOTH",
"377 254 LINE"
);
},
{
closed = 1;
nodes = (
"174 609 OFFCURVE",
"222 568 OFFCURVE",
"281 568 CURVE SMOOTH",
"340 568 OFFCURVE",
"390 609 OFFCURVE",
"390 669 CURVE SMOOTH",
"390 729 OFFCURVE",
"340 772 OFFCURVE",
"281 772 CURVE SMOOTH",
"222 772 OFFCURVE",
"174 729 OFFCURVE",
"174 669 CURVE SMOOTH"
);
},
{
closed = 1;
nodes = (
"233 699 OFFCURVE",
"255 719 OFFCURVE",
"281 719 CURVE SMOOTH",
"308 719 OFFCURVE",
"331 699 OFFCURVE",
"331 669 CURVE SMOOTH",
"331 640 OFFCURVE",
"308 621 OFFCURVE",
"281 621 CURVE SMOOTH",
"255 621 OFFCURVE",
"233 640 OFFCURVE",
"233 669 CURVE SMOOTH"
);
},
{
closed = 1;
nodes = (
"387 1014 LINE",
"187 869 LINE",
"218 824 LINE",
"392 906 LINE SMOOTH",
"412 915 OFFCURVE",
"426 931 OFFCURVE",
"426 948 CURVE SMOOTH",
"426 955 OFFCURVE",
"424 962 OFFCURVE",
"419 969 CURVE SMOOTH"
);
}
);
width = 564;
}
);
leftKerningGroup = a;
rightKerningGroup = a;
unicode = 01FB;
},
{
glyphname = ascript;
lastChange = "2017-06-07 13:43:09 +0000";
layers = (
{
hints = (
{
place = "{50, 102}";
},
{
place = "{408, 97}";
},
{
horizontal = 1;
place = "{-12, 68}";
},
{
horizontal = 1;
place = "{460, 68}";
},
{
horizontal = 1;
place = "{58, 21}";
target = up;
type = BottomGhost;
},
{
horizontal = 1;
place = "{524, -20}";
target = down;
type = TopGhost;
}
);
layerId = UUID0;
paths = (
{
closed = 1;
nodes = (
"152 361 OFFCURVE",
"196 460 OFFCURVE",
"307 460 CURVE SMOOTH",
"357 460 OFFCURVE",
"398 431 OFFCURVE",
"408 422 CURVE",
"408 155 LINE SMOOTH",
"408 85 OFFCURVE",
"339 56 OFFCURVE",
"281 56 CURVE SMOOTH",
"195 56 OFFCURVE",
"152 136 OFFCURVE",
"152 250 CURVE SMOOTH"
);
},
{
closed = 1;
nodes = (
"140 528 OFFCURVE",
"50 399 OFFCURVE",
"50 251 CURVE SMOOTH",
"50 103 OFFCURVE",
"117 -12 OFFCURVE",
"260 -12 CURVE SMOOTH",
"339 -12 OFFCURVE",
"368 12 OFFCURVE",
"403 58 CURVE",
"419 58 LINE",
"441 18 LINE SMOOTH",
"457 -12 OFFCURVE",
"494 -12 OFFCURVE",
"507 -12 CURVE SMOOTH",
"525 -12 OFFCURVE",
"532 -7 OFFCURVE",
"532 -7 CURVE",
"543 53 LINE",
"510 63 OFFCURVE",
"505 80 OFFCURVE",
"505 123 CURVE SMOOTH",
"505 411 LINE",
"523 524 LINE",
"504 524 LINE SMOOTH",
"475 524 OFFCURVE",
"454 524 OFFCURVE",
"441 500 CURVE SMOOTH",
"426 472 LINE",
"410 472 LINE",
"378 517 OFFCURVE",
"345 528 OFFCURVE",
"288 528 CURVE SMOOTH"
);
}
);
width = 595;
}
);
leftKerningGroup = o;
unicode = 0251;
},
{
glyphname = atilde;
lastChange = "2017-06-07 13:43:09 +0000";
layers = (
{
hints = (
{
place = "{57, 102}";
},
{
place = "{377, 99}";
},
{
horizontal = 1;
place = "{-12, 68}";
},
{
horizontal = 1;
place = "{247, 60}";
},
{
horizontal = 1;
place = "{460, 68}";
},
{
horizontal = 1;
place = "{610, 75}";
},
{
horizontal = 1;
place = "{651, 34}";
},
{
horizontal = 1;
place = "{651, 75}";
},
{
horizontal = 1;
place = "{58, 21}";
target = up;
type = BottomGhost;
}
);
layerId = UUID0;
paths = (
{
closed = 1;
nodes = (
"476 358 LINE",
"476 479 OFFCURVE",
"403 528 OFFCURVE",
"272 528 CURVE SMOOTH",
"223 528 OFFCURVE",
"142 515 OFFCURVE",
"96 497 CURVE",
"114 438 LINE",
"159 449 OFFCURVE",
"209 460 OFFCURVE",
"255 460 CURVE SMOOTH",
"352 460 OFFCURVE",
"377 426 OFFCURVE",
"377 349 CURVE SMOOTH",
"377 316 LINE",
"263 307 LINE SMOOTH",
"125 296 OFFCURVE",
"57 252 OFFCURVE",
"57 145 CURVE SMOOTH",
"57 41 OFFCURVE",
"124 -12 OFFCURVE",
"224 -12 CURVE SMOOTH",
"293 -12 OFFCURVE",
"336 12 OFFCURVE",
"371 58 CURVE",
"387 58 LINE",
"402 31 LINE SMOOTH",
"421 -3 OFFCURVE",
"437 -11 OFFCURVE",
"475 -12 CURVE SMOOTH",
"493 -12 OFFCURVE",
"500 -7 OFFCURVE",
"500 -7 CURVE",
"514 53 LINE",
"481 63 OFFCURVE",
"476 80 OFFCURVE",
"476 123 CURVE SMOOTH"
);
},
{
closed = 1;
nodes = (
"377 165 LINE",
"377 80 OFFCURVE",
"313 56 OFFCURVE",
"253 56 CURVE SMOOTH",
"195 56 OFFCURVE",
"159 84 OFFCURVE",
"159 150 CURVE SMOOTH",
"159 208 OFFCURVE",
"198 241 OFFCURVE",
"281 247 CURVE SMOOTH",
"377 254 LINE"
);
},
{
closed = 1;
nodes = (
"400 610 OFFCURVE",
"439 630 OFFCURVE",
"467 687 CURVE",
"411 722 LINE",
"401 699 OFFCURVE",
"378 685 OFFCURVE",
"351 685 CURVE SMOOTH",
"313 685 OFFCURVE",
"277 726 OFFCURVE",
"218 726 CURVE SMOOTH",
"169 726 OFFCURVE",
"132 703 OFFCURVE",
"104 648 CURVE",
"159 612 LINE",
"177 637 OFFCURVE",
"187 651 OFFCURVE",
"223 651 CURVE SMOOTH",
"257 651 OFFCURVE",
"293 610 OFFCURVE",
"352 610 CURVE SMOOTH"
);
}
);
width = 564;
}
);
leftKerningGroup = a;
rightKerningGroup = a;
unicode = 00E3;
},
{
glyphname = aturned;
lastChange = "2017-06-07 13:43:09 +0000";
layers = (
{
hints = (
{
place = "{88, 99}";
},
{
place = "{405, 102}";
},
{
horizontal = 1;
place = "{-12, 68}";
},
{
horizontal = 1;
place = "{209, 60}";
},
{
horizontal = 1;
place = "{460, 68}";
}
);
layerId = UUID0;
paths = (
{
closed = 1;
nodes = (
"88 158 LINE",
"88 37 OFFCURVE",
"161 -12 OFFCURVE",
"292 -12 CURVE SMOOTH",
"341 -12 OFFCURVE",
"422 1 OFFCURVE",
"468 19 CURVE",
"450 78 LINE",
"405 67 OFFCURVE",
"355 56 OFFCURVE",
"309 56 CURVE SMOOTH",
"212 56 OFFCURVE",
"187 90 OFFCURVE",
"187 167 CURVE SMOOTH",
"187 200 LINE",
"301 209 LINE SMOOTH",
"439 220 OFFCURVE",
"507 264 OFFCURVE",
"507 371 CURVE SMOOTH",
"507 475 OFFCURVE",
"440 528 OFFCURVE",
"340 528 CURVE SMOOTH",
"271 528 OFFCURVE",
"228 504 OFFCURVE",
"193 458 CURVE",
"177 458 LINE",
"162 485 LINE SMOOTH",
"143 519 OFFCURVE",
"127 527 OFFCURVE",
"89 528 CURVE SMOOTH",
"71 528 OFFCURVE",
"64 523 OFFCURVE",
"64 523 CURVE",
"50 463 LINE",
"83 453 OFFCURVE",
"88 436 OFFCURVE",
"88 393 CURVE SMOOTH"
);
},
{
closed = 1;
nodes = (
"187 351 LINE",
"187 436 OFFCURVE",
"251 460 OFFCURVE",
"311 460 CURVE SMOOTH",
"369 460 OFFCURVE",
"405 432 OFFCURVE",
"405 366 CURVE SMOOTH",
"405 308 OFFCURVE",
"366 275 OFFCURVE",
"283 269 CURVE SMOOTH",
"187 262 LINE"
);
}
);
width = 564;
}
);
leftKerningGroup = n;
unicode = 0250;
},
{
glyphname = ae;
lastChange = "2017-06-07 13:43:09 +0000";
layers = (
{
hints = (
{
place = "{57, 102}";
},
{
place = "{377, 99}";
},
{
place = "{713, 100}";
},
{
horizontal = 1;
place = "{-12, 71}";
},
{
horizontal = 1;
place = "{247, 56}";
},
{
horizontal = 1;
place = "{460, 68}";
},
{
horizontal = 1;
place = "{70, 21}";
target = up;
type = BottomGhost;
},
{
horizontal = 1;
place = "{56, 21}";
target = up;
type = BottomGhost;
}
);
layerId = UUID0;
paths = (
{
closed = 1;
nodes = (
"538 528 OFFCURVE",
"494 517 OFFCURVE",
"449 466 CURVE",
"433 466 LINE",
"400 517 OFFCURVE",
"338 528 OFFCURVE",
"272 528 CURVE SMOOTH",
"221 528 OFFCURVE",
"142 515 OFFCURVE",
"96 497 CURVE",
"114 438 LINE",
"159 449 OFFCURVE",
"209 460 OFFCURVE",
"255 460 CURVE SMOOTH",
"352 460 OFFCURVE",
"377 426 OFFCURVE",
"377 349 CURVE SMOOTH",
"377 309 LINE",
"265 303 LINE SMOOTH",
"129 295 OFFCURVE",
"57 250 OFFCURVE",
"57 145 CURVE SMOOTH",
"57 41 OFFCURVE",
"124 -12 OFFCURVE",
"244 -12 CURVE SMOOTH",
"329 -12 OFFCURVE",
"372 22 OFFCURVE",
"405 70 CURVE",
"421 70 LINE",
"459 18 OFFCURVE",
"523 -12 OFFCURVE",
"610 -12 CURVE SMOOTH",
"674 -12 OFFCURVE",
"738 3 OFFCURVE",
"794 27 CURVE",
"774 87 LINE",
"718 68 OFFCURVE",
"675 59 OFFCURVE",
"617 59 CURVE SMOOTH",
"516 59 OFFCURVE",
"476 131 OFFCURVE",
"476 247 CURVE",
"813 247 LINE",
"813 284 LINE SMOOTH",
"813 434 OFFCURVE",
"752 528 OFFCURVE",
"597 528 CURVE SMOOTH"
);
},
{
closed = 1;
nodes = (
"377 165 LINE",
"377 80 OFFCURVE",
"313 56 OFFCURVE",
"253 56 CURVE SMOOTH",
"195 56 OFFCURVE",
"159 84 OFFCURVE",
"159 150 CURVE SMOOTH",
"159 206 OFFCURVE",
"198 240 OFFCURVE",
"281 243 CURVE SMOOTH",
"377 247 LINE"
);
},
{
closed = 1;
nodes = (
"476 309 LINE",
"480 391 OFFCURVE",
"500 461 OFFCURVE",
"596 461 CURVE SMOOTH",
"692 461 OFFCURVE",
"713 391 OFFCURVE",
"713 309 CURVE"
);
}
);
width = 858;
}
);
unicode = 00E6;
},
{
glyphname = aeacute;
lastChange = "2017-06-07 13:43:09 +0000";
layers = (
{
hints = (
{
place = "{68, 102}";
},
{
place = "{388, 99}";
},
{
place = "{724, 100}";
},
{
horizontal = 1;
place = "{-12, 71}";
},
{
horizontal = 1;
place = "{247, 56}";
},
{
horizontal = 1;
place = "{460, 68}";
},
{
horizontal = 1;
place = "{70, 21}";
target = up;
type = BottomGhost;
},
{
horizontal = 1;
place = "{56, 21}";
target = up;
type = BottomGhost;
},
{
horizontal = 1;
place = "{777, -20}";
target = down;
type = TopGhost;
}
);
layerId = UUID0;
paths = (
{
closed = 1;
nodes = (
"549 528 OFFCURVE",
"505 517 OFFCURVE",
"460 466 CURVE",
"444 466 LINE",
"411 517 OFFCURVE",
"349 528 OFFCURVE",
"283 528 CURVE SMOOTH",
"232 528 OFFCURVE",
"153 515 OFFCURVE",
"107 497 CURVE",
"125 438 LINE",
"170 449 OFFCURVE",
"220 460 OFFCURVE",
"266 460 CURVE SMOOTH",
"363 460 OFFCURVE",
"388 426 OFFCURVE",
"388 349 CURVE SMOOTH",
"388 309 LINE",
"276 303 LINE SMOOTH",
"140 295 OFFCURVE",
"68 250 OFFCURVE",
"68 145 CURVE SMOOTH",
"68 41 OFFCURVE",
"135 -12 OFFCURVE",
"255 -12 CURVE SMOOTH",
"340 -12 OFFCURVE",
"383 22 OFFCURVE",
"416 70 CURVE",
"432 70 LINE",
"470 18 OFFCURVE",
"534 -12 OFFCURVE",
"621 -12 CURVE SMOOTH",
"685 -12 OFFCURVE",
"749 3 OFFCURVE",
"805 27 CURVE",
"785 87 LINE",
"729 68 OFFCURVE",
"686 59 OFFCURVE",
"628 59 CURVE SMOOTH",
"527 59 OFFCURVE",
"487 131 OFFCURVE",
"487 247 CURVE",
"824 247 LINE",
"824 284 LINE SMOOTH",
"824 434 OFFCURVE",
"763 528 OFFCURVE",
"608 528 CURVE SMOOTH"
);
},
{
closed = 1;
nodes = (
"388 165 LINE",
"388 80 OFFCURVE",
"324 56 OFFCURVE",
"264 56 CURVE SMOOTH",
"206 56 OFFCURVE",
"170 84 OFFCURVE",
"170 150 CURVE SMOOTH",
"170 206 OFFCURVE",
"209 240 OFFCURVE",
"292 243 CURVE SMOOTH",
"388 247 LINE"
);
},
{
closed = 1;
nodes = (
"487 309 LINE",
"491 391 OFFCURVE",
"511 461 OFFCURVE",
"607 461 CURVE SMOOTH",
"703 461 OFFCURVE",
"724 391 OFFCURVE",
"724 309 CURVE"
);
},
{
closed = 1;
nodes = (
"607 777 LINE",
"407 632 LINE",
"438 587 LINE",
"612 669 LINE SMOOTH",
"632 678 OFFCURVE",
"646 694 OFFCURVE",
"646 711 CURVE SMOOTH",
"646 718 OFFCURVE",
"644 725 OFFCURVE",
"639 732 CURVE SMOOTH"
);
}
);
width = 889;
}
);
unicode = 01FD;
},
{
glyphname = b;
lastChange = "2017-06-07 13:43:09 +0000";
layers = (
{
hints = (
{
place = "{78, 100}";
},
{
place = "{427, 106}";
},
{
horizontal = 1;
place = "{-12, 67}";
},
{
horizontal = 1;
place = "{460, 68}";
},
{
horizontal = 1;
place = "{740, -20}";
target = down;
type = TopGhost;
}
);
layerId = UUID0;
paths = (
{
closed = 1;
nodes = (
"162 453 LINE",
"162 453 OFFCURVE",
"178 500 OFFCURVE",
"178 550 CURVE SMOOTH",
"178 740 LINE",
"78 740 LINE",
"78 18 LINE",
"143 4 OFFCURVE",
"226 -12 OFFCURVE",
"291 -12 CURVE SMOOTH",
"459 -12 OFFCURVE",
"533 91 OFFCURVE",
"533 259 CURVE SMOOTH",
"533 427 OFFCURVE",
"465 528 OFFCURVE",
"327 528 CURVE SMOOTH",
"264 528 OFFCURVE",
"211 503 OFFCURVE",
"178 444 CURVE"
);
},
{
closed = 1;
nodes = (
"411 460 OFFCURVE",
"427 378 OFFCURVE",
"427 259 CURVE SMOOTH",
"427 140 OFFCURVE",
"409 55 OFFCURVE",
"280 55 CURVE SMOOTH",
"244 55 OFFCURVE",
"213 60 OFFCURVE",
"178 73 CURVE",
"178 350 LINE SMOOTH",
"178 435 OFFCURVE",
"243 460 OFFCURVE",
"302 460 CURVE SMOOTH"
);
}
);
width = 583;
}
);
rightKerningGroup = o;
unicode = 0062;
},
{
glyphname = bhook;
lastChange = "2017-06-07 13:43:09 +0000";
layers = (
{
hints = (
{
place = "{78, 100}";
},
{
place = "{427, 106}";
},
{
horizontal = 1;
place = "{-12, 67}";
},
{
horizontal = 1;
place = "{460, 68}";
},
{
horizontal = 1;
place = "{684, 68}";
}
);
layerId = UUID0;
paths = (
{
closed = 1;
nodes = (
"411 460 OFFCURVE",
"427 378 OFFCURVE",
"427 259 CURVE SMOOTH",
"427 140 OFFCURVE",
"409 55 OFFCURVE",
"280 55 CURVE SMOOTH",
"244 55 OFFCURVE",
"213 60 OFFCURVE",
"178 73 CURVE",
"178 350 LINE SMOOTH",
"178 435 OFFCURVE",
"243 460 OFFCURVE",
"302 460 CURVE SMOOTH"
);
},
{
closed = 1;
nodes = (
"265 528 OFFCURVE",
"211 503 OFFCURVE",
"178 444 CURVE",
"162 453 LINE",
"162 453 OFFCURVE",
"178 503 OFFCURVE",
"178 540 CURVE SMOOTH",
"178 629 OFFCURVE",
"200 684 OFFCURVE",
"312 684 CURVE SMOOTH",
"348 684 OFFCURVE",
"367 680 OFFCURVE",
"396 672 CURVE",
"415 733 LINE",
"382 744 OFFCURVE",
"347 752 OFFCURVE",
"281 752 CURVE SMOOTH",
"143 752 OFFCURVE",
"78 679 OFFCURVE",
"78 558 CURVE SMOOTH",
"78 18 LINE",
"143 4 OFFCURVE",
"226 -12 OFFCURVE",
"291 -12 CURVE SMOOTH",
"459 -12 OFFCURVE",
"533 91 OFFCURVE",
"533 259 CURVE SMOOTH",
"533 427 OFFCURVE",
"465 528 OFFCURVE",
"327 528 CURVE SMOOTH"
);
}
);
width = 583;
}
);
rightKerningGroup = o;
unicode = 0253;
},
{
glyphname = c;
lastChange = "2017-06-07 13:43:09 +0000";
layers = (
{
hints = (
{
place = "{50, 106}";
},
{
horizontal = 1;
place = "{-12, 69}";
},
{
horizontal = 1;
place = "{460, 68}";
}
);
layerId = UUID0;
paths = (
{
closed = 1;
nodes = (
"198 57 OFFCURVE",
"156 138 OFFCURVE",
"156 258 CURVE SMOOTH",
"156 378 OFFCURVE",
"198 460 OFFCURVE",
"298 460 CURVE SMOOTH",
"349 460 OFFCURVE",
"393 451 OFFCURVE",
"418 443 CURVE",
"438 502 LINE",
"412 513 OFFCURVE",
"358 528 OFFCURVE",
"298 528 CURVE SMOOTH",
"136 528 OFFCURVE",
"50 438 OFFCURVE",
"50 258 CURVE SMOOTH",
"50 78 OFFCURVE",
"136 -12 OFFCURVE",
"298 -12 CURVE SMOOTH",
"358 -12 OFFCURVE",
"412 3 OFFCURVE",
"438 14 CURVE",
"418 75 LINE",
"385 65 OFFCURVE",
"349 57 OFFCURVE",
"298 57 CURVE SMOOTH"
);
}
);
width = 463;
}
);
leftKerningGroup = o;
unicode = 0063;
},
{
glyphname = cacute;
lastChange = "2017-06-07 13:43:09 +0000";
layers = (
{
hints = (
{
place = "{50, 106}";
},
{
horizontal = 1;
place = "{-12, 69}";
},
{
horizontal = 1;
place = "{460, 68}";
},
{
horizontal = 1;
place = "{777, -20}";
target = down;
type = TopGhost;
}
);
layerId = UUID0;
paths = (
{
closed = 1;
nodes = (
"383 777 LINE",
"183 632 LINE",
"214 587 LINE",
"388 669 LINE SMOOTH",
"408 678 OFFCURVE",
"422 694 OFFCURVE",
"422 711 CURVE SMOOTH",
"422 718 OFFCURVE",
"420 725 OFFCURVE",
"415 732 CURVE SMOOTH"
);
},
{
closed = 1;
nodes = (
"198 57 OFFCURVE",
"156 138 OFFCURVE",
"156 258 CURVE SMOOTH",
"156 378 OFFCURVE",
"198 460 OFFCURVE",
"298 460 CURVE SMOOTH",
"349 460 OFFCURVE",
"393 451 OFFCURVE",
"418 443 CURVE",
"438 502 LINE",
"412 513 OFFCURVE",
"358 528 OFFCURVE",
"298 528 CURVE SMOOTH",
"136 528 OFFCURVE",
"50 438 OFFCURVE",
"50 258 CURVE SMOOTH",
"50 78 OFFCURVE",
"136 -12 OFFCURVE",
"298 -12 CURVE SMOOTH",
"358 -12 OFFCURVE",
"412 3 OFFCURVE",
"438 14 CURVE",
"418 75 LINE",
"385 65 OFFCURVE",
"349 57 OFFCURVE",
"298 57 CURVE SMOOTH"
);
}
);
width = 463;
}
);
leftKerningGroup = o;
unicode = 0107;
},
{
glyphname = ccaron;
lastChange = "2017-06-07 13:43:09 +0000";
layers = (
{
hints = (
{
place = "{50, 106}";
},
{
horizontal = 1;
place = "{-12, 69}";
},
{
horizontal = 1;
place = "{460, 68}";
},
{
horizontal = 1;
place = "{460, 136}";
},
{
horizontal = 1;
place = "{776, -20}";
target = down;
type = TopGhost;
}
);
layerId = UUID0;
paths = (
{
closed = 1;
nodes = (
"198 57 OFFCURVE",
"156 138 OFFCURVE",
"156 258 CURVE SMOOTH",
"156 378 OFFCURVE",
"198 460 OFFCURVE",
"298 460 CURVE SMOOTH",
"349 460 OFFCURVE",
"393 451 OFFCURVE",
"418 443 CURVE",
"438 502 LINE",
"412 513 OFFCURVE",
"358 528 OFFCURVE",
"298 528 CURVE SMOOTH",
"136 528 OFFCURVE",
"50 438 OFFCURVE",
"50 258 CURVE SMOOTH",
"50 78 OFFCURVE",
"136 -12 OFFCURVE",
"298 -12 CURVE SMOOTH",
"358 -12 OFFCURVE",
"412 3 OFFCURVE",
"438 14 CURVE",
"418 75 LINE",
"385 65 OFFCURVE",
"349 57 OFFCURVE",
"298 57 CURVE SMOOTH"
);
},
{
closed = 1;
nodes = (
"323 596 LINE",
"230 596 LINE",
"105 744 LINE",
"141 776 LINE",
"277 663 LINE",
"412 776 LINE",
"448 744 LINE"
);
}
);
width = 473;
}
);
leftKerningGroup = o;
unicode = 010D;
},
{
glyphname = ccedilla;
lastChange = "2017-06-07 13:43:09 +0000";
layers = (
{
hints = (
{
place = "{50, 106}";
},
{
place = "{296, 62}";
},
{
horizontal = 1;
place = "{-220, 43}";
},
{
horizontal = 1;
place = "{-84, 141}";
},
{
horizontal = 1;
place = "{-12, 69}";
},
{
horizontal = 1;
place = "{460, 68}";
}
);
layerId = UUID0;
paths = (
{
closed = 1;
nodes = (
"219 -177 OFFCURVE",
"203 -174 OFFCURVE",
"188 -170 CURVE",
"178 -210 LINE",
"193 -215 OFFCURVE",
"218 -220 OFFCURVE",
"246 -220 CURVE SMOOTH",
"319 -220 OFFCURVE",
"358 -190 OFFCURVE",
"358 -130 CURVE SMOOTH",
"358 -90 OFFCURVE",
"327 -56 OFFCURVE",
"269 -48 CURVE",
"279 -11 LINE",
"285 -12 OFFCURVE",
"291 -12 OFFCURVE",
"298 -12 CURVE SMOOTH",
"358 -12 OFFCURVE",
"412 3 OFFCURVE",
"438 14 CURVE",
"418 75 LINE",
"385 65 OFFCURVE",
"349 57 OFFCURVE",
"298 57 CURVE SMOOTH",
"198 57 OFFCURVE",
"156 138 OFFCURVE",
"156 258 CURVE SMOOTH",
"156 378 OFFCURVE",
"198 460 OFFCURVE",
"298 460 CURVE SMOOTH",
"349 460 OFFCURVE",
"393 451 OFFCURVE",
"418 443 CURVE",
"438 502 LINE",
"412 513 OFFCURVE",
"358 528 OFFCURVE",
"298 528 CURVE SMOOTH",
"136 528 OFFCURVE",
"50 438 OFFCURVE",
"50 258 CURVE SMOOTH",
"50 106 OFFCURVE",
"111 19 OFFCURVE",
"227 -5 CURVE",
"208 -84 LINE",
"257 -87 OFFCURVE",
"296 -94 OFFCURVE",
"296 -129 CURVE SMOOTH",
"296 -155 OFFCURVE",
"281 -177 OFFCURVE",
"242 -177 CURVE SMOOTH"
);
}
);
width = 463;
}
);
leftKerningGroup = o;
unicode = 00E7;
},
{
glyphname = ccircumflex;
lastChange = "2017-06-07 13:43:09 +0000";
layers = (
{
hints = (
{
place = "{50, 106}";
},
{
horizontal = 1;
place = "{-12, 69}";
},
{
horizontal = 1;
place = "{460, 68}";
},
{
horizontal = 1;
place = "{528, 231}";
}
);
layerId = UUID0;
paths = (
{
closed = 1;
nodes = (
"198 57 OFFCURVE",
"156 138 OFFCURVE",
"156 258 CURVE SMOOTH",
"156 378 OFFCURVE",
"198 460 OFFCURVE",
"298 460 CURVE SMOOTH",
"349 460 OFFCURVE",
"393 451 OFFCURVE",
"418 443 CURVE",
"438 502 LINE",
"412 513 OFFCURVE",
"358 528 OFFCURVE",
"298 528 CURVE SMOOTH",
"136 528 OFFCURVE",
"50 438 OFFCURVE",
"50 258 CURVE SMOOTH",
"50 78 OFFCURVE",
"136 -12 OFFCURVE",
"298 -12 CURVE SMOOTH",
"358 -12 OFFCURVE",
"412 3 OFFCURVE",
"438 14 CURVE",
"418 75 LINE",
"385 65 OFFCURVE",
"349 57 OFFCURVE",
"298 57 CURVE SMOOTH"
);
},
{
closed = 1;
nodes = (
"242 759 LINE",
"335 759 LINE",
"460 611 LINE",
"424 579 LINE",
"288 692 LINE",
"153 579 LINE",
"117 611 LINE"
);
}
);
width = 463;
}
);
leftKerningGroup = o;
unicode = 0109;
},
{
glyphname = ccurl;
lastChange = "2017-06-07 13:43:09 +0000";
layers = (
{
hints = (
{
place = "{50, 103}";
},
{
place = "{404, 74}";
},
{
horizontal = 1;
place = "{-12, 68}";
},
{
horizontal = 1;
place = "{198, 65}";
},
{
horizontal = 1;
place = "{460, 68}";
},
{
horizontal = 1;
place = "{-115, 21}";
target = up;
type = BottomGhost;
},
{
horizontal = 1;
place = "{138, 21}";
target = up;
type = BottomGhost;
}
);
layerId = UUID0;
paths = (
{
closed = 1;
nodes = (
"346 460 OFFCURVE",
"390 451 OFFCURVE",
"415 443 CURVE",
"435 502 LINE",
"409 513 OFFCURVE",
"355 528 OFFCURVE",
"295 528 CURVE SMOOTH",
"135 528 OFFCURVE",
"50 418 OFFCURVE",
"50 258 CURVE SMOOTH",
"50 172 OFFCURVE",
"75 100 OFFCURVE",
"122 52 CURVE",
"107 -2 OFFCURVE",
"100 -58 OFFCURVE",
"100 -110 CURVE",
"167 -115 LINE",
"170 -76 OFFCURVE",
"175 -32 OFFCURVE",
"184 10 CURVE",
"215 -4 OFFCURVE",
"252 -12 OFFCURVE",
"295 -12 CURVE SMOOTH",
"398 -12 OFFCURVE",
"478 49 OFFCURVE",
"478 143 CURVE SMOOTH",
"478 212 OFFCURVE",
"429 263 OFFCURVE",
"349 263 CURVE SMOOTH",
"284 263 OFFCURVE",
"201 240 OFFCURVE",
"187 138 CURVE",
"172 138 LINE",
"156 171 OFFCURVE",
"153 218 OFFCURVE",
"153 258 CURVE SMOOTH",
"153 368 OFFCURVE",
"185 459 OFFCURVE",
"295 460 CURVE SMOOTH"
);
},
{
closed = 1;
nodes = (
"257 56 OFFCURVE",
"228 67 OFFCURVE",
"206 86 CURVE",
"209 93 OFFCURVE",
"212 100 OFFCURVE",
"216 107 CURVE SMOOTH",
"246 162 OFFCURVE",
"286 198 OFFCURVE",
"348 198 CURVE SMOOTH",
"378 198 OFFCURVE",
"404 179 OFFCURVE",
"404 143 CURVE SMOOTH",
"404 87 OFFCURVE",
"352 56 OFFCURVE",
"295 56 CURVE SMOOTH"
);
}
);
width = 503;
}
);
unicode = 0255;
},
{
glyphname = cdot;
lastChange = "2017-06-07 13:43:09 +0000";
layers = (
{
hints = (
{
place = "{50, 106}";
},
{
place = "{208, 142}";
},
{
horizontal = 1;
place = "{-12, 69}";
},
{
horizontal = 1;
place = "{460, 68}";
},
{
horizontal = 1;
place = "{602, 142}";
}
);
layerId = UUID0;
paths = (
{
closed = 1;
nodes = (
"198 57 OFFCURVE",
"156 138 OFFCURVE",
"156 258 CURVE SMOOTH",
"156 378 OFFCURVE",
"198 460 OFFCURVE",
"298 460 CURVE SMOOTH",
"349 460 OFFCURVE",
"393 451 OFFCURVE",
"418 443 CURVE",
"438 502 LINE",
"412 513 OFFCURVE",
"358 528 OFFCURVE",
"298 528 CURVE SMOOTH",
"136 528 OFFCURVE",
"50 438 OFFCURVE",
"50 258 CURVE SMOOTH",
"50 78 OFFCURVE",
"136 -12 OFFCURVE",
"298 -12 CURVE SMOOTH",
"358 -12 OFFCURVE",
"412 3 OFFCURVE",
"438 14 CURVE",
"418 75 LINE",
"385 65 OFFCURVE",
"349 57 OFFCURVE",
"298 57 CURVE SMOOTH"
);
},
{
closed = 1;
nodes = (
"208 634 OFFCURVE",
"240 602 OFFCURVE",
"279 602 CURVE SMOOTH",
"318 602 OFFCURVE",
"350 634 OFFCURVE",
"350 673 CURVE SMOOTH",
"350 712 OFFCURVE",
"318 744 OFFCURVE",
"279 744 CURVE SMOOTH",
"240 744 OFFCURVE",
"208 712 OFFCURVE",
"208 673 CURVE SMOOTH"
);
}
);
width = 463;
}
);
leftKerningGroup = o;
unicode = 010B;
},
{
glyphname = d;
lastChange = "2017-06-07 13:43:09 +0000";
layers = (
{
hints = (
{
place = "{50, 106}";
},
{
place = "{402, 100}";
},
{
horizontal = 1;
place = "{-12, 68}";
},
{
horizontal = 1;
place = "{460, 68}";
},
{
horizontal = 1;
place = "{44, 21}";
target = up;
type = BottomGhost;
},
{
horizontal = 1;
place = "{-8, -20}";
target = down;
type = TopGhost;
},
{
horizontal = 1;
place = "{740, -20}";
target = down;
type = TopGhost;
}
);
layerId = UUID0;
paths = (
{
closed = 1;
nodes = (
"156 375 OFFCURVE",
"185 460 OFFCURVE",
"289 460 CURVE SMOOTH",
"356 460 OFFCURVE",
"402 440 OFFCURVE",
"402 440 CURVE",
"402 96 LINE",
"379 76 OFFCURVE",
"339 56 OFFCURVE",
"289 56 CURVE SMOOTH",
"179 56 OFFCURVE",
"156 146 OFFCURVE",
"156 257 CURVE SMOOTH"
);
},
{
closed = 1;
nodes = (
"329 -12 OFFCURVE",
"373 -1 OFFCURVE",
"405 44 CURVE",
"421 44 LINE",
"435 18 LINE SMOOTH",
"447 -3 OFFCURVE",
"462 -8 OFFCURVE",
"478 -8 CURVE SMOOTH",
"526 -8 LINE",
"502 103 LINE",
"502 740 LINE",
"402 740 LINE",
"402 504 LINE",
"402 504 OFFCURVE",
"344 528 OFFCURVE",
"289 528 CURVE SMOOTH",
"133 528 OFFCURVE",
"50 424 OFFCURVE",
"50 256 CURVE SMOOTH",
"50 88 OFFCURVE",
"119 -12 OFFCURVE",
"263 -12 CURVE SMOOTH"
);
}
);
width = 582;
}
);
leftKerningGroup = o;
unicode = 0064;
},
{
glyphname = eth;
lastChange = "2017-06-07 13:43:09 +0000";
layers = (
{
hints = (
{
place = "{50, 105}";
},
{
place = "{428, 105}";
},
{
horizontal = 1;
place = "{-12, 65}";
},
{
horizontal = 1;
place = "{426, 66}";
},
{
horizontal = 1;
place = "{751, -20}";
target = down;
type = TopGhost;
}
);
layerId = UUID0;
paths = (
{
closed = 1;
nodes = (
"194 541 LINE",
"298 612 LINE",
"359 565 OFFCURVE",
"395 503 OFFCURVE",
"421 439 CURVE",
"406 434 LINE",
"388 471 OFFCURVE",
"346 492 OFFCURVE",
"292 492 CURVE SMOOTH",
"134 492 OFFCURVE",
"50 398 OFFCURVE",
"50 244 CURVE SMOOTH",
"50 90 OFFCURVE",
"132 -12 OFFCURVE",
"290 -12 CURVE SMOOTH",
"448 -12 OFFCURVE",
"533 84 OFFCURVE",
"533 257 CURVE SMOOTH",
"533 409 OFFCURVE",
"491 555 OFFCURVE",
"362 656 CURVE",
"431 703 LINE",
"398 751 LINE",
"312 692 LINE",
"273 715 OFFCURVE",
"227 734 OFFCURVE",
"175 750 CURVE",
"150 688 LINE",
"186 675 OFFCURVE",
"217 661 OFFCURVE",
"245 646 CURVE",
"161 588 LINE"
);
},
{
closed = 1;
nodes = (
"191 53 OFFCURVE",
"155 146 OFFCURVE",
"155 244 CURVE SMOOTH",
"155 342 OFFCURVE",
"193 426 OFFCURVE",
"292 426 CURVE SMOOTH",
"392 426 OFFCURVE",
"428 342 OFFCURVE",
"428 244 CURVE SMOOTH",
"428 146 OFFCURVE",
"389 53 OFFCURVE",
"290 53 CURVE SMOOTH"
);
}
);
width = 583;
}
);
unicode = 00F0;
},
{
glyphname = dcaron;
lastChange = "2017-06-07 13:43:09 +0000";
layers = (
{
hints = (
{
place = "{50, 106}";
},
{
place = "{402, 100}";
},
{
place = "{502, 91}";
},
{
place = "{156, 246}";
},
{
horizontal = 1;
place = "{-12, 68}";
},
{
horizontal = 1;
place = "{460, 68}";
},
{
horizontal = 1;
place = "{44, 21}";
target = up;
type = BottomGhost;
},
{
horizontal = 1;
place = "{-8, -20}";
target = down;
type = TopGhost;
},
{
horizontal = 1;
place = "{740, -20}";
target = down;
type = TopGhost;
},
{
horizontal = 1;
place = "{787, -20}";
target = down;
type = TopGhost;
}
);
layerId = UUID0;
paths = (
{
closed = 1;
nodes = (
"156 375 OFFCURVE",
"185 460 OFFCURVE",
"289 460 CURVE SMOOTH",
"356 460 OFFCURVE",
"402 440 OFFCURVE",
"402 440 CURVE",
"402 96 LINE",
"379 76 OFFCURVE",
"339 56 OFFCURVE",
"289 56 CURVE SMOOTH",
"179 56 OFFCURVE",
"156 146 OFFCURVE",
"156 257 CURVE SMOOTH"
);
},
{
closed = 1;
nodes = (
"329 -12 OFFCURVE",
"373 -1 OFFCURVE",
"405 44 CURVE",
"421 44 LINE",
"435 18 LINE SMOOTH",
"447 -3 OFFCURVE",
"462 -8 OFFCURVE",
"478 -8 CURVE SMOOTH",
"526 -8 LINE",
"502 103 LINE",
"502 740 LINE",
"402 740 LINE",
"402 504 LINE",
"402 504 OFFCURVE",
"344 528 OFFCURVE",
"289 528 CURVE SMOOTH",
"133 528 OFFCURVE",
"50 424 OFFCURVE",
"50 256 CURVE SMOOTH",
"50 88 OFFCURVE",
"119 -12 OFFCURVE",
"263 -12 CURVE SMOOTH"
);
},
{
closed = 1;
nodes = (
"595 787 LINE",
"591 715 LINE SMOOTH",
"589 675 OFFCURVE",
"565 633 OFFCURVE",
"544 585 CURVE",
"608 554 LINE",
"608 554 OFFCURVE",
"674 631 OFFCURVE",
"680 662 CURVE SMOOTH",
"694 736 LINE SMOOTH",
"695 740 OFFCURVE",
"695 743 OFFCURVE",
"695 747 CURVE SMOOTH",
"695 766 OFFCURVE",
"686 781 OFFCURVE",
"658 783 CURVE SMOOTH"
);
}
);
width = 665;
}
);
leftKerningGroup = o;
unicode = 010F;
},
{
glyphname = dhook;
lastChange = "2017-06-07 13:43:09 +0000";
layers = (
{
hints = (
{
place = "{50, 106}";
},
{
place = "{402, 100}";
},
{
horizontal = 1;
place = "{-12, 68}";
},
{
horizontal = 1;
place = "{460, 68}";
},
{
horizontal = 1;
place = "{699, 68}";
},
{
horizontal = 1;
place = "{44, 21}";
target = up;
type = BottomGhost;
},
{
horizontal = 1;
place = "{-8, -20}";
target = down;
type = TopGhost;
}
);
layerId = UUID0;
paths = (
{
closed = 1;
nodes = (
"502 103 LINE",
"502 623 LINE SMOOTH",
"502 660 OFFCURVE",
"506 699 OFFCURVE",
"557 699 CURVE SMOOTH",
"578 699 OFFCURVE",
"595 694 OFFCURVE",
"606 690 CURVE",
"625 751 LINE",
"599 762 OFFCURVE",
"571 767 OFFCURVE",
"546 767 CURVE SMOOTH",
"444 767 OFFCURVE",
"402 706 OFFCURVE",
"402 624 CURVE SMOOTH",
"402 504 LINE",
"402 504 OFFCURVE",
"344 528 OFFCURVE",
"289 528 CURVE SMOOTH",
"133 528 OFFCURVE",
"50 424 OFFCURVE",
"50 256 CURVE SMOOTH",
"50 88 OFFCURVE",
"119 -12 OFFCURVE",
"263 -12 CURVE SMOOTH",
"329 -12 OFFCURVE",
"373 -1 OFFCURVE",
"405 44 CURVE",
"421 44 LINE",
"435 18 LINE SMOOTH",
"447 -3 OFFCURVE",
"462 -8 OFFCURVE",
"478 -8 CURVE SMOOTH",
"526 -8 LINE"
);
},
{
closed = 1;
nodes = (
"156 375 OFFCURVE",
"185 460 OFFCURVE",
"289 460 CURVE SMOOTH",
"356 460 OFFCURVE",
"402 440 OFFCURVE",
"402 440 CURVE",
"402 96 LINE",
"379 76 OFFCURVE",
"339 56 OFFCURVE",
"289 56 CURVE SMOOTH",
"179 56 OFFCURVE",
"156 146 OFFCURVE",
"156 257 CURVE SMOOTH"
);
}
);
width = 582;
}
);
leftKerningGroup = o;
unicode = 0257;
},
